JosefinSlab-ThinItalic.ufo
<glyph name="exclam" format="2">
  <advance width="201"/>
  <unicode hex="0021"/>
  <outline>
    <contour>
      <point x="49" y="36" type="qcurve" smooth="yes"/>
      <point x="42" y="36"/>
      <point x="32" y="48"/>
      <point x="33" y="56" type="qcurve" smooth="yes"/>
      <point x="34" y="65"/>
      <point x="48" y="76"/>
      <point x="55" y="76" type="qcurve" smooth="yes"/>
      <point x="63" y="76"/>
      <point x="73" y="65"/>
      <point x="72" y="56" type="qcurve" smooth="yes"/>
      <point x="71" y="48"/>
      <point x="57" y="36"/>
    </contour>
    <contour>
      <point x="143" y="750" type="line"/>
      <point x="157" y="750" type="line"/>
      <point x="75" y="166" type="line"/>
      <point x="61" y="166" type="line"/>
    </contour>
  </outline>
</glyph>
<glyph name="numbersign" format="1">
  <advance width="571"/>
  <unicode hex="0023"/>
  <outline>
    <contour>
      <point x="194" y="407" type="line"/>
      <point x="183" y="365"/>
      <point x="161" y="281"/>
      <point x="150" y="239" type="qcurve"/>
      <point x="320" y="239" type="line"/>
      <point x="331" y="281"/>
      <point x="353" y="365"/>
      <point x="364" y="407" type="qcurve"/>
    </contour>
    <contour>
      <point x="258" y="0" type="line"/>
      <point x="273" y="57"/>
      <point x="301" y="168"/>
      <point x="316" y="225" type="qcurve"/>
      <point x="146" y="225" type="line"/>
      <point x="131" y="168"/>
      <point x="103" y="57"/>
      <point x="88" y="0" type="qcurve"/>
      <point x="74" y="0" type="line"/>
      <point x="89" y="57"/>
      <point x="117" y="168"/>
      <point x="132" y="225" type="qcurve"/>
      <point x="15" y="225" type="line"/>
      <point x="16" y="229"/>
      <point x="17" y="235"/>
      <point x="18" y="239" type="qcurve"/>
      <point x="136" y="239" type="line"/>
      <point x="147" y="281"/>
      <point x="169" y="365"/>
      <point x="180" y="407" type="qcurve"/>
      <point x="64" y="407" type="line"/>
      <point x="64" y="411"/>
      <point x="66" y="417"/>
      <point x="66" y="421" type="qcurve"/>
      <point x="183" y="421" type="line"/>
      <point x="198" y="477"/>
      <point x="227" y="587"/>
      <point x="242" y="643" type="qcurve"/>
      <point x="256" y="643" type="line"/>
      <point x="241" y="587"/>
      <point x="212" y="477"/>
      <point x="197" y="421" type="qcurve"/>
      <point x="367" y="421" type="line"/>
      <point x="382" y="477"/>
      <point x="411" y="587"/>
      <point x="426" y="643" type="qcurve"/>
      <point x="440" y="643" type="line"/>
      <point x="425" y="587"/>
      <point x="396" y="477"/>
      <point x="381" y="421" type="qcurve"/>
      <point x="517" y="421" type="line"/>
      <point x="517" y="417"/>
      <point x="515" y="411"/>
      <point x="515" y="407" type="qcurve"/>
      <point x="378" y="407" type="line"/>
      <point x="367" y="365"/>
      <point x="345" y="281"/>
      <point x="334" y="239" type="qcurve"/>
      <point x="469" y="239" type="line"/>
      <point x="468" y="235"/>
      <point x="467" y="229"/>
      <point x="466" y="225" type="qcurve"/>
      <point x="330" y="225" type="line"/>
      <point x="315" y="168"/>
      <point x="287" y="57"/>
      <point x="272" y="0" type="qcurve"/>
    </contour>
  </outline>
</glyph>
<glyph name="dollar" format="2">
  <advance width="567"/>
  <unicode hex="0024"/>
  <outline>
    <contour>
      <point x="399" y="546" type="line"/>
      <point x="414" y="653" type="line"/>
      <point x="397" y="667"/>
      <point x="337" y="688"/>
      <point x="293" y="690" type="qcurve"/>
      <point x="249" y="380" type="line"/>
      <point x="284" y="369"/>
      <point x="353" y="345"/>
      <point x="379" y="324.5" type="qcurve" smooth="yes" name="inserted"/>
      <point x="405" y="304"/>
      <point x="433" y="238"/>
      <point x="427" y="186" type="qcurve" smooth="yes"/>
      <point x="422" y="142"/>
      <point x="380" y="72"/>
      <point x="348.5" y="46.5" type="qcurve" smooth="yes" name="inserted"/>
      <point x="317" y="21"/>
      <point x="237" y="-7"/>
      <point x="194" y="-8" type="qcurve"/>
      <point x="186" y="-68" type="line"/>
      <point x="173" y="-68" type="line"/>
      <point x="181" y="-8" type="line"/>
      <point x="143" y="-7"/>
      <point x="84" y="9"/>
      <point x="62.5" y="20" type="qcurve" smooth="yes" name="inserted"/>
      <point x="41" y="31"/>
      <point x="13" y="55"/>
      <point x="6" y="64" type="qcurve"/>
      <point x="20" y="164" type="line"/>
      <point x="34" y="164" type="line"/>
      <point x="21" y="74" type="line"/>
      <point x="45" y="45"/>
      <point x="123" y="7"/>
      <point x="183" y="6" type="qcurve"/>
      <point x="234" y="367" type="line"/>
      <point x="204" y="376"/>
      <point x="149" y="397"/>
      <point x="128.5" y="413.5" type="qcurve" smooth="yes" name="inserted"/>
      <point x="108" y="430"/>
      <point x="86" y="479"/>
      <point x="89" y="517" type="qcurve" smooth="yes"/>
      <point x="92" y="550"/>
      <point x="119" y="615"/>
      <point x="143" y="642" type="qcurve" smooth="yes" name="inserted"/>
      <point x="167" y="669"/>
      <point x="237" y="703"/>
      <point x="282" y="704" type="qcurve"/>
      <point x="290" y="764" type="line"/>
      <point x="303" y="764" type="line"/>
      <point x="295" y="704" type="line"/>
      <point x="311" y="704"/>
      <point x="347" y="699"/>
      <point x="365" y="694" type="qcurve" smooth="yes" name="inserted"/>
      <point x="383" y="689"/>
      <point x="416" y="673"/>
      <point x="429" y="660" type="qcurve"/>
      <point x="413" y="546" type="line"/>
    </contour>
    <contour>
      <point x="412" y="182" type="qcurve" smooth="yes"/>
      <point x="419" y="230"/>
      <point x="394" y="292"/>
      <point x="370" y="311.5" type="qcurve" smooth="yes" name="inserted"/>
      <point x="346" y="331"/>
      <point x="281" y="353"/>
      <point x="247" y="363" type="qcurve"/>
      <point x="196" y="6" type="line"/>
      <point x="233" y="7"/>
      <point x="306" y="34"/>
      <point x="336" y="56.5" type="qcurve" smooth="yes" name="inserted"/>
      <point x="366" y="79"/>
      <point x="407" y="143"/>
    </contour>
    <contour>
      <point x="105" y="530" type="qcurve" smooth="yes"/>
      <point x="100" y="494"/>
      <point x="118" y="446"/>
      <point x="137" y="429.5" type="qcurve" smooth="yes" name="inserted"/>
      <point x="156" y="413"/>
      <point x="207" y="392"/>
      <point x="236" y="383" type="qcurve"/>
      <point x="280" y="690" type="line"/>
      <point x="242" y="689"/>
      <point x="181" y="662"/>
      <point x="158.5" y="639.5" type="qcurve" smooth="yes" name="inserted"/>
      <point x="136" y="617"/>
      <point x="109" y="560"/>
    </contour>
  </outline>
</glyph>
<glyph name="percent" format="2">
  <advance width="726"/>
  <unicode hex="0025"/>
  <outline>
    <contour>
      <point x="406" y="112" type="qcurve" smooth="yes"/>
      <point x="403" y="89"/>
      <point x="418" y="49"/>
      <point x="434" y="37" type="qcurve" smooth="yes"/>
      <point x="445" y="28"/>
      <point x="473" y="18"/>
      <point x="489" y="18" type="qcurve" smooth="yes"/>
      <point x="509" y="18"/>
      <point x="546" y="33"/>
      <point x="561" y="46" type="qcurve" smooth="yes" name="inserted"/>
      <point x="576" y="58"/>
      <point x="595" y="92"/>
      <point x="598" y="112" type="qcurve" smooth="yes"/>
      <point x="601" y="132"/>
      <point x="590" y="167"/>
      <point x="579" y="179" type="qcurve" smooth="yes"/>
      <point x="568" y="192"/>
      <point x="535" y="207"/>
      <point x="515" y="207" type="qcurve" smooth="yes"/>
      <point x="495" y="207"/>
      <point x="458" y="192"/>
      <point x="443" y="179" type="qcurve" smooth="yes" name="inserted"/>
      <point x="428" y="166"/>
      <point x="409" y="131"/>
    </contour>
    <contour>
      <point x="487" y="4" type="qcurve" smooth="yes"/>
      <point x="464" y="4"/>
      <point x="427" y="21"/>
      <point x="414" y="35.5" type="qcurve" smooth="yes" name="inserted"/>
      <point x="401" y="50"/>
      <point x="389" y="90"/>
      <point x="392" y="113" type="qcurve" smooth="yes"/>
      <point x="395" y="135"/>
      <point x="418" y="175"/>
      <point x="435" y="189.5" type="qcurve" smooth="yes" name="inserted"/>
      <point x="452" y="204"/>
      <point x="494" y="221"/>
      <point x="517" y="221" type="qcurve" smooth="yes"/>
      <point x="539" y="221"/>
      <point x="577" y="204"/>
      <point x="590" y="189.5" type="qcurve" smooth="yes" name="inserted"/>
      <point x="603" y="175"/>
      <point x="615" y="135"/>
      <point x="612" y="113" type="qcurve" smooth="yes"/>
      <point x="609" y="90"/>
      <point x="586" y="50"/>
      <point x="568.5" y="35.5" type="qcurve" smooth="yes" name="inserted"/>
      <point x="551" y="21"/>
      <point x="509" y="4"/>
    </contour>
    <contour>
      <point x="141" y="388" type="qcurve" smooth="yes"/>
      <point x="138" y="367"/>
      <point x="150" y="331"/>
      <point x="163" y="318" type="qcurve" smooth="yes"/>
      <point x="174" y="307"/>
      <point x="205" y="294"/>
      <point x="224" y="294" type="qcurve" smooth="yes"/>
      <point x="244" y="294"/>
      <point x="281" y="309"/>
      <point x="296" y="322" type="qcurve" smooth="yes" name="inserted"/>
      <point x="311" y="334"/>
      <point x="330" y="368"/>
      <point x="333" y="388" type="qcurve" smooth="yes"/>
      <point x="336" y="408"/>
      <point x="324" y="444"/>
      <point x="312" y="457" type="qcurve" smooth="yes"/>
      <point x="301" y="469"/>
      <point x="269" y="483"/>
      <point x="250" y="483" type="qcurve" smooth="yes"/>
      <point x="230" y="483"/>
      <point x="193" y="468"/>
      <point x="178" y="455" type="qcurve" smooth="yes" name="inserted"/>
      <point x="163" y="442"/>
      <point x="144" y="407"/>
    </contour>
    <contour>
      <point x="222" y="280" type="qcurve" smooth="yes"/>
      <point x="199" y="280"/>
      <point x="162" y="297"/>
      <point x="149" y="311.5" type="qcurve" smooth="yes" name="inserted"/>
      <point x="136" y="326"/>
      <point x="124" y="366"/>
      <point x="127" y="389" type="qcurve" smooth="yes"/>
      <point x="130" y="411"/>
      <point x="153" y="451"/>
      <point x="170" y="465.5" type="qcurve" smooth="yes" name="inserted"/>
      <point x="187" y="480"/>
      <point x="229" y="497"/>
      <point x="252" y="497" type="qcurve" smooth="yes"/>
      <point x="274" y="497"/>
      <point x="312" y="480"/>
      <point x="325" y="465.5" type="qcurve" smooth="yes" name="inserted"/>
      <point x="338" y="451"/>
      <point x="350" y="411"/>
      <point x="347" y="389" type="qcurve" smooth="yes"/>
      <point x="344" y="366"/>
      <point x="320" y="326"/>
      <point x="303" y="311.5" type="qcurve" smooth="yes" name="inserted"/>
      <point x="286" y="297"/>
      <point x="244" y="280"/>
    </contour>
    <contour>
      <point x="172" y="0" type="line"/>
      <point x="265" y="126"/>
      <point x="448" y="374"/>
      <point x="541" y="500" type="qcurve"/>
      <point x="557" y="500" type="line"/>
      <point x="464" y="374"/>
      <point x="281" y="126"/>
      <point x="188" y="0" type="qcurve"/>
    </contour>
  </outline>
</glyph>
<glyph name="ampersand" format="2">
  <advance width="700"/>
  <unicode hex="0026"/>
  <outline>
    <contour>
      <point x="480" y="375" type="line"/>
      <point x="600" y="375" type="line"/>
      <point x="598" y="361" type="line"/>
      <point x="492" y="361" type="line"/>
      <point x="480" y="274" type="line" smooth="yes"/>
      <point x="477" y="249"/>
      <point x="471" y="200"/>
      <point x="465.5" y="176" type="qcurve" smooth="yes" name="inserted"/>
      <point x="460" y="152"/>
      <point x="440" y="106"/>
      <point x="424" y="84" type="qcurve"/>
      <point x="470" y="-11" type="line"/>
      <point x="458" y="-19" type="line"/>
      <point x="414" y="72" type="line"/>
      <point x="382" y="36"/>
      <point x="295" y="-7"/>
      <point x="246" y="-7" type="qcurve" smooth="yes"/>
      <point x="209" y="-7"/>
      <point x="147" y="18"/>
      <point x="124.5" y="40" type="qcurve" smooth="yes" name="inserted"/>
      <point x="102" y="62"/>
      <point x="77" y="123"/>
      <point x="77" y="158" type="qcurve" smooth="yes"/>
      <point x="77" y="199"/>
      <point x="107" y="274"/>
      <point x="133.5" y="303" type="qcurve" smooth="yes" name="inserted"/>
      <point x="160" y="332"/>
      <point x="230" y="372"/>
      <point x="269" y="379" type="qcurve"/>
      <point x="213" y="496" type="line" smooth="yes"/>
      <point x="204" y="514"/>
      <point x="196" y="552"/>
      <point x="196" y="572" type="qcurve" smooth="yes"/>
      <point x="196" y="600"/>
      <point x="220" y="662"/>
      <point x="243" y="688" type="qcurve" smooth="yes" name="inserted"/>
      <point x="266" y="714"/>
      <point x="333" y="748"/>
      <point x="377" y="748" type="qcurve" smooth="yes"/>
      <point x="414" y="748"/>
      <point x="477" y="722"/>
      <point x="500" y="706" type="qcurve"/>
      <point x="492" y="693" type="line"/>
      <point x="465" y="710"/>
      <point x="405" y="736"/>
      <point x="373" y="736" type="qcurve" smooth="yes"/>
      <point x="334" y="736"/>
      <point x="272" y="703"/>
      <point x="251" y="678.5" type="qcurve" smooth="yes" name="inserted"/>
      <point x="230" y="654"/>
      <point x="208" y="597"/>
      <point x="208" y="574" type="qcurve" smooth="yes"/>
      <point x="208" y="556" name="inserted"/>
      <point x="216.5" y="521"/>
      <point x="225" y="504" type="qcurve" smooth="yes"/>
      <point x="417" y="98" type="line"/>
      <point x="431.5" y="118" name="inserted"/>
      <point x="450" y="162.5"/>
      <point x="454" y="187" type="qcurve" smooth="yes"/>
    </contour>
    <contour>
      <point x="125.66347" y="278.75197"/>
      <point x="91" y="202.8981"/>
      <point x="91" y="163" type="qcurve" smooth="yes"/>
      <point x="91" y="130"/>
      <point x="114" y="73"/>
      <point x="135" y="52" type="qcurve" smooth="yes" name="inserted"/>
      <point x="156" y="31"/>
      <point x="213" y="7"/>
      <point x="248" y="7" type="qcurve" smooth="yes"/>
      <point x="296" y="7"/>
      <point x="379" y="50"/>
      <point x="408" y="85" type="qcurve"/>
      <point x="275" y="366" type="line"/>
      <point x="240" y="362"/>
      <point x="179" y="331"/>
      <point x="154.5" y="307" type="qcurve" smooth="yes" name="inserted"/>
    </contour>
  </outline>
</glyph>
<glyph name="quotesingle" format="1">
  <advance width="147"/>
  <unicode hex="0027"/>
  <outline>
    <contour>
      <point x="49" y="472" type="line"/>
      <point x="84" y="720" type="line"/>
      <point x="102" y="720" type="line"/>
      <point x="92" y="657"/>
      <point x="73" y="535"/>
      <point x="63" y="472" type="qcurve"/>
    </contour>
  </outline>
</glyph>
<glyph name="parenleft" format="2">
  <advance width="394"/>
  <unicode hex="0028"/>
  <outline>
    <contour>
      <point x="147" y="292" type="qcurve" smooth="yes"/>
      <point x="157" y="367"/>
      <point x="204" y="503"/>
      <point x="235.5" y="561.0" type="qcurve" smooth="yes" name="inserted"/>
      <point x="267" y="619"/>
      <point x="339" y="714"/>
      <point x="375" y="747" type="qcurve"/>
      <point x="375" y="724" type="line"/>
      <point x="342" y="691"/>
      <point x="274" y="601"/>
      <point x="244.5" y="546.0" type="qcurve" smooth="yes" name="inserted"/>
      <point x="215" y="491"/>
      <point x="171" y="363"/>
      <point x="161" y="292" type="qcurve" smooth="yes"/>
      <point x="151" y="221"/>
      <point x="159" y="93"/>
      <point x="173.0" y="38.0" type="qcurve" smooth="yes" name="inserted"/>
      <point x="187" y="-17"/>
      <point x="230" y="-107"/>
      <point x="254" y="-140" type="qcurve"/>
      <point x="248" y="-163" type="line"/>
      <point x="221" y="-130"/>
      <point x="175" y="-35"/>
      <point x="160.0" y="23.0" type="qcurve" smooth="yes" name="inserted"/>
      <point x="145" y="81"/>
      <point x="136" y="217"/>
    </contour>
  </outline>
</glyph>
<glyph name="parenright" format="2">
  <advance width="400"/>
  <unicode hex="0029"/>
  <outline>
    <contour>
      <point x="279" y="292" type="qcurve" smooth="yes"/>
      <point x="268" y="217"/>
      <point x="221" y="81"/>
      <point x="189.5" y="23.0" type="qcurve" smooth="yes" name="inserted"/>
      <point x="158" y="-35"/>
      <point x="86" y="-130"/>
      <point x="50" y="-163" type="qcurve"/>
      <point x="50" y="-140" type="line"/>
      <point x="83" y="-107"/>
      <point x="151" y="-17"/>
      <point x="180.5" y="38.0" type="qcurve" smooth="yes" name="inserted"/>
      <point x="210" y="93"/>
      <point x="255" y="221"/>
      <point x="265" y="292" type="qcurve" smooth="yes"/>
      <point x="275" y="363"/>
      <point x="266" y="491"/>
      <point x="252.0" y="546.0" type="qcurve" smooth="yes" name="inserted"/>
      <point x="238" y="601"/>
      <point x="195" y="691"/>
      <point x="171" y="724" type="qcurve"/>
      <point x="177" y="747" type="line"/>
      <point x="204" y="714"/>
      <point x="250" y="619"/>
      <point x="265.0" y="561.0" type="qcurve" smooth="yes" name="inserted"/>
      <point x="280" y="503"/>
      <point x="289" y="367"/>
    </contour>
  </outline>
</glyph>
<glyph name="asterisk" format="1">
  <advance width="335"/>
  <unicode hex="002A"/>
  <outline>
    <contour>
      <point x="181" y="575" type="qcurve"/>
      <point x="207" y="559"/>
      <point x="258" y="527"/>
      <point x="284" y="511" type="qcurve"/>
      <point x="282" y="507"/>
      <point x="276" y="500"/>
      <point x="273" y="496" type="qcurve"/>
      <point x="171" y="562" type="line"/>
      <point x="166" y="530"/>
      <point x="156" y="466"/>
      <point x="151" y="434" type="qcurve"/>
      <point x="137" y="434" type="line"/>
      <point x="155" y="561" type="line"/>
      <point x="125" y="545"/>
      <point x="66" y="514"/>
      <point x="36" y="498" type="qcurve"/>
      <point x="30" y="513" type="line"/>
      <point x="59" y="529"/>
      <point x="119" y="560"/>
      <point x="149" y="576" type="qcurve"/>
      <point x="123" y="593"/>
      <point x="74" y="625"/>
      <point x="48" y="642" type="qcurve"/>
      <point x="50" y="645"/>
      <point x="54" y="651"/>
      <point x="56" y="654" type="qcurve"/>
      <point x="82" y="637"/>
      <point x="133" y="606"/>
      <point x="159" y="589" type="qcurve"/>
      <point x="178" y="720" type="line"/>
      <point x="196" y="720" type="line"/>
      <point x="190" y="687"/>
      <point x="180" y="622"/>
      <point x="175" y="589" type="qcurve"/>
      <point x="206" y="605"/>
      <point x="267" y="637"/>
      <point x="298" y="653" type="qcurve"/>
      <point x="300.0" y="649.0" name="inserted"/>
      <point x="302.5" y="643.0"/>
      <point x="303" y="641" type="qcurve"/>
      <point x="272" y="624"/>
      <point x="212" y="592"/>
    </contour>
  </outline>
</glyph>
<glyph name="hyphen" format="2">
  <advance width="300"/>
  <unicode hex="002D"/>
  <unicode hex="00AD"/>
  <outline>
    <contour>
      <point x="52" y="184" type="line"/>
      <point x="53" y="198" type="line"/>
      <point x="237" y="198" type="line"/>
      <point x="236" y="184" type="line"/>
    </contour>
  </outline>
</glyph>
<glyph name="period" format="1">
  <advance width="163"/>
  <unicode hex="002E"/>
  <outline>
    <contour>
      <point x="66" y="20" type="qcurve"/>
      <point x="67" y="28"/>
      <point x="80" y="40"/>
      <point x="88" y="40" type="qcurve" smooth="yes"/>
      <point x="96" y="40"/>
      <point x="107" y="28"/>
      <point x="106" y="20" type="qcurve"/>
      <point x="104" y="12"/>
      <point x="91" y="0"/>
      <point x="83" y="0" type="qcurve" smooth="yes"/>
      <point x="75" y="0"/>
      <point x="64" y="12"/>
    </contour>
  </outline>
</glyph>
<glyph name="zero" format="1">
  <advance width="616"/>
  <unicode hex="0030"/>
  <outline>
    <contour>
      <point x="36" y="327" type="qcurve" smooth="yes"/>
      <point x="43" y="375"/>
      <point x="88" y="490"/>
      <point x="127.0" y="540.5" type="qcurve" smooth="yes" name="inserted"/>
      <point x="166" y="591"/>
      <point x="279" y="658"/>
      <point x="354" y="658" type="qcurve" smooth="yes"/>
      <point x="428" y="658"/>
      <point x="520" y="589"/>
      <point x="544.0" y="538.5" type="qcurve" smooth="yes" name="inserted"/>
      <point x="568" y="488"/>
      <point x="579" y="372"/>
      <point x="572" y="324" type="qcurve" smooth="yes"/>
      <point x="562" y="255"/>
      <point x="501" y="134"/>
      <point x="458.0" y="89.0" type="qcurve" smooth="yes" name="inserted"/>
      <point x="415" y="44"/>
      <point x="309" y="-7"/>
      <point x="254" y="-7" type="qcurve" smooth="yes"/>
      <point x="199" y="-7"/>
      <point x="110" y="46"/>
      <point x="80.0" y="91.0" type="qcurve" smooth="yes" name="inserted"/>
      <point x="50" y="136"/>
      <point x="26" y="257"/>
    </contour>
    <contour>
      <point x="51" y="328" type="qcurve" smooth="yes"/>
      <point x="40" y="255"/>
      <point x="66" y="137"/>
      <point x="95.5" y="95.0" type="qcurve" smooth="yes" name="inserted"/>
      <point x="125" y="53"/>
      <point x="210" y="7"/>
      <point x="258" y="7" type="qcurve" smooth="yes"/>
      <point x="306" y="7"/>
      <point x="404" y="51"/>
      <point x="445.5" y="92.0" type="qcurve" smooth="yes" name="inserted"/>
      <point x="487" y="133"/>
      <point x="547" y="251"/>
      <point x="558" y="323" type="qcurve" smooth="yes"/>
      <point x="569" y="396"/>
      <point x="547" y="515"/>
      <point x="519.0" y="556.5" type="qcurve" smooth="yes" name="inserted"/>
      <point x="491" y="598"/>
      <point x="405" y="644"/>
      <point x="351" y="644" type="qcurve" smooth="yes"/>
      <point x="297" y="644"/>
      <point x="198" y="601"/>
      <point x="158.0" y="559.5" type="qcurve" smooth="yes" name="inserted"/>
      <point x="118" y="518"/>
      <point x="61" y="401"/>
    </contour>
  </outline>
</glyph>
<glyph name="one" format="2">
  <advance width="249"/>
  <unicode hex="0031"/>
  <outline>
    <contour>
      <point x="23" y="14" type="line"/>
      <point x="103" y="14" type="line"/>
      <point x="190" y="636" type="line"/>
      <point x="77" y="636" type="line"/>
      <point x="79" y="650" type="line"/>
      <point x="206" y="650" type="line"/>
      <point x="117" y="14" type="line"/>
      <point x="197" y="14" type="line"/>
      <point x="195" y="0" type="line"/>
      <point x="21" y="0" type="line"/>
    </contour>
  </outline>
</glyph>
<glyph name="two" format="2">
  <advance width="495"/>
  <unicode hex="0032"/>
  <outline>
    <contour>
      <point x="44" y="14" type="qcurve"/>
      <point x="390" y="14" type="line"/>
      <point x="406" y="127" type="line"/>
      <point x="420" y="127" type="line"/>
      <point x="402" y="0" type="line"/>
      <point x="6" y="0" type="line"/>
      <point x="79" y="62"/>
      <point x="217" y="183"/>
      <point x="272.0" y="240.5" type="qcurve" smooth="yes" name="inserted"/>
      <point x="327" y="298"/>
      <point x="399" y="405"/>
      <point x="406" y="452" type="qcurve" smooth="yes"/>
      <point x="414" y="508"/>
      <point x="393" y="582"/>
      <point x="372.0" y="604.0" type="qcurve" smooth="yes" name="inserted"/>
      <point x="351" y="626"/>
      <point x="297" y="644"/>
      <point x="272" y="644" type="qcurve" smooth="yes"/>
      <point x="222" y="644"/>
      <point x="154" y="609"/>
      <point x="132.0" y="582.5" type="qcurve" smooth="yes" name="inserted"/>
      <point x="110" y="556"/>
      <point x="87" y="495"/>
      <point x="83" y="469" type="qcurve" smooth="yes"/>
      <point x="78.0" y="434.0" name="inserted"/>
      <point x="90.0" y="377.0"/>
      <point x="107" y="355" type="qcurve"/>
      <point x="97" y="347" type="line"/>
      <point x="80" y="371"/>
      <point x="64" y="428"/>
      <point x="69" y="469" type="qcurve" smooth="yes"/>
      <point x="75" y="509"/>
      <point x="108" y="578"/>
      <point x="134.0" y="603.5" type="qcurve" smooth="yes" name="inserted"/>
      <point x="160" y="629"/>
      <point x="231" y="658"/>
      <point x="274" y="658" type="qcurve" smooth="yes"/>
      <point x="313" y="658"/>
      <point x="373" y="629"/>
      <point x="392.5" y="603.0" type="qcurve" smooth="yes" name="inserted"/>
      <point x="412" y="577"/>
      <point x="427" y="506"/>
      <point x="421" y="464" type="qcurve" smooth="yes"/>
      <point x="413" y="406"/>
      <point x="338" y="291"/>
      <point x="284.0" y="235.0" type="qcurve" smooth="yes" name="inserted"/>
      <point x="230" y="179"/>
      <point x="104" y="68"/>
    </contour>
  </outline>
</glyph>
<glyph name="six" format="2">
  <advance width="520"/>
  <unicode hex="0036"/>
  <outline>
    <contour>
      <point x="46" y="193" type="qcurve" smooth="yes"/>
      <point x="40" y="154"/>
      <point x="60" y="86"/>
      <point x="82.5" y="60.5" type="qcurve" smooth="yes" name="inserted"/>
      <point x="105" y="35"/>
      <point x="170" y="6"/>
      <point x="209" y="6" type="qcurve" smooth="yes"/>
      <point x="248" y="6"/>
      <point x="322" y="35"/>
      <point x="351.5" y="60.5" type="qcurve" smooth="yes" name="inserted"/>
      <point x="381" y="86"/>
      <point x="421" y="154"/>
      <point x="427" y="193" type="qcurve" smooth="yes"/>
      <point x="432" y="232"/>
      <point x="412" y="300"/>
      <point x="389.5" y="325.5" type="qcurve" smooth="yes" name="inserted"/>
      <point x="367" y="351"/>
      <point x="301" y="381"/>
      <point x="262" y="381" type="qcurve" smooth="yes"/>
      <point x="223" y="381"/>
      <point x="149" y="351"/>
      <point x="120.0" y="325.5" type="qcurve" smooth="yes" name="inserted"/>
      <point x="91" y="300"/>
      <point x="51" y="232"/>
    </contour>
    <contour>
      <point x="33" y="193" type="qcurve" smooth="yes"/>
      <point x="43" y="266"/>
      <point x="122" y="391"/>
      <point x="178.0" y="445.0" type="qcurve" smooth="yes" name="inserted"/>
      <point x="234" y="499"/>
      <point x="365" y="592"/>
      <point x="427" y="633" type="qcurve"/>
      <point x="428.5" y="629.5" name="inserted"/>
      <point x="432.5" y="623.0"/>
      <point x="435" y="620" type="qcurve"/>
      <point x="362" y="576"/>
      <point x="248" y="490"/>
      <point x="205.5" y="450.5" type="qcurve" smooth="yes" name="inserted"/>
      <point x="163" y="411"/>
      <point x="106" y="342"/>
      <point x="91" y="314" type="qcurve"/>
      <point x="124" y="351"/>
      <point x="214" y="395"/>
      <point x="265" y="395" type="qcurve" smooth="yes"/>
      <point x="307" y="395"/>
      <point x="377" y="363"/>
      <point x="401.0" y="335.5" type="qcurve" smooth="yes" name="inserted"/>
      <point x="425" y="308"/>
      <point x="447" y="235"/>
      <point x="441" y="193" type="qcurve" smooth="yes"/>
      <point x="435" y="151"/>
      <point x="392" y="78"/>
      <point x="360.5" y="51.0" type="qcurve" smooth="yes" name="inserted"/>
      <point x="329" y="24"/>
      <point x="250" y="-8"/>
      <point x="208" y="-8" type="qcurve" smooth="yes"/>
      <point x="166" y="-8"/>
      <point x="96" y="24"/>
      <point x="72.0" y="51.0" type="qcurve" smooth="yes" name="inserted"/>
      <point x="48" y="78"/>
      <point x="27" y="151"/>
    </contour>
  </outline>
</glyph>
<glyph name="eight" format="2">
  <advance width="510"/>
  <unicode hex="0038"/>
  <outline>
    <contour>
      <point x="148" y="511" type="qcurve" smooth="yes"/>
      <point x="144" y="486"/>
      <point x="158" y="444"/>
      <point x="174.0" y="428.5" type="qcurve" smooth="yes" name="inserted"/>
      <point x="190" y="413"/>
      <point x="235" y="396"/>
      <point x="263" y="396" type="qcurve" smooth="yes"/>
      <point x="290" y="396"/>
      <point x="340" y="413"/>
      <point x="359.5" y="428.5" type="qcurve" smooth="yes" name="inserted"/>
      <point x="379" y="444"/>
      <point x="404" y="486"/>
      <point x="408" y="511" type="qcurve" smooth="yes"/>
      <point x="412" y="538"/>
      <point x="399" y="586"/>
      <point x="384.0" y="604.0" type="qcurve" smooth="yes" name="inserted"/>
      <point x="369" y="622"/>
      <point x="325" y="644"/>
      <point x="298" y="644" type="qcurve" smooth="yes"/>
      <point x="270" y="644"/>
      <point x="219" y="622"/>
      <point x="199.0" y="604.0" type="qcurve" smooth="yes" name="inserted"/>
      <point x="179" y="586"/>
      <point x="152" y="538"/>
    </contour>
    <contour>
      <point x="48" y="195" type="qcurve" smooth="yes"/>
      <point x="43" y="157"/>
      <point x="62" y="88"/>
      <point x="83.5" y="62.0" type="qcurve" smooth="yes" name="inserted"/>
      <point x="105" y="36"/>
      <point x="169" y="5"/>
      <point x="208" y="5" type="qcurve" smooth="yes"/>
      <point x="248" y="5"/>
      <point x="322" y="36"/>
      <point x="352.0" y="62.0" type="qcurve" smooth="yes" name="inserted"/>
      <point x="382" y="88"/>
      <point x="422" y="157"/>
      <point x="427" y="195" type="qcurve" smooth="yes"/>
      <point x="433" y="234"/>
      <point x="412" y="301"/>
      <point x="389.0" y="326.5" type="qcurve" smooth="yes" name="inserted"/>
      <point x="366" y="352"/>
      <point x="300" y="381"/>
      <point x="260" y="381" type="qcurve" smooth="yes"/>
      <point x="221" y="381"/>
      <point x="149" y="352"/>
      <point x="120.5" y="326.5" type="qcurve" smooth="yes" name="inserted"/>
      <point x="92" y="301"/>
      <point x="54" y="234"/>
    </contour>
    <contour>
      <point x="34" y="195" type="qcurve" smooth="yes"/>
      <point x="39" y="230"/>
      <point x="70" y="293"/>
      <point x="94.0" y="318.5" type="qcurve" smooth="yes" name="inserted"/>
      <point x="118" y="344"/>
      <point x="178" y="381"/>
      <point x="212" y="389" type="qcurve"/>
      <point x="172" y="403"/>
      <point x="128" y="472"/>
      <point x="135" y="518" type="qcurve" smooth="yes"/>
      <point x="139" y="547"/>
      <point x="168" y="598"/>
      <point x="190.5" y="617.0" type="qcurve" smooth="yes" name="inserted"/>
      <point x="213" y="636"/>
      <point x="268" y="658"/>
      <point x="298" y="658" type="qcurve" smooth="yes"/>
      <point x="328" y="658"/>
      <point x="377" y="635"/>
      <point x="394.0" y="615.5" type="qcurve" smooth="yes" name="inserted"/>
      <point x="411" y="596"/>
      <point x="426" y="544"/>
      <point x="422" y="514" type="qcurve" smooth="yes"/>
      <point x="416" y="470"/>
      <point x="355" y="403"/>
      <point x="312" y="389" type="qcurve"/>
      <point x="345" y="381"/>
      <point x="397" y="345"/>
      <point x="414.5" y="319.5" type="qcurve" smooth="yes" name="inserted"/>
      <point x="432" y="294"/>
      <point x="446" y="231"/>
      <point x="441" y="195" type="qcurve" smooth="yes"/>
      <point x="435" y="153"/>
      <point x="392" y="79"/>
      <point x="360.5" y="51.5" type="qcurve" smooth="yes" name="inserted"/>
      <point x="329" y="24"/>
      <point x="250" y="-8"/>
      <point x="208" y="-8" type="qcurve" smooth="yes"/>
      <point x="166" y="-8"/>
      <point x="97" y="24"/>
      <point x="73.5" y="51.5" type="qcurve" smooth="yes" name="inserted"/>
      <point x="50" y="79"/>
      <point x="28" y="153"/>
    </contour>
  </outline>
</glyph>
<glyph name="colon" format="1">
  <advance width="175"/>
  <unicode hex="003A"/>
  <outline>
    <contour>
      <point x="82" y="270" type="qcurve"/>
      <point x="84" y="278"/>
      <point x="97" y="290"/>
      <point x="105" y="290" type="qcurve" smooth="yes"/>
      <point x="113" y="290"/>
      <point x="124" y="278"/>
      <point x="122" y="270" type="qcurve"/>
      <point x="121" y="262"/>
      <point x="107" y="250"/>
      <point x="99" y="250" type="qcurve" smooth="yes"/>
      <point x="91" y="250"/>
      <point x="81" y="262"/>
    </contour>
    <contour>
      <point x="47" y="20" type="qcurve"/>
      <point x="48" y="28"/>
      <point x="62" y="40"/>
      <point x="70" y="40" type="qcurve" smooth="yes"/>
      <point x="78" y="40"/>
      <point x="88" y="28"/>
      <point x="87" y="20" type="qcurve"/>
      <point x="85" y="12"/>
      <point x="72" y="0"/>
      <point x="64" y="0" type="qcurve" smooth="yes"/>
      <point x="56" y="0"/>
      <point x="45" y="12"/>
    </contour>
  </outline>
</glyph>
<glyph name="equal" format="1">
  <advance width="708"/>
  <unicode hex="003D"/>
  <outline>
    <contour>
      <point x="593" y="164" type="line"/>
      <point x="591" y="150" type="line"/>
      <point x="85" y="150" type="line"/>
      <point x="87" y="164" type="line"/>
    </contour>
    <contour>
      <point x="620" y="358" type="line"/>
      <point x="618" y="344" type="line"/>
      <point x="112" y="344" type="line"/>
      <point x="114" y="358" type="line"/>
    </contour>
  </outline>
</glyph>
<glyph name="greater" format="2">
  <advance width="650"/>
  <unicode hex="003E"/>
  <outline>
    <contour>
      <point x="79" y="-15" type="qcurve"/>
      <point x="81" y="1" type="line"/>
      <point x="193" y="61"/>
      <point x="415" y="178"/>
      <point x="527" y="238" type="qcurve"/>
      <point x="432" y="298"/>
      <point x="243" y="415"/>
      <point x="148" y="475" type="qcurve"/>
      <point x="150" y="491" type="line"/>
      <point x="251" y="428"/>
      <point x="451" y="301"/>
      <point x="553" y="238" type="qcurve"/>
      <point x="434" y="175"/>
      <point x="198" y="48"/>
    </contour>
  </outline>
</glyph>
<glyph name="question" format="1">
  <advance width="452"/>
  <unicode hex="003F"/>
  <outline>
    <contour>
      <point x="74" y="596" type="qcurve"/>
      <point x="71" y="597"/>
      <point x="64" y="598"/>
      <point x="61" y="599" type="qcurve"/>
      <point x="75" y="628"/>
      <point x="118" y="677"/>
      <point x="144.5" y="694.5" type="qcurve" smooth="yes" name="inserted"/>
      <point x="171" y="712"/>
      <point x="233" y="732"/>
      <point x="265" y="732" type="qcurve" smooth="yes"/>
      <point x="306" y="732"/>
      <point x="374" y="701"/>
      <point x="396.5" y="674.5" type="qcurve" smooth="yes" name="inserted"/>
      <point x="419" y="648"/>
      <point x="440" y="577"/>
      <point x="434" y="537" type="qcurve" smooth="yes"/>
      <point x="426" y="483"/>
      <point x="362" y="402"/>
      <point x="312" y="370" type="qcurve" smooth="yes"/>
      <point x="291" y="356"/>
      <point x="255" y="337"/>
      <point x="240.5" y="325.0" type="qcurve" smooth="yes" name="inserted"/>
      <point x="226" y="313"/>
      <point x="207" y="275"/>
      <point x="202" y="242" type="qcurve" smooth="yes"/>
      <point x="191" y="164" type="line"/>
      <point x="177" y="164" type="line"/>
      <point x="191" y="261" type="line" smooth="yes"/>
      <point x="195" y="292"/>
      <point x="224" y="329"/>
      <point x="244.5" y="343.5" type="qcurve" smooth="yes" name="inserted"/>
      <point x="265" y="358"/>
      <point x="316" y="387"/>
      <point x="343" y="408" type="qcurve" smooth="yes"/>
      <point x="378" y="435"/>
      <point x="415" y="500"/>
      <point x="420" y="537" type="qcurve" smooth="yes"/>
      <point x="425" y="576"/>
      <point x="406" y="642"/>
      <point x="385.0" y="666.5" type="qcurve" smooth="yes" name="inserted"/>
      <point x="364" y="691"/>
      <point x="301" y="718"/>
      <point x="263" y="718" type="qcurve" smooth="yes"/>
      <point x="233" y="718"/>
      <point x="176" y="700"/>
      <point x="151.0" y="684.0" type="qcurve" smooth="yes" name="inserted"/>
      <point x="126" y="668"/>
      <point x="86" y="623"/>
    </contour>
    <contour>
      <point x="165" y="25" type="qcurve" smooth="yes"/>
      <point x="158" y="25"/>
      <point x="147" y="37"/>
      <point x="149" y="45" type="qcurve"/>
      <point x="150" y="54"/>
      <point x="163" y="65"/>
      <point x="170" y="65" type="qcurve" smooth="yes"/>
      <point x="178" y="65"/>
      <point x="189" y="54"/>
      <point x="188" y="45" type="qcurve"/>
      <point x="186" y="37"/>
      <point x="173" y="25"/>
    </contour>
  </outline>
</glyph>
<glyph name="at" format="2">
  <advance width="990"/>
  <unicode hex="0040"/>
  <outline>
    <contour>
      <point x="309" y="188" type="qcurve" smooth="yes"/>
      <point x="304" y="150"/>
      <point x="323" y="85"/>
      <point x="344.0" y="60.5" type="qcurve" smooth="yes" name="inserted"/>
      <point x="365" y="36"/>
      <point x="426" y="8"/>
      <point x="464" y="8" type="qcurve" smooth="yes"/>
      <point x="501" y="8"/>
      <point x="571" y="36"/>
      <point x="599.0" y="60.5" type="qcurve" smooth="yes" name="inserted"/>
      <point x="627" y="85"/>
      <point x="665" y="150"/>
      <point x="670" y="188" type="qcurve" smooth="yes"/>
      <point x="675" y="225"/>
      <point x="656" y="291"/>
      <point x="635.0" y="316.0" type="qcurve" smooth="yes" name="inserted"/>
      <point x="614" y="341"/>
      <point x="552" y="369"/>
      <point x="515" y="369" type="qcurve" smooth="yes"/>
      <point x="477" y="369"/>
      <point x="408" y="341"/>
      <point x="380.0" y="316.0" type="qcurve" smooth="yes" name="inserted"/>
      <point x="352" y="291"/>
      <point x="314" y="225"/>
    </contour>
    <contour>
      <point x="884" y="188" type="qcurve" smooth="yes"/>
      <point x="874" y="129"/>
      <point x="840" y="55"/>
      <point x="818" y="34" type="qcurve" smooth="yes" name="inserted"/>
      <point x="796" y="14"/>
      <point x="747" y="0"/>
      <point x="722" y="0" type="qcurve" smooth="yes"/>
      <point x="644" y="0" type="line"/>
      <point x="652" y="54" type="line" smooth="yes"/>
      <point x="654" y="70"/>
      <point x="659" y="101"/>
      <point x="661" y="117" type="qcurve"/>
      <point x="632" y="63"/>
      <point x="525" y="-6"/>
      <point x="462" y="-6" type="qcurve" smooth="yes"/>
      <point x="421" y="-6"/>
      <point x="355" y="24"/>
      <point x="332" y="50" type="qcurve" smooth="yes" name="inserted"/>
      <point x="310" y="77"/>
      <point x="289" y="147"/>
      <point x="295" y="188" type="qcurve" smooth="yes"/>
      <point x="301" y="228"/>
      <point x="341" y="300"/>
      <point x="371" y="326" type="qcurve" smooth="yes" name="inserted"/>
      <point x="401" y="352"/>
      <point x="476" y="383"/>
      <point x="517" y="383" type="qcurve" smooth="yes"/>
      <point x="579" y="383"/>
      <point x="666" y="314"/>
      <point x="680" y="260" type="qcurve"/>
      <point x="685" y="289"/>
      <point x="695" y="346"/>
      <point x="701" y="375" type="qcurve"/>
      <point x="711" y="375" type="line"/>
      <point x="660" y="13" type="line"/>
      <point x="731" y="13" type="line" smooth="yes"/>
      <point x="755" y="13"/>
      <point x="796" y="29"/>
      <point x="813" y="46" type="qcurve" smooth="yes"/>
      <point x="833" y="67"/>
      <point x="862" y="138"/>
      <point x="870" y="188" type="qcurve" smooth="yes"/>
      <point x="881" y="267"/>
      <point x="841" y="407"/>
      <point x="796" y="459" type="qcurve" smooth="yes" name="inserted"/>
      <point x="752" y="511"/>
      <point x="621" y="571"/>
      <point x="542" y="571" type="qcurve" smooth="yes"/>
      <point x="463" y="571"/>
      <point x="316" y="511"/>
      <point x="257" y="459" type="qcurve" smooth="yes" name="inserted"/>
      <point x="198" y="407"/>
      <point x="118" y="267"/>
      <point x="107" y="188" type="qcurve" smooth="yes"/>
      <point x="96" y="109"/>
      <point x="137" y="-30"/>
      <point x="181" y="-82" type="qcurve" smooth="yes" name="inserted"/>
      <point x="225" y="-133"/>
      <point x="356" y="-193"/>
      <point x="435" y="-193" type="qcurve" smooth="yes"/>
      <point x="497" y="-193"/>
      <point x="613" y="-155"/>
      <point x="664" y="-123" type="qcurve"/>
      <point x="666" y="-126"/>
      <point x="669" y="-131"/>
      <point x="671" y="-134" type="qcurve"/>
      <point x="617" y="-168"/>
      <point x="499" y="-207"/>
      <point x="433" y="-207" type="qcurve" smooth="yes"/>
      <point x="351" y="-207"/>
      <point x="216" y="-145"/>
      <point x="170" y="-91" type="qcurve" smooth="yes" name="inserted"/>
      <point x="124" y="-37"/>
      <point x="82" y="107"/>
      <point x="94" y="189" type="qcurve" smooth="yes"/>
      <point x="105" y="271"/>
      <point x="187" y="415"/>
      <point x="248" y="469" type="qcurve" smooth="yes" name="inserted"/>
      <point x="310" y="523"/>
      <point x="462" y="585"/>
      <point x="544" y="585" type="qcurve" smooth="yes"/>
      <point x="626" y="585"/>
      <point x="762" y="523"/>
      <point x="808" y="469" type="qcurve" smooth="yes" name="inserted"/>
      <point x="854" y="415"/>
      <point x="896" y="270"/>
    </contour>
  </outline>
</glyph>
<glyph name="A" format="2">
  <advance width="828"/>
  <unicode hex="0041"/>
  <outline>
    <contour>
      <point x="36" y="14" type="line"/>
      <point x="110" y="14" type="line"/>
      <point x="212" y="194"/>
      <point x="415" y="551"/>
      <point x="516" y="732" type="qcurve"/>
      <point x="567" y="551"/>
      <point x="668" y="194"/>
      <point x="719" y="14" type="qcurve"/>
      <point x="794" y="14" type="line"/>
      <point x="793" y="0" type="line"/>
      <point x="619" y="0" type="line"/>
      <point x="620" y="14" type="line"/>
      <point x="704" y="14" type="line"/>
      <point x="683" y="89"/>
      <point x="641" y="240"/>
      <point x="619" y="316" type="qcurve"/>
      <point x="297" y="316" type="line"/>
      <point x="126" y="14" type="line"/>
      <point x="210" y="14" type="line"/>
      <point x="209" y="0" type="line"/>
      <point x="35" y="0" type="line"/>
    </contour>
    <contour>
      <point x="304" y="330" type="qcurve"/>
      <point x="615" y="330" type="line"/>
      <point x="517" y="675" type="line"/>
      <point x="512" y="700" type="line"/>
      <point x="506.02985" y="688.0597" name="inserted"/>
      <point x="500.1194" y="677.23881"/>
      <point x="499" y="675" type="qcurve" smooth="yes"/>
      <point x="453" y="587"/>
      <point x="353" y="417"/>
    </contour>
  </outline>
</glyph>
<glyph name="C" format="2">
  <advance width="610"/>
  <unicode hex="0043"/>
  <outline>
    <contour>
      <point x="638" y="546" type="line"/>
      <point x="653" y="649" type="line"/>
      <point x="617.5" y="671.5" name="inserted"/>
      <point x="536" y="694"/>
      <point x="490" y="694" type="qcurve" smooth="yes"/>
      <point x="419" y="694"/>
      <point x="287" y="639"/>
      <point x="233.5" y="592" type="qcurve" smooth="yes" name="inserted"/>
      <point x="180" y="545"/>
      <point x="109" y="419"/>
      <point x="99" y="348" type="qcurve" smooth="yes"/>
      <point x="89" y="277"/>
      <point x="125" y="153"/>
      <point x="164.5" y="106.5" type="qcurve" smooth="yes" name="inserted"/>
      <point x="204" y="60"/>
      <point x="320" y="6"/>
      <point x="390" y="6" type="qcurve" smooth="yes"/>
      <point x="438" y="6"/>
      <point x="531" y="31"/>
      <point x="573" y="54" type="qcurve"/>
      <point x="581" y="42" type="line"/>
      <point x="537" y="19"/>
      <point x="443" y="-8"/>
      <point x="392" y="-8" type="qcurve" smooth="yes"/>
      <point x="318" y="-8"/>
      <point x="196" y="48"/>
      <point x="154" y="96.5" type="qcurve" smooth="yes" name="inserted"/>
      <point x="112" y="145"/>
      <point x="74" y="275"/>
      <point x="85" y="349" type="qcurve" smooth="yes"/>
      <point x="95" y="423"/>
      <point x="170" y="554"/>
      <point x="225" y="602.5" type="qcurve" smooth="yes" name="inserted"/>
      <point x="280" y="651"/>
      <point x="418" y="708"/>
      <point x="492" y="708" type="qcurve" smooth="yes"/>
      <point x="543" y="708"/>
      <point x="631" y="682"/>
      <point x="668" y="658" type="qcurve"/>
      <point x="652" y="546" type="line"/>
    </contour>
  </outline>
</glyph>
<glyph name="D" format="1">
  <advance width="632"/>
  <unicode hex="0044"/>
  <outline>
    <contour>
      <point x="36" y="14" type="line"/>
      <point x="109" y="14" type="line"/>
      <point x="204" y="686" type="line"/>
      <point x="131" y="686" type="line"/>
      <point x="133" y="700" type="line"/>
      <point x="343" y="700" type="line" smooth="yes"/>
      <point x="415" y="700"/>
      <point x="536" y="651"/>
      <point x="577.5" y="605.5" type="qcurve" smooth="yes" name="inserted"/>
      <point x="619" y="560"/>
      <point x="657" y="430"/>
      <point x="646" y="350" type="qcurve" smooth="yes"/>
      <point x="637" y="291"/>
      <point x="579" y="167"/>
      <point x="526.0" y="116.0" type="qcurve" smooth="yes" name="inserted"/>
      <point x="473" y="65"/>
      <point x="317" y="0"/>
      <point x="211" y="0" type="qcurve" smooth="yes"/>
      <point x="35" y="0" type="line"/>
    </contour>
    <contour>
      <point x="218" y="686" type="line"/>
      <point x="123" y="14" type="line"/>
      <point x="221" y="14" type="line" smooth="yes"/>
      <point x="320" y="14"/>
      <point x="468" y="77"/>
      <point x="518.0" y="125.5" type="qcurve" smooth="yes" name="inserted"/>
      <point x="568" y="174"/>
      <point x="625" y="293"/>
      <point x="633" y="350" type="qcurve" smooth="yes"/>
      <point x="644" y="427"/>
      <point x="608" y="552"/>
      <point x="568.5" y="595.5" type="qcurve" smooth="yes" name="inserted"/>
      <point x="529" y="639"/>
      <point x="414" y="686"/>
      <point x="347" y="686" type="qcurve" smooth="yes"/>
    </contour>
  </outline>
</glyph>
<glyph name="F" format="2">
  <advance width="557"/>
  <unicode hex="0046"/>
  <outline>
    <contour>
      <point x="36" y="14" type="line"/>
      <point x="118" y="14" type="line"/>
      <point x="213" y="686" type="line"/>
      <point x="131" y="686" type="line"/>
      <point x="133" y="700" type="line"/>
      <point x="620" y="700" type="line"/>
      <point x="598" y="546" type="line"/>
      <point x="584" y="546" type="line"/>
      <point x="604" y="686" type="line"/>
      <point x="227" y="686" type="line"/>
      <point x="181" y="360" type="line"/>
      <point x="533" y="360" type="line"/>
      <point x="531" y="346" type="line"/>
      <point x="179" y="346" type="line"/>
      <point x="132" y="14" type="line"/>
      <point x="210" y="14" type="line"/>
      <point x="209" y="0" type="line"/>
      <point x="35" y="0" type="line"/>
    </contour>
  </outline>
</glyph>
<glyph name="G" format="2">
  <advance width="609"/>
  <unicode hex="0047"/>
  <outline>
    <contour>
      <point x="565" y="298" type="line"/>
      <point x="529" y="40" type="line"/>
      <point x="486" y="17"/>
      <point x="392" y="-10"/>
      <point x="341" y="-10" type="qcurve" smooth="yes"/>
      <point x="267" y="-10"/>
      <point x="145" y="46"/>
      <point x="103.0" y="94.5" type="qcurve" smooth="yes" name="inserted"/>
      <point x="61" y="143"/>
      <point x="23" y="273"/>
      <point x="33" y="347" type="qcurve" smooth="yes"/>
      <point x="43" y="421"/>
      <point x="118" y="552"/>
      <point x="173.5" y="600.5" type="qcurve" smooth="yes" name="inserted"/>
      <point x="229" y="649"/>
      <point x="367" y="706"/>
      <point x="441" y="706" type="qcurve" smooth="yes"/>
      <point x="492" y="706"/>
      <point x="579" y="680"/>
      <point x="617" y="656" type="qcurve"/>
      <point x="607" y="644" type="line"/>
      <point x="572" y="667"/>
      <point x="487" y="692"/>
      <point x="439" y="692" type="qcurve" smooth="yes"/>
      <point x="368" y="692"/>
      <point x="235" y="637"/>
      <point x="182.0" y="590.0" type="qcurve" smooth="yes" name="inserted"/>
      <point x="129" y="543"/>
      <point x="57" y="417"/>
      <point x="47" y="346" type="qcurve" smooth="yes"/>
      <point x="37" y="275"/>
      <point x="73" y="151"/>
      <point x="113.0" y="104.5" type="qcurve" smooth="yes" name="inserted"/>
      <point x="153" y="58"/>
      <point x="269" y="4"/>
      <point x="339" y="4" type="qcurve" smooth="yes"/>
      <point x="386" y="4"/>
      <point x="474" y="27"/>
      <point x="516" y="49" type="qcurve"/>
      <point x="550" y="284" type="line"/>
      <point x="378" y="284" type="line"/>
      <point x="379" y="298" type="line"/>
    </contour>
  </outline>
</glyph>
<glyph name="H" format="1">
  <advance width="716"/>
  <unicode hex="0048"/>
  <outline>
    <contour>
      <point x="605" y="700" type="line"/>
      <point x="779" y="700" type="line"/>
      <point x="777" y="686" type="line"/>
      <point x="700" y="686" type="line"/>
      <point x="605" y="14" type="line"/>
      <point x="682" y="14" type="line"/>
      <point x="681" y="0" type="line"/>
      <point x="507" y="0" type="line"/>
      <point x="508" y="14" type="line"/>
      <point x="591" y="14" type="line"/>
      <point x="638" y="346" type="line"/>
      <point x="174" y="346" type="line"/>
      <point x="127" y="14" type="line"/>
      <point x="210" y="14" type="line"/>
      <point x="209" y="0" type="line"/>
      <point x="35" y="0" type="line"/>
      <point x="36" y="14" type="line"/>
      <point x="113" y="14" type="line"/>
      <point x="208" y="686" type="line"/>
      <point x="131" y="686" type="line"/>
      <point x="133" y="700" type="line"/>
      <point x="307" y="700" type="line"/>
      <point x="305" y="686" type="line"/>
      <point x="222" y="686" type="line"/>
      <point x="176" y="360" type="line"/>
      <point x="640" y="360" type="line"/>
      <point x="686" y="686" type="line"/>
      <point x="603" y="686" type="line"/>
    </contour>
  </outline>
</glyph>
<glyph name="I" format="1">
  <advance width="244"/>
  <unicode hex="0049"/>
  <outline>
    <contour>
      <point x="36" y="14" type="line"/>
      <point x="113" y="14" type="line"/>
      <point x="208" y="686" type="line"/>
      <point x="131" y="686" type="line"/>
      <point x="133" y="700" type="line"/>
      <point x="307" y="700" type="line"/>
      <point x="305" y="686" type="line"/>
      <point x="222" y="686" type="line"/>
      <point x="127" y="14" type="line"/>
      <point x="210" y="14" type="line"/>
      <point x="209" y="0" type="line"/>
      <point x="35" y="0" type="line"/>
    </contour>
  </outline>
</glyph>
<glyph name="K" format="1">
  <advance width="686"/>
  <unicode hex="004B"/>
  <outline>
    <contour>
      <point x="478" y="14" type="line"/>
      <point x="544" y="14" type="line"/>
      <point x="480" y="114"/>
      <point x="352" y="314"/>
      <point x="287" y="414" type="qcurve"/>
      <point x="169" y="316" type="line"/>
      <point x="158" y="240"/>
      <point x="138" y="89"/>
      <point x="127" y="14" type="qcurve"/>
      <point x="210" y="14" type="line"/>
      <point x="209" y="0" type="line"/>
      <point x="35" y="0" type="line"/>
      <point x="36" y="14" type="line"/>
      <point x="113" y="14" type="line"/>
      <point x="208" y="686" type="line"/>
      <point x="131" y="686" type="line"/>
      <point x="133" y="700" type="line"/>
      <point x="307" y="700" type="line"/>
      <point x="305" y="686" type="line"/>
      <point x="222" y="686" type="line"/>
      <point x="176" y="360" type="line" smooth="yes"/>
      <point x="175" y="352"/>
      <point x="172" y="339"/>
      <point x="171" y="331" type="qcurve"/>
      <point x="191" y="351" type="line"/>
      <point x="589" y="686" type="line"/>
      <point x="525" y="686" type="line"/>
      <point x="527" y="700" type="line"/>
      <point x="701" y="700" type="line"/>
      <point x="699" y="686" type="line"/>
      <point x="611" y="686" type="line"/>
      <point x="299" y="424" type="line"/>
      <point x="366" y="321"/>
      <point x="498" y="117"/>
      <point x="564" y="14" type="qcurve"/>
      <point x="652" y="14" type="line"/>
      <point x="651" y="0" type="line"/>
      <point x="477" y="0" type="line"/>
    </contour>
  </outline>
</glyph>
<glyph name="L" format="1">
  <advance width="566"/>
  <unicode hex="004C"/>
  <outline>
    <contour>
      <point x="36" y="14" type="line"/>
      <point x="113" y="14" type="line"/>
      <point x="208" y="686" type="line"/>
      <point x="131" y="686" type="line"/>
      <point x="133" y="700" type="line"/>
      <point x="307" y="700" type="line"/>
      <point x="305" y="686" type="line"/>
      <point x="222" y="686" type="line"/>
      <point x="127" y="14" type="line"/>
      <point x="518" y="14" type="line"/>
      <point x="538" y="154" type="line"/>
      <point x="552" y="154" type="line"/>
      <point x="531" y="0" type="line"/>
      <point x="35" y="0" type="line"/>
    </contour>
  </outline>
</glyph>
<glyph name="N" format="2">
  <advance width="840"/>
  <unicode hex="004E"/>
  <outline>
    <contour>
      <point x="41" y="14" type="line"/>
      <point x="118" y="14" type="line"/>
      <point x="212" y="686" type="line"/>
      <point x="135" y="686" type="line"/>
      <point x="137" y="700" type="line"/>
      <point x="240" y="700" type="line"/>
      <point x="701" y="28" type="line"/>
      <point x="716" y="2" type="line"/>
      <point x="718" y="34" type="line"/>
      <point x="809" y="686" type="line"/>
      <point x="731" y="686" type="line"/>
      <point x="733" y="700" type="line"/>
      <point x="907" y="700" type="line"/>
      <point x="905" y="686" type="line"/>
      <point x="823" y="686" type="line"/>
      <point x="723" y="-32" type="line"/>
      <point x="240" y="670" type="line"/>
      <point x="225" y="690" type="line"/>
      <point x="223" y="664" type="line"/>
      <point x="132" y="14" type="line"/>
      <point x="215" y="14" type="line"/>
      <point x="213" y="0" type="line"/>
      <point x="39" y="0" type="line"/>
    </contour>
  </outline>
</glyph>
<glyph name="O" format="2">
  <advance width="786"/>
  <unicode hex="004F"/>
  <outline>
    <contour>
      <point x="85" y="349" type="qcurve" smooth="yes"/>
      <point x="95" y="423"/>
      <point x="170" y="554"/>
      <point x="225.0" y="602.5" type="qcurve" smooth="yes" name="inserted"/>
      <point x="280" y="651"/>
      <point x="418" y="708"/>
      <point x="492" y="708" type="qcurve" smooth="yes"/>
      <point x="566" y="708"/>
      <point x="689" y="651"/>
      <point x="731.0" y="602.5" type="qcurve" smooth="yes" name="inserted"/>
      <point x="773" y="554"/>
      <point x="811" y="423"/>
      <point x="801" y="349" type="qcurve" smooth="yes"/>
      <point x="790" y="275"/>
      <point x="716" y="145"/>
      <point x="660.5" y="96.5" type="qcurve" smooth="yes" name="inserted"/>
      <point x="605" y="48"/>
      <point x="466" y="-8"/>
      <point x="392" y="-8" type="qcurve" smooth="yes"/>
      <point x="318" y="-8"/>
      <point x="196" y="48"/>
      <point x="154.0" y="96.5" type="qcurve" smooth="yes" name="inserted"/>
      <point x="112" y="145"/>
      <point x="74" y="275"/>
    </contour>
    <contour>
      <point x="99" y="348" type="qcurve" smooth="yes"/>
      <point x="89" y="277"/>
      <point x="125" y="153"/>
      <point x="164.5" y="106.5" type="qcurve" smooth="yes" name="inserted"/>
      <point x="204" y="60"/>
      <point x="320" y="6"/>
      <point x="390" y="6" type="qcurve" smooth="yes"/>
      <point x="461" y="6"/>
      <point x="596" y="60"/>
      <point x="650.0" y="106.5" type="qcurve" smooth="yes" name="inserted"/>
      <point x="704" y="153"/>
      <point x="777" y="278"/>
      <point x="787" y="349" type="qcurve" smooth="yes"/>
      <point x="797" y="420"/>
      <point x="760" y="545"/>
      <point x="719.5" y="592.0" type="qcurve" smooth="yes" name="inserted"/>
      <point x="679" y="639"/>
      <point x="561" y="694"/>
      <point x="490" y="694" type="qcurve" smooth="yes"/>
      <point x="419" y="694"/>
      <point x="287" y="639"/>
      <point x="233.5" y="592.0" type="qcurve" smooth="yes" name="inserted"/>
      <point x="180" y="545"/>
      <point x="109" y="419"/>
    </contour>
  </outline>
</glyph>
<glyph name="P" format="1">
  <advance width="481"/>
  <unicode hex="0050"/>
  <outline>
    <contour>
      <point x="36" y="14" type="line"/>
      <point x="107" y="14" type="line"/>
      <point x="202" y="686" type="line"/>
      <point x="131" y="686" type="line"/>
      <point x="133" y="700" type="line"/>
      <point x="344" y="700" type="line" smooth="yes"/>
      <point x="373" y="700"/>
      <point x="440" y="680"/>
      <point x="467.0" y="659.0" type="qcurve" smooth="yes" name="inserted"/>
      <point x="494" y="638"/>
      <point x="526" y="570"/>
      <point x="519" y="522" type="qcurve" smooth="yes"/>
      <point x="507" y="439"/>
      <point x="382" y="341"/>
      <point x="279" y="341" type="qcurve" smooth="yes"/>
      <point x="167" y="341" type="line"/>
      <point x="121" y="14" type="line"/>
      <point x="210" y="14" type="line"/>
      <point x="209" y="0" type="line"/>
      <point x="35" y="0" type="line"/>
    </contour>
    <contour>
      <point x="169" y="355" type="line"/>
      <point x="284" y="355" type="line" smooth="yes"/>
      <point x="342" y="355"/>
      <point x="423" y="387"/>
      <point x="449.0" y="411.5" type="qcurve" smooth="yes" name="inserted"/>
      <point x="475" y="436"/>
      <point x="501" y="495"/>
      <point x="505" y="522" type="qcurve" smooth="yes"/>
      <point x="509" y="555"/>
      <point x="488" y="614"/>
      <point x="464.5" y="636.5" type="qcurve" smooth="yes" name="inserted"/>
      <point x="441" y="659"/>
      <point x="374" y="686"/>
      <point x="332" y="686" type="qcurve" smooth="yes"/>
      <point x="216" y="686" type="line"/>
    </contour>
  </outline>
</glyph>
<glyph name="Q" format="1">
  <advance width="808"/>
  <unicode hex="0051"/>
  <outline>
    <contour>
      <point x="99" y="348" type="qcurve" smooth="yes"/>
      <point x="89" y="277"/>
      <point x="125" y="153"/>
      <point x="164.5" y="106.5" type="qcurve" smooth="yes" name="inserted"/>
      <point x="204" y="60"/>
      <point x="320" y="6"/>
      <point x="390" y="6" type="qcurve" smooth="yes"/>
      <point x="461" y="6"/>
      <point x="596" y="60"/>
      <point x="650.0" y="106.5" type="qcurve" smooth="yes" name="inserted"/>
      <point x="704" y="153"/>
      <point x="777" y="278"/>
      <point x="787" y="349" type="qcurve" smooth="yes"/>
      <point x="797" y="420"/>
      <point x="760" y="545"/>
      <point x="719.5" y="592.0" type="qcurve" smooth="yes" name="inserted"/>
      <point x="679" y="639"/>
      <point x="561" y="694"/>
      <point x="490" y="694" type="qcurve" smooth="yes"/>
      <point x="419" y="694"/>
      <point x="287" y="639"/>
      <point x="233.5" y="592.0" type="qcurve" smooth="yes" name="inserted"/>
      <point x="180" y="545"/>
      <point x="109" y="419"/>
    </contour>
    <contour>
      <point x="85" y="349" type="qcurve" smooth="yes"/>
      <point x="95" y="423"/>
      <point x="170" y="554"/>
      <point x="225.0" y="602.5" type="qcurve" smooth="yes" name="inserted"/>
      <point x="280" y="651"/>
      <point x="418" y="708"/>
      <point x="492" y="708" type="qcurve" smooth="yes"/>
      <point x="566" y="708"/>
      <point x="689" y="651"/>
      <point x="731.0" y="602.5" type="qcurve" smooth="yes" name="inserted"/>
      <point x="773" y="554"/>
      <point x="811" y="423"/>
      <point x="801" y="349" type="qcurve" smooth="yes"/>
      <point x="793" y="291"/>
      <point x="743" y="186"/>
      <point x="705.5" y="142.5" type="qcurve" smooth="yes" name="inserted"/>
      <point x="668" y="99"/>
      <point x="573" y="33"/>
      <point x="519" y="14" type="qcurve"/>
      <point x="776" y="14" type="line"/>
      <point x="774" y="0" type="line"/>
      <point x="467" y="0" type="line"/>
      <point x="447.0" y="-4.0" name="inserted"/>
      <point x="409.5" y="-8.0"/>
      <point x="392" y="-8" type="qcurve" smooth="yes"/>
      <point x="318" y="-8"/>
      <point x="196" y="48"/>
      <point x="154.0" y="96.5" type="qcurve" smooth="yes" name="inserted"/>
      <point x="112" y="145"/>
      <point x="74" y="275"/>
    </contour>
  </outline>
</glyph>
<glyph name="S" format="1">
  <advance width="478"/>
  <unicode hex="0053"/>
  <outline>
    <contour>
      <point x="56" y="64" type="qcurve"/>
      <point x="70" y="164" type="line"/>
      <point x="84" y="164" type="line"/>
      <point x="71" y="74" type="line"/>
      <point x="96" y="45"/>
      <point x="175" y="6"/>
      <point x="237" y="6" type="qcurve" smooth="yes"/>
      <point x="276" y="6"/>
      <point x="351" y="31"/>
      <point x="382.5" y="54.0" type="qcurve" smooth="yes" name="inserted"/>
      <point x="414" y="77"/>
      <point x="456" y="142"/>
      <point x="462" y="182" type="qcurve" smooth="yes"/>
      <point x="469" y="228"/>
      <point x="446" y="289"/>
      <point x="423.5" y="308.5" type="qcurve" smooth="yes" name="inserted"/>
      <point x="401" y="328"/>
      <point x="340" y="351"/>
      <point x="307.5" y="360.5" type="qcurve" smooth="yes" name="inserted"/>
      <point x="275" y="370"/>
      <point x="211" y="391"/>
      <point x="187.0" y="407.5" type="qcurve" smooth="yes" name="inserted"/>
      <point x="163" y="424"/>
      <point x="136" y="476"/>
      <point x="139" y="517" type="qcurve" smooth="yes"/>
      <point x="142" y="550"/>
      <point x="170" y="617"/>
      <point x="195.0" y="644.0" type="qcurve" smooth="yes" name="inserted"/>
      <point x="220" y="671"/>
      <point x="291" y="704"/>
      <point x="338" y="704" type="qcurve" smooth="yes"/>
      <point x="354" y="704"/>
      <point x="392" y="700"/>
      <point x="411.0" y="695.5" type="qcurve" smooth="yes" name="inserted"/>
      <point x="430" y="691"/>
      <point x="465" y="673"/>
      <point x="479" y="660" type="qcurve"/>
      <point x="463" y="546" type="line"/>
      <point x="449" y="546" type="line"/>
      <point x="464" y="653" type="line"/>
      <point x="447" y="668"/>
      <point x="382" y="690"/>
      <point x="334" y="690" type="qcurve" smooth="yes"/>
      <point x="295" y="690"/>
      <point x="233" y="663"/>
      <point x="210.0" y="640.5" type="qcurve" smooth="yes" name="inserted"/>
      <point x="187" y="618"/>
      <point x="159" y="561"/>
      <point x="155" y="530" type="qcurve" smooth="yes"/>
      <point x="149" y="489"/>
      <point x="174" y="438"/>
      <point x="197.0" y="421.5" type="qcurve" smooth="yes" name="inserted"/>
      <point x="220" y="405"/>
      <point x="283" y="385"/>
      <point x="316.0" y="375.0" type="qcurve" smooth="yes" name="inserted"/>
      <point x="349" y="365"/>
      <point x="412" y="340"/>
      <point x="435.5" y="319.5" type="qcurve" smooth="yes" name="inserted"/>
      <point x="459" y="299"/>
      <point x="483" y="235"/>
      <point x="477" y="186" type="qcurve" smooth="yes"/>
      <point x="472" y="142"/>
      <point x="429" y="70"/>
      <point x="396.5" y="44.5" type="qcurve" smooth="yes" name="inserted"/>
      <point x="364" y="19"/>
      <point x="282" y="-8"/>
      <point x="238" y="-8" type="qcurve" smooth="yes"/>
      <point x="198" y="-8"/>
      <point x="137" y="8"/>
      <point x="115.0" y="19.5" type="qcurve" smooth="yes" name="inserted"/>
      <point x="93" y="31"/>
      <point x="64" y="55"/>
    </contour>
  </outline>
</glyph>
<glyph name="T" format="2">
  <advance width="623"/>
  <unicode hex="0054"/>
  <outline>
    <contour>
      <point x="226" y="14" type="line"/>
      <point x="305" y="14" type="line"/>
      <point x="400" y="686" type="line"/>
      <point x="145" y="686" type="line"/>
      <point x="125" y="546" type="line"/>
      <point x="111" y="546" type="line"/>
      <point x="133" y="700" type="line"/>
      <point x="686" y="700" type="line"/>
      <point x="664" y="546" type="line"/>
      <point x="650" y="546" type="line"/>
      <point x="670" y="686" type="line"/>
      <point x="414" y="686" type="line"/>
      <point x="319" y="14" type="line"/>
      <point x="400" y="14" type="line"/>
      <point x="399" y="0" type="line"/>
      <point x="225" y="0" type="line"/>
    </contour>
  </outline>
</glyph>
<glyph name="U" format="2">
  <advance width="674"/>
  <unicode hex="0055"/>
  <outline>
    <contour>
      <point x="134" y="700" type="line"/>
      <point x="308" y="700" type="line"/>
      <point x="306" y="686" type="line"/>
      <point x="223" y="686" type="line"/>
      <point x="159" y="229" type="line" smooth="yes"/>
      <point x="151" y="175"/>
      <point x="171" y="92"/>
      <point x="195" y="63.5" type="qcurve" smooth="yes" name="inserted"/>
      <point x="219" y="35"/>
      <point x="292" y="6"/>
      <point x="338" y="6" type="qcurve" smooth="yes"/>
      <point x="383" y="6"/>
      <point x="465" y="35"/>
      <point x="497.5" y="63.5" type="qcurve" smooth="yes" name="inserted"/>
      <point x="530" y="92"/>
      <point x="573" y="175"/>
      <point x="581" y="229" type="qcurve" smooth="yes"/>
      <point x="645" y="686" type="line"/>
      <point x="562" y="686" type="line"/>
      <point x="564" y="700" type="line"/>
      <point x="738" y="700" type="line"/>
      <point x="736" y="686" type="line"/>
      <point x="659" y="686" type="line"/>
      <point x="594" y="226" type="line" smooth="yes"/>
      <point x="586" y="169"/>
      <point x="540" y="81"/>
      <point x="505.5" y="51.5" type="qcurve" smooth="yes" name="inserted"/>
      <point x="471" y="22"/>
      <point x="385" y="-8"/>
      <point x="337" y="-8" type="qcurve" smooth="yes"/>
      <point x="289" y="-8"/>
      <point x="210" y="22"/>
      <point x="184" y="51.5" type="qcurve" smooth="yes" name="inserted"/>
      <point x="158" y="81"/>
      <point x="136" y="169"/>
      <point x="144" y="226" type="qcurve" smooth="yes"/>
      <point x="209" y="686" type="line"/>
      <point x="132" y="686" type="line"/>
    </contour>
  </outline>
</glyph>
<glyph name="V" format="2">
  <advance width="844"/>
  <unicode hex="0056"/>
  <outline>
    <contour>
      <point x="137" y="700" type="line"/>
      <point x="311" y="700" type="line"/>
      <point x="309" y="686" type="line"/>
      <point x="233" y="686" type="line"/>
      <point x="280" y="519"/>
      <point x="373" y="191"/>
      <point x="421" y="25" type="qcurve"/>
      <point x="426" y="0" type="line"/>
      <point x="439" y="25" type="line" smooth="yes"/>
      <point x="532" y="191"/>
      <point x="717" y="519"/>
      <point x="811" y="686" type="qcurve"/>
      <point x="735" y="686" type="line"/>
      <point x="737" y="700" type="line"/>
      <point x="911" y="700" type="line"/>
      <point x="909" y="686" type="line"/>
      <point x="826" y="686" type="line"/>
      <point x="725" y="505"/>
      <point x="523" y="148"/>
      <point x="422" y="-32" type="qcurve"/>
      <point x="371" y="148"/>
      <point x="268" y="505"/>
      <point x="217" y="686" type="qcurve"/>
      <point x="135" y="686" type="line"/>
    </contour>
  </outline>
</glyph>
<glyph name="W" format="1">
  <advance width="1220"/>
  <unicode hex="0057"/>
  <outline>
    <contour>
      <point x="137" y="700" type="line"/>
      <point x="311" y="700" type="line"/>
      <point x="309" y="686" type="line"/>
      <point x="233" y="686" type="line"/>
      <point x="279" y="519"/>
      <point x="371" y="190"/>
      <point x="421" y="25" type="qcurve"/>
      <point x="426" y="0" type="line"/>
      <point x="481" y="108"/>
      <point x="604" y="319"/>
      <point x="664" y="425" type="qcurve"/>
      <point x="646" y="490"/>
      <point x="609" y="620"/>
      <point x="590" y="686" type="qcurve"/>
      <point x="511" y="686" type="line"/>
      <point x="513" y="700" type="line"/>
      <point x="687" y="700" type="line"/>
      <point x="685" y="686" type="line"/>
      <point x="605" y="686" type="line"/>
      <point x="651" y="519"/>
      <point x="743" y="190"/>
      <point x="793" y="25" type="qcurve"/>
      <point x="798" y="0" type="line"/>
      <point x="811" y="25" type="line" smooth="yes"/>
      <point x="904" y="191"/>
      <point x="1089" y="519"/>
      <point x="1183" y="686" type="qcurve"/>
      <point x="1111" y="686" type="line"/>
      <point x="1113" y="700" type="line"/>
      <point x="1287" y="700" type="line"/>
      <point x="1285" y="686" type="line"/>
      <point x="1198" y="686" type="line"/>
      <point x="1097" y="505"/>
      <point x="895" y="148"/>
      <point x="794" y="-32" type="qcurve"/>
      <point x="675" y="385" type="line"/>
      <point x="669" y="407" type="line"/>
      <point x="606" y="297"/>
      <point x="484" y="78"/>
      <point x="422" y="-32" type="qcurve"/>
      <point x="371" y="148"/>
      <point x="268" y="505"/>
      <point x="217" y="686" type="qcurve"/>
      <point x="135" y="686" type="line"/>
    </contour>
  </outline>
</glyph>
<glyph name="Z" format="1">
  <advance width="629"/>
  <unicode hex="005A"/>
  <outline>
    <contour>
      <point x="618" y="174" type="line"/>
      <point x="594" y="0" type="line"/>
      <point x="35" y="0" type="line"/>
      <point x="36" y="14" type="line"/>
      <point x="641" y="686" type="line"/>
      <point x="148" y="686" type="line"/>
      <point x="155" y="735" type="line"/>
      <point x="171" y="735" type="line"/>
      <point x="166" y="700" type="line"/>
      <point x="663" y="700" type="line"/>
      <point x="661" y="686" type="line"/>
      <point x="56" y="14" type="line"/>
      <point x="581" y="14" type="line"/>
      <point x="604" y="174" type="line"/>
    </contour>
  </outline>
</glyph>
<glyph name="backslash" format="2">
  <advance width="320"/>
  <unicode hex="005C"/>
  <outline>
    <contour>
      <point x="84" y="736" type="line"/>
      <point x="127" y="546"/>
      <point x="212" y="171"/>
      <point x="255" y="-19" type="qcurve"/>
      <point x="241" y="-19" type="line"/>
      <point x="198" y="171"/>
      <point x="113" y="546"/>
      <point x="70" y="736" type="qcurve"/>
    </contour>
  </outline>
</glyph>
<glyph name="bracketright" format="2">
  <advance width="342"/>
  <unicode hex="005D"/>
  <outline>
    <contour>
      <point x="313" y="746" type="line"/>
      <point x="188" y="-149" type="line"/>
      <point x="25" y="-149" type="line"/>
      <point x="27" y="-135" type="line"/>
      <point x="174" y="-135" type="line"/>
      <point x="295" y="732" type="line"/>
      <point x="148" y="732" type="line"/>
      <point x="150" y="746" type="line"/>
    </contour>
  </outline>
</glyph>
<glyph name="asciicircum" format="1">
  <advance width="470"/>
  <unicode hex="005E"/>
  <outline>
    <contour>
      <point x="244" y="660" type="qcurve"/>
      <point x="268" y="615"/>
      <point x="315" y="524"/>
      <point x="339" y="479" type="qcurve"/>
      <point x="323" y="479" type="line"/>
      <point x="302" y="517"/>
      <point x="261" y="595"/>
      <point x="240" y="633" type="qcurve"/>
      <point x="208" y="595"/>
      <point x="147" y="517"/>
      <point x="115" y="479" type="qcurve"/>
      <point x="99" y="479" type="line"/>
      <point x="135" y="524"/>
      <point x="208" y="615"/>
    </contour>
  </outline>
</glyph>
<glyph name="underscore" format="2">
  <advance width="600"/>
  <unicode hex="005F"/>
  <outline>
    <contour>
      <point x="499" y="0" type="line"/>
      <point x="99" y="0" type="line"/>
      <point x="100" y="14" type="line"/>
      <point x="500" y="14" type="line"/>
    </contour>
  </outline>
</glyph>
<glyph name="grave" format="2">
  <advance width="200"/>
  <unicode hex="0060"/>
  <outline>
    <contour>
      <point x="11" y="612" type="line"/>
      <point x="29" y="579"/>
      <point x="64" y="512"/>
      <point x="82" y="479" type="qcurve"/>
      <point x="66" y="479" type="line"/>
      <point x="48" y="512"/>
      <point x="13" y="579"/>
      <point x="-4" y="612" type="qcurve"/>
    </contour>
  </outline>
</glyph>
<glyph name="c" format="2">
  <advance width="387"/>
  <unicode hex="0063"/>
  <outline>
    <contour>
      <point x="358" y="37" type="line"/>
      <point x="329" y="17"/>
      <point x="264" y="-6"/>
      <point x="229" y="-6" type="qcurve" smooth="yes"/>
      <point x="188" y="-6"/>
      <point x="122" y="24"/>
      <point x="99.5" y="50.5" type="qcurve" smooth="yes" name="inserted"/>
      <point x="77" y="77"/>
      <point x="56" y="147"/>
      <point x="62" y="188" type="qcurve" smooth="yes"/>
      <point x="68" y="228"/>
      <point x="108" y="300"/>
      <point x="138" y="326" type="qcurve" smooth="yes" name="inserted"/>
      <point x="168" y="352"/>
      <point x="242" y="383"/>
      <point x="283" y="383" type="qcurve" smooth="yes"/>
      <point x="318" y="383"/>
      <point x="378" y="360"/>
      <point x="400" y="340" type="qcurve"/>
      <point x="388" y="253" type="line"/>
      <point x="374" y="253" type="line"/>
      <point x="385" y="332" type="line"/>
      <point x="364" y="349"/>
      <point x="312" y="369"/>
      <point x="281" y="369" type="qcurve" smooth="yes"/>
      <point x="243" y="369"/>
      <point x="174" y="341"/>
      <point x="146" y="316" type="qcurve" smooth="yes" name="inserted"/>
      <point x="118" y="291"/>
      <point x="81" y="225"/>
      <point x="76" y="188" type="qcurve" smooth="yes"/>
      <point x="71" y="150"/>
      <point x="89" y="85"/>
      <point x="110" y="60.5" type="qcurve" smooth="yes" name="inserted"/>
      <point x="131" y="36"/>
      <point x="192" y="8"/>
      <point x="230" y="8" type="qcurve" smooth="yes"/>
      <point x="262" y="8"/>
      <point x="323" y="29"/>
      <point x="349" y="47" type="qcurve"/>
    </contour>
  </outline>
</glyph>
<glyph name="d" format="1">
  <advance width="532"/>
  <unicode hex="0064"/>
  <outline>
    <contour>
      <point x="418" y="54" type="line" smooth="yes"/>
      <point x="420" y="70"/>
      <point x="426" y="101"/>
      <point x="428" y="117" type="qcurve"/>
      <point x="399" y="63"/>
      <point x="292" y="-6"/>
      <point x="229" y="-6" type="qcurve" smooth="yes"/>
      <point x="188" y="-6"/>
      <point x="122" y="24"/>
      <point x="99.5" y="50.5" type="qcurve" smooth="yes" name="inserted"/>
      <point x="77" y="77"/>
      <point x="56" y="147"/>
      <point x="62" y="188" type="qcurve" smooth="yes"/>
      <point x="68" y="228"/>
      <point x="108" y="300"/>
      <point x="138.0" y="326.0" type="qcurve" smooth="yes" name="inserted"/>
      <point x="168" y="352"/>
      <point x="242" y="383"/>
      <point x="283" y="383" type="qcurve" smooth="yes"/>
      <point x="346" y="383"/>
      <point x="433" y="314"/>
      <point x="447" y="260" type="qcurve"/>
      <point x="452" y="290"/>
      <point x="459" y="349"/>
      <point x="464" y="379" type="qcurve" smooth="yes"/>
      <point x="514" y="736" type="line"/>
      <point x="441" y="736" type="line"/>
      <point x="443" y="750" type="line"/>
      <point x="530" y="750" type="line"/>
      <point x="426" y="14" type="line"/>
      <point x="499" y="14" type="line"/>
      <point x="497" y="0" type="line"/>
      <point x="410" y="0" type="line"/>
    </contour>
    <contour>
      <point x="76" y="188" type="qcurve" smooth="yes"/>
      <point x="71" y="150"/>
      <point x="89" y="85"/>
      <point x="110.0" y="60.5" type="qcurve" smooth="yes" name="inserted"/>
      <point x="131" y="36"/>
      <point x="192" y="8"/>
      <point x="230" y="8" type="qcurve" smooth="yes"/>
      <point x="267" y="8"/>
      <point x="338" y="36"/>
      <point x="366.0" y="60.5" type="qcurve" smooth="yes" name="inserted"/>
      <point x="394" y="85"/>
      <point x="432" y="150"/>
      <point x="437" y="188" type="qcurve" smooth="yes"/>
      <point x="442" y="225"/>
      <point x="423" y="291"/>
      <point x="402.0" y="316.0" type="qcurve" smooth="yes" name="inserted"/>
      <point x="381" y="341"/>
      <point x="318" y="369"/>
      <point x="281" y="369" type="qcurve" smooth="yes"/>
      <point x="243" y="369"/>
      <point x="174" y="341"/>
      <point x="146.0" y="316.0" type="qcurve" smooth="yes" name="inserted"/>
      <point x="118" y="291"/>
      <point x="81" y="225"/>
    </contour>
  </outline>
</glyph>
<glyph name="f" format="2">
  <advance width="281"/>
  <unicode hex="0066"/>
  <outline>
    <contour>
      <point x="36" y="14" type="line"/>
      <point x="97" y="14" type="line"/>
      <point x="146" y="361" type="line"/>
      <point x="85" y="361" type="line"/>
      <point x="87" y="375" type="line"/>
      <point x="148" y="375" type="line"/>
      <point x="168" y="518" type="line" smooth="yes"/>
      <point x="176" y="573"/>
      <point x="217" y="659"/>
      <point x="246.5" y="688.0" type="qcurve" smooth="yes" name="inserted"/>
      <point x="276" y="717"/>
      <point x="348" y="748"/>
      <point x="386" y="750" type="qcurve"/>
      <point x="384" y="736" type="line"/>
      <point x="350" y="736"/>
      <point x="284" y="706"/>
      <point x="256.5" y="678.0" type="qcurve" smooth="yes" name="inserted"/>
      <point x="229" y="650"/>
      <point x="190" y="571"/>
      <point x="183" y="522" type="qcurve" smooth="yes"/>
      <point x="162" y="375" type="line"/>
      <point x="292" y="375" type="line"/>
      <point x="290" y="361" type="line"/>
      <point x="160" y="361" type="line"/>
      <point x="111" y="14" type="line"/>
      <point x="210" y="14" type="line"/>
      <point x="209" y="0" type="line"/>
      <point x="35" y="0" type="line"/>
    </contour>
  </outline>
</glyph>
<glyph name="g" format="2">
  <advance width="533"/>
  <unicode hex="0067"/>
  <outline>
    <contour>
      <point x="501" y="375" type="qcurve"/>
      <point x="585" y="375" type="line"/>
      <point x="583" y="361" type="line"/>
      <point x="509" y="361" type="line"/>
      <point x="456" y="-18" type="line" smooth="yes"/>
      <point x="448" y="-74"/>
      <point x="407" y="-159"/>
      <point x="377.5" y="-188" type="qcurve" smooth="yes" name="inserted"/>
      <point x="348" y="-217"/>
      <point x="277" y="-249"/>
      <point x="239" y="-250" type="qcurve"/>
      <point x="188" y="-250"/>
      <point x="117" y="-222"/>
      <point x="96" y="-190" type="qcurve"/>
      <point x="110" y="-183" type="line"/>
      <point x="130" y="-213"/>
      <point x="199" y="-236"/>
      <point x="235" y="-236" type="qcurve" smooth="yes"/>
      <point x="269" y="-236"/>
      <point x="341" y="-206"/>
      <point x="368.5" y="-178" type="qcurve" smooth="yes" name="inserted"/>
      <point x="396" y="-150"/>
      <point x="435" y="-71"/>
      <point x="442" y="-22" type="qcurve" smooth="yes"/>
      <point x="452" y="54" type="line" smooth="yes"/>
      <point x="454" y="70"/>
      <point x="460" y="101"/>
      <point x="462" y="117" type="qcurve"/>
      <point x="433" y="63"/>
      <point x="326" y="-6"/>
      <point x="263" y="-6" type="qcurve" smooth="yes"/>
      <point x="222" y="-6"/>
      <point x="156" y="24"/>
      <point x="133.5" y="50.5" type="qcurve" smooth="yes" name="inserted"/>
      <point x="111" y="77"/>
      <point x="90" y="147"/>
      <point x="96" y="188" type="qcurve" smooth="yes"/>
      <point x="102" y="228"/>
      <point x="142" y="300"/>
      <point x="172" y="326" type="qcurve" smooth="yes" name="inserted"/>
      <point x="202" y="352"/>
      <point x="276" y="383"/>
      <point x="317" y="383" type="qcurve" smooth="yes"/>
      <point x="348" y="383"/>
      <point x="401" y="365"/>
      <point x="422.5" y="348.5" type="qcurve" smooth="yes" name="inserted"/>
      <point x="444" y="332"/>
      <point x="474" y="287"/>
      <point x="481" y="260" type="qcurve"/>
      <point x="486" y="289"/>
      <point x="496" y="346"/>
    </contour>
    <contour>
      <point x="110" y="188" type="qcurve" smooth="yes"/>
      <point x="105" y="150"/>
      <point x="124" y="85"/>
      <point x="145" y="60.5" type="qcurve" smooth="yes" name="inserted"/>
      <point x="166" y="36"/>
      <point x="227" y="8"/>
      <point x="265" y="8" type="qcurve" smooth="yes"/>
      <point x="302" y="8"/>
      <point x="372" y="36"/>
      <point x="400" y="60.5" type="qcurve" smooth="yes" name="inserted"/>
      <point x="428" y="85"/>
      <point x="466" y="150"/>
      <point x="471" y="188" type="qcurve" smooth="yes"/>
      <point x="476" y="225"/>
      <point x="457" y="291"/>
      <point x="436" y="316" type="qcurve" smooth="yes" name="inserted"/>
      <point x="415" y="341"/>
      <point x="352" y="369"/>
      <point x="315" y="369" type="qcurve" smooth="yes"/>
      <point x="277" y="369"/>
      <point x="208" y="341"/>
      <point x="180" y="316" type="qcurve" smooth="yes" name="inserted"/>
      <point x="152" y="291"/>
      <point x="115" y="225"/>
    </contour>
  </outline>
</glyph>
<glyph name="h" format="1">
  <advance width="522"/>
  <unicode hex="0068"/>
  <outline>
    <contour>
      <point x="314" y="14" type="line"/>
      <point x="393" y="14" type="line"/>
      <point x="430" y="277" type="line" smooth="yes"/>
      <point x="434" y="313"/>
      <point x="392" y="366"/>
      <point x="348" y="368" type="qcurve" smooth="yes"/>
      <point x="314" y="368"/>
      <point x="250" y="346"/>
      <point x="224.0" y="326.5" type="qcurve" smooth="yes" name="inserted"/>
      <point x="198" y="307"/>
      <point x="163" y="252"/>
      <point x="158" y="220" type="qcurve" smooth="yes"/>
      <point x="129" y="14" type="line"/>
      <point x="210" y="14" type="line"/>
      <point x="209" y="0" type="line"/>
      <point x="35" y="0" type="line"/>
      <point x="36" y="14" type="line"/>
      <point x="115" y="14" type="line"/>
      <point x="217" y="736" type="line"/>
      <point x="144" y="736" type="line"/>
      <point x="146" y="750" type="line"/>
      <point x="233" y="750" type="line"/>
      <point x="173" y="322" type="line"/>
      <point x="163" y="277" type="line"/>
      <point x="190" y="324"/>
      <point x="286" y="382"/>
      <point x="343" y="382" type="qcurve" smooth="yes"/>
      <point x="396" y="382"/>
      <point x="449" y="320"/>
      <point x="443" y="270" type="qcurve" smooth="yes"/>
      <point x="407" y="14" type="line"/>
      <point x="488" y="14" type="line"/>
      <point x="487" y="0" type="line"/>
      <point x="313" y="0" type="line"/>
    </contour>
  </outline>
</glyph>
<glyph name="i" format="1">
  <advance width="244"/>
  <unicode hex="0069"/>
  <outline>
    <contour>
      <point x="36" y="14" type="line"/>
      <point x="118" y="14" type="line"/>
      <point x="167" y="361" type="line"/>
      <point x="85" y="361" type="line"/>
      <point x="87" y="375" type="line"/>
      <point x="183" y="375" type="line"/>
      <point x="132" y="14" type="line"/>
      <point x="210" y="14" type="line"/>
      <point x="209" y="0" type="line"/>
      <point x="35" y="0" type="line"/>
    </contour>
    <contour>
      <point x="174" y="500" type="qcurve"/>
      <point x="175" y="508"/>
      <point x="189" y="520"/>
      <point x="197" y="520" type="qcurve" smooth="yes"/>
      <point x="205" y="520"/>
      <point x="215" y="508"/>
      <point x="214" y="500" type="qcurve"/>
      <point x="212" y="492"/>
      <point x="199" y="480"/>
      <point x="191" y="480" type="qcurve" smooth="yes"/>
      <point x="183" y="480"/>
      <point x="172" y="492"/>
    </contour>
  </outline>
</glyph>
<glyph name="k" format="1">
  <advance width="487"/>
  <unicode hex="006B"/>
  <outline>
    <contour>
      <point x="279" y="14" type="line"/>
      <point x="352" y="14" type="line"/>
      <point x="320" y="67"/>
      <point x="257" y="171"/>
      <point x="226" y="225" type="qcurve"/>
      <point x="142" y="155" type="line"/>
      <point x="122" y="14" type="line"/>
      <point x="210" y="14" type="line"/>
      <point x="209" y="0" type="line"/>
      <point x="35" y="0" type="line"/>
      <point x="36" y="14" type="line"/>
      <point x="108" y="14" type="line"/>
      <point x="210" y="736" type="line"/>
      <point x="137" y="736" type="line"/>
      <point x="139" y="750" type="line"/>
      <point x="226" y="750" type="line"/>
      <point x="145" y="176" type="line"/>
      <point x="369" y="361" type="line"/>
      <point x="293" y="361" type="line"/>
      <point x="295" y="375" type="line"/>
      <point x="469" y="375" type="line"/>
      <point x="467" y="361" type="line"/>
      <point x="388" y="361" type="line"/>
      <point x="367" y="343"/>
      <point x="332" y="313"/>
      <point x="314.5" y="298.0" type="qcurve" smooth="yes" name="inserted"/>
      <point x="297" y="283"/>
      <point x="261" y="253"/>
      <point x="240" y="235" type="qcurve"/>
      <point x="272" y="179"/>
      <point x="338" y="69"/>
      <point x="370" y="14" type="qcurve"/>
      <point x="453" y="14" type="line"/>
      <point x="452" y="0" type="line"/>
      <point x="278" y="0" type="line"/>
    </contour>
  </outline>
</glyph>
<glyph name="l" format="2">
  <advance width="244"/>
  <unicode hex="006C"/>
  <outline>
    <contour>
      <point x="36" y="14" type="line"/>
      <point x="108" y="14" type="line"/>
      <point x="210" y="736" type="line"/>
      <point x="137" y="736" type="line"/>
      <point x="139" y="750" type="line"/>
      <point x="226" y="750" type="line"/>
      <point x="122" y="14" type="line"/>
      <point x="210" y="14" type="line"/>
      <point x="209" y="0" type="line"/>
      <point x="35" y="0" type="line"/>
    </contour>
  </outline>
</glyph>
<glyph name="o" format="2">
  <advance width="461"/>
  <unicode hex="006F"/>
  <outline>
    <contour>
      <point x="63" y="188" type="qcurve" smooth="yes"/>
      <point x="69" y="228"/>
      <point x="109" y="300"/>
      <point x="139" y="326.5" type="qcurve" smooth="yes" name="inserted"/>
      <point x="169" y="353"/>
      <point x="243" y="384"/>
      <point x="284" y="384" type="qcurve" smooth="yes"/>
      <point x="324" y="384"/>
      <point x="392" y="353"/>
      <point x="415" y="326.5" type="qcurve" smooth="yes" name="inserted"/>
      <point x="438" y="300"/>
      <point x="459" y="228"/>
      <point x="453" y="188" type="qcurve" smooth="yes"/>
      <point x="447" y="147"/>
      <point x="407" y="77"/>
      <point x="376.5" y="50.5" type="qcurve" smooth="yes" name="inserted"/>
      <point x="346" y="24"/>
      <point x="270" y="-6"/>
      <point x="230" y="-6" type="qcurve" smooth="yes"/>
      <point x="189" y="-6"/>
      <point x="123" y="24"/>
      <point x="100.5" y="50.5" type="qcurve" smooth="yes" name="inserted"/>
      <point x="78" y="77"/>
      <point x="57" y="147"/>
    </contour>
    <contour>
      <point x="77" y="188" type="qcurve" smooth="yes"/>
      <point x="72" y="150"/>
      <point x="90" y="85"/>
      <point x="111" y="60.5" type="qcurve" smooth="yes" name="inserted"/>
      <point x="132" y="36"/>
      <point x="193" y="8"/>
      <point x="231" y="8" type="qcurve" smooth="yes"/>
      <point x="268" y="8"/>
      <point x="339" y="36"/>
      <point x="367" y="60.5" type="qcurve" smooth="yes" name="inserted"/>
      <point x="395" y="85"/>
      <point x="433" y="150"/>
      <point x="438" y="188" type="qcurve" smooth="yes"/>
      <point x="443" y="225"/>
      <point x="424" y="291"/>
      <point x="403" y="316" type="qcurve" smooth="yes" name="inserted"/>
      <point x="382" y="341"/>
      <point x="319" y="369"/>
      <point x="282" y="369" type="qcurve" smooth="yes"/>
      <point x="244" y="369"/>
      <point x="175" y="341"/>
      <point x="147" y="316" type="qcurve" smooth="yes" name="inserted"/>
      <point x="119" y="291"/>
      <point x="82" y="225"/>
    </contour>
  </outline>
</glyph>
<glyph name="p" format="1">
  <advance width="532"/>
  <unicode hex="0070"/>
  <outline>
    <contour>
      <point x="-1" y="-236" type="line"/>
      <point x="64" y="-236" type="line"/>
      <point x="148" y="361" type="line"/>
      <point x="75" y="361" type="line"/>
      <point x="77" y="375" type="line"/>
      <point x="160" y="375" type="line"/>
      <point x="156" y="346"/>
      <point x="151" y="286"/>
      <point x="146" y="257" type="qcurve"/>
      <point x="161" y="284"/>
      <point x="203" y="330"/>
      <point x="229.5" y="346.5" type="qcurve" smooth="yes" name="inserted"/>
      <point x="256" y="363"/>
      <point x="315" y="381"/>
      <point x="346" y="381" type="qcurve" smooth="yes"/>
      <point x="386" y="381"/>
      <point x="453" y="351"/>
      <point x="475.5" y="324.5" type="qcurve" smooth="yes" name="inserted"/>
      <point x="498" y="298"/>
      <point x="519" y="227"/>
      <point x="513" y="187" type="qcurve" smooth="yes"/>
      <point x="507" y="146"/>
      <point x="466" y="75"/>
      <point x="436.0" y="49.0" type="qcurve" smooth="yes" name="inserted"/>
      <point x="406" y="23"/>
      <point x="331" y="-8"/>
      <point x="291" y="-8" type="qcurve" smooth="yes"/>
      <point x="228" y="-8"/>
      <point x="141" y="61"/>
      <point x="127" y="115" type="qcurve"/>
      <point x="121" y="61" type="line"/>
      <point x="79" y="-236" type="line"/>
      <point x="172" y="-236" type="line"/>
      <point x="171" y="-250" type="line"/>
      <point x="-2" y="-250" type="line"/>
    </contour>
    <contour>
      <point x="499" y="187" type="qcurve" smooth="yes"/>
      <point x="504" y="224"/>
      <point x="485" y="290"/>
      <point x="464.0" y="314.5" type="qcurve" smooth="yes" name="inserted"/>
      <point x="443" y="339"/>
      <point x="381" y="367"/>
      <point x="344" y="367" type="qcurve" smooth="yes"/>
      <point x="306" y="367"/>
      <point x="237" y="339"/>
      <point x="209.0" y="314.5" type="qcurve" smooth="yes" name="inserted"/>
      <point x="181" y="290"/>
      <point x="143" y="224"/>
      <point x="138" y="187" type="qcurve" smooth="yes"/>
      <point x="133" y="149"/>
      <point x="152" y="84"/>
      <point x="173.0" y="59.0" type="qcurve" smooth="yes" name="inserted"/>
      <point x="194" y="34"/>
      <point x="255" y="6"/>
      <point x="293" y="6" type="qcurve" smooth="yes"/>
      <point x="330" y="6"/>
      <point x="400" y="34"/>
      <point x="428.0" y="59.0" type="qcurve" smooth="yes" name="inserted"/>
      <point x="456" y="84"/>
      <point x="494" y="149"/>
    </contour>
  </outline>
</glyph>
<glyph name="q" format="2">
  <advance width="532"/>
  <unicode hex="0071"/>
  <outline>
    <contour>
      <point x="322" y="-236" type="line"/>
      <point x="410" y="-236" type="line"/>
      <point x="452" y="61" type="line" smooth="yes"/>
      <point x="455" y="79"/>
      <point x="458" y="97"/>
      <point x="461" y="115" type="qcurve"/>
      <point x="432" y="61"/>
      <point x="326" y="-8"/>
      <point x="263" y="-8" type="qcurve" smooth="yes"/>
      <point x="222" y="-8"/>
      <point x="156" y="23"/>
      <point x="133.5" y="49.0" type="qcurve" smooth="yes" name="inserted"/>
      <point x="111" y="75"/>
      <point x="90" y="146"/>
      <point x="96" y="187" type="qcurve" smooth="yes"/>
      <point x="102" y="227"/>
      <point x="142" y="298"/>
      <point x="172.0" y="324.5" type="qcurve" smooth="yes" name="inserted"/>
      <point x="202" y="351"/>
      <point x="276" y="381"/>
      <point x="317" y="381" type="qcurve" smooth="yes"/>
      <point x="380" y="381"/>
      <point x="468" y="312"/>
      <point x="482" y="257" type="qcurve"/>
      <point x="486" y="286"/>
      <point x="497" y="346"/>
      <point x="501" y="375" type="qcurve"/>
      <point x="584" y="375" type="line"/>
      <point x="582" y="361" type="line"/>
      <point x="509" y="361" type="line"/>
      <point x="425" y="-236" type="line"/>
      <point x="496" y="-236" type="line"/>
      <point x="495" y="-250" type="line"/>
      <point x="321" y="-250" type="line"/>
    </contour>
    <contour>
      <point x="110" y="187" type="qcurve" smooth="yes"/>
      <point x="105" y="149"/>
      <point x="123" y="84"/>
      <point x="144.0" y="59.0" type="qcurve" smooth="yes" name="inserted"/>
      <point x="165" y="34"/>
      <point x="226" y="6"/>
      <point x="264" y="6" type="qcurve" smooth="yes"/>
      <point x="301" y="6"/>
      <point x="372" y="34"/>
      <point x="400.0" y="59.0" type="qcurve" smooth="yes" name="inserted"/>
      <point x="428" y="84"/>
      <point x="466" y="149"/>
      <point x="471" y="187" type="qcurve" smooth="yes"/>
      <point x="476" y="224"/>
      <point x="457" y="290"/>
      <point x="436.0" y="314.5" type="qcurve" smooth="yes" name="inserted"/>
      <point x="415" y="339"/>
      <point x="352" y="367"/>
      <point x="315" y="367" type="qcurve" smooth="yes"/>
      <point x="277" y="367"/>
      <point x="208" y="339"/>
      <point x="180.0" y="314.5" type="qcurve" smooth="yes" name="inserted"/>
      <point x="152" y="290"/>
      <point x="115" y="224"/>
    </contour>
  </outline>
</glyph>
<glyph name="r" format="1">
  <advance width="326"/>
  <unicode hex="0072"/>
  <outline>
    <contour>
      <point x="36" y="14" type="line"/>
      <point x="115" y="14" type="line"/>
      <point x="164" y="361" type="line"/>
      <point x="89" y="361" type="line"/>
      <point x="91" y="375" type="line"/>
      <point x="174" y="375" type="line"/>
      <point x="169" y="322" type="line"/>
      <point x="167" y="309"/>
      <point x="165" y="290"/>
      <point x="163" y="277" type="qcurve"/>
      <point x="191" y="325"/>
      <point x="287" y="380"/>
      <point x="344" y="382" type="qcurve"/>
      <point x="342" y="368" type="line"/>
      <point x="309" y="367"/>
      <point x="247" y="344"/>
      <point x="222.0" y="324.5" type="qcurve" smooth="yes" name="inserted"/>
      <point x="197" y="305"/>
      <point x="162" y="251"/>
      <point x="158" y="220" type="qcurve" smooth="yes"/>
      <point x="129" y="14" type="line"/>
      <point x="210" y="14" type="line"/>
      <point x="209" y="0" type="line"/>
      <point x="35" y="0" type="line"/>
    </contour>
  </outline>
</glyph>
<glyph name="s" format="1">
  <advance width="315"/>
  <unicode hex="0073"/>
  <outline>
    <contour>
      <point x="82" y="91" type="line"/>
      <point x="74" y="32" type="line"/>
      <point x="94" y="15"/>
      <point x="148" y="6"/>
      <point x="173" y="6" type="qcurve" smooth="yes"/>
      <point x="188" y="6"/>
      <point x="224" y="18"/>
      <point x="240.5" y="29.5" type="qcurve" smooth="yes" name="inserted"/>
      <point x="257" y="41"/>
      <point x="281" y="75"/>
      <point x="284" y="98" type="qcurve" smooth="yes"/>
      <point x="288" y="129"/>
      <point x="264" y="163"/>
      <point x="243.0" y="172.5" type="qcurve" smooth="yes" name="inserted"/>
      <point x="222" y="182"/>
      <point x="172" y="196"/>
      <point x="151.0" y="205.5" type="qcurve" smooth="yes" name="inserted"/>
      <point x="130" y="215"/>
      <point x="105" y="249"/>
      <point x="109" y="280" type="qcurve" smooth="yes"/>
      <point x="112" y="304"/>
      <point x="135" y="340"/>
      <point x="151.0" y="353.0" type="qcurve" smooth="yes" name="inserted"/>
      <point x="167" y="366"/>
      <point x="205" y="379"/>
      <point x="224" y="379" type="qcurve"/>
      <point x="224" y="379"/>
      <point x="247" y="379"/>
      <point x="262.5" y="376.0" type="qcurve" smooth="yes" name="inserted"/>
      <point x="278" y="373"/>
      <point x="310" y="361"/>
      <point x="319" y="349" type="qcurve"/>
      <point x="310" y="284" type="line"/>
      <point x="296" y="284" type="line"/>
      <point x="304" y="343" type="line"/>
      <point x="296" y="352"/>
      <point x="269" y="361"/>
      <point x="256.0" y="363.0" type="qcurve" smooth="yes" name="inserted"/>
      <point x="243" y="365"/>
      <point x="222" y="365"/>
      <point x="220" y="365" type="qcurve" smooth="yes"/>
      <point x="207" y="365"/>
      <point x="177" y="357"/>
      <point x="163.0" y="347.5" type="qcurve" smooth="yes" name="inserted"/>
      <point x="149" y="338"/>
      <point x="127" y="307"/>
      <point x="124" y="285" type="qcurve" smooth="yes"/>
      <point x="119" y="256"/>
      <point x="144" y="225"/>
      <point x="165.0" y="215.5" type="qcurve" smooth="yes" name="inserted"/>
      <point x="186" y="206"/>
      <point x="237" y="193"/>
      <point x="258.0" y="182.0" type="qcurve" smooth="yes" name="inserted"/>
      <point x="279" y="171"/>
      <point x="304" y="134"/>
      <point x="299" y="101" type="qcurve" smooth="yes"/>
      <point x="296" y="82"/>
      <point x="277" y="43"/>
      <point x="260.5" y="27.5" type="qcurve" smooth="yes" name="inserted"/>
      <point x="244" y="12"/>
      <point x="198" y="-8"/>
      <point x="168" y="-8" type="qcurve" smooth="yes"/>
      <point x="163" y="-8"/>
      <point x="136" y="-6"/>
      <point x="119.5" y="-3.0" type="qcurve" smooth="yes" name="inserted"/>
      <point x="103" y="0"/>
      <point x="70" y="14"/>
      <point x="59" y="26" type="qcurve"/>
      <point x="68" y="91" type="line"/>
    </contour>
  </outline>
</glyph>
<glyph name="t" format="1">
  <advance width="300"/>
  <unicode hex="0074"/>
  <outline>
    <contour>
      <point x="210" y="619" type="line"/>
      <point x="224" y="619" type="line"/>
      <point x="190" y="375" type="line"/>
      <point x="317" y="375" type="line"/>
      <point x="315" y="361" type="line"/>
      <point x="188" y="361" type="line"/>
      <point x="139" y="14" type="line"/>
      <point x="226" y="14" type="line"/>
      <point x="225" y="0" type="line"/>
      <point x="124" y="0" type="line"/>
      <point x="174" y="361" type="line"/>
      <point x="85" y="361" type="line"/>
      <point x="87" y="375" type="line"/>
      <point x="176" y="375" type="line"/>
    </contour>
  </outline>
</glyph>
<glyph name="u" format="1">
  <advance width="518"/>
  <unicode hex="0075"/>
  <outline>
    <contour>
      <point x="88" y="375" type="line"/>
      <point x="181" y="375" type="line"/>
      <point x="142" y="98" type="line"/>
      <point x="139" y="62"/>
      <point x="181" y="9"/>
      <point x="224" y="7" type="qcurve" smooth="yes"/>
      <point x="258" y="7"/>
      <point x="322" y="29"/>
      <point x="348.0" y="48.5" type="qcurve" smooth="yes" name="inserted"/>
      <point x="374" y="68"/>
      <point x="409" y="123"/>
      <point x="414" y="155" type="qcurve" smooth="yes"/>
      <point x="443" y="361" type="line"/>
      <point x="364" y="361" type="line"/>
      <point x="366" y="375" type="line"/>
      <point x="459" y="375" type="line"/>
      <point x="408" y="14" type="line"/>
      <point x="485" y="14" type="line"/>
      <point x="483" y="0" type="line"/>
      <point x="400" y="0" type="line"/>
      <point x="405" y="53" type="line"/>
      <point x="409" y="98" type="line"/>
      <point x="382" y="50"/>
      <point x="286" y="-7"/>
      <point x="230" y="-7" type="qcurve" smooth="yes"/>
      <point x="177" y="-7"/>
      <point x="124" y="55"/>
      <point x="129" y="105" type="qcurve" smooth="yes"/>
      <point x="165" y="361" type="line"/>
      <point x="86" y="361" type="line"/>
    </contour>
  </outline>
</glyph>
<glyph name="w" format="1">
  <advance width="860"/>
  <unicode hex="0077"/>
  <outline>
    <contour>
      <point x="741" y="375" type="line"/>
      <point x="880" y="375" type="line"/>
      <point x="878" y="361" type="line"/>
      <point x="814" y="361" type="line"/>
      <point x="752" y="264"/>
      <point x="630" y="74"/>
      <point x="570" y="-23" type="qcurve"/>
      <point x="472" y="251" type="line"/>
      <point x="298" y="-23" type="line"/>
      <point x="263" y="74"/>
      <point x="194" y="264"/>
      <point x="160" y="361" type="qcurve"/>
      <point x="88" y="361" type="line"/>
      <point x="90" y="375" type="line"/>
      <point x="251" y="375" type="line"/>
      <point x="249" y="361" type="line"/>
      <point x="175" y="361" type="line"/>
      <point x="207" y="272"/>
      <point x="270" y="96"/>
      <point x="302" y="8" type="qcurve"/>
      <point x="344" y="73"/>
      <point x="424" y="201"/>
      <point x="466" y="266" type="qcurve"/>
      <point x="457" y="289"/>
      <point x="440" y="337"/>
      <point x="432" y="361" type="qcurve"/>
      <point x="358" y="361" type="line"/>
      <point x="360" y="375" type="line"/>
      <point x="521" y="375" type="line"/>
      <point x="519" y="361" type="line"/>
      <point x="447" y="361" type="line"/>
      <point x="479" y="272"/>
      <point x="542" y="96"/>
      <point x="574" y="8" type="qcurve"/>
      <point x="631" y="97"/>
      <point x="742" y="272"/>
      <point x="799" y="361" type="qcurve"/>
      <point x="739" y="361" type="line"/>
    </contour>
  </outline>
</glyph>
<glyph name="y" format="2">
  <advance width="590"/>
  <unicode hex="0079"/>
  <outline>
    <contour>
      <point x="93" y="-236" type="line"/>
      <point x="174" y="-236" type="line"/>
      <point x="211" y="-178"/>
      <point x="286" y="-61"/>
      <point x="323" y="-4" type="qcurve"/>
      <point x="290" y="87"/>
      <point x="224" y="269"/>
      <point x="192" y="361" type="qcurve"/>
      <point x="120" y="361" type="line"/>
      <point x="122" y="375" type="line"/>
      <point x="283" y="375" type="line"/>
      <point x="281" y="361" type="line"/>
      <point x="210" y="361" type="line"/>
      <point x="241" y="273"/>
      <point x="303" y="101"/>
      <point x="335" y="14" type="qcurve"/>
      <point x="388" y="97"/>
      <point x="500" y="273"/>
      <point x="556" y="361" type="qcurve"/>
      <point x="501" y="361" type="line"/>
      <point x="503" y="375" type="line"/>
      <point x="642" y="375" type="line"/>
      <point x="640" y="361" type="line"/>
      <point x="574" y="361" type="line"/>
      <point x="477" y="211"/>
      <point x="289" y="-86"/>
      <point x="193" y="-236" type="qcurve"/>
      <point x="267" y="-236" type="line"/>
      <point x="266" y="-250" type="line"/>
      <point x="92" y="-250" type="line"/>
    </contour>
  </outline>
</glyph>
<glyph name="z" format="1">
  <advance width="429"/>
  <unicode hex="007A"/>
  <outline>
    <contour>
      <point x="403" y="65" type="line"/>
      <point x="394" y="0" type="line"/>
      <point x="35" y="0" type="line"/>
      <point x="36" y="14" type="line"/>
      <point x="133" y="102"/>
      <point x="313" y="273"/>
      <point x="409" y="361" type="qcurve"/>
      <point x="97" y="361" type="line"/>
      <point x="104" y="410" type="line"/>
      <point x="118" y="410" type="line"/>
      <point x="113" y="375" type="line"/>
      <point x="429" y="375" type="line"/>
      <point x="427" y="361" type="line"/>
      <point x="331" y="273"/>
      <point x="151" y="102"/>
      <point x="54" y="14" type="qcurve"/>
      <point x="381" y="14" type="line"/>
      <point x="389" y="65" type="line"/>
    </contour>
  </outline>
</glyph>
<glyph name="braceleft" format="2">
  <advance width="272"/>
  <unicode hex="007B"/>
  <outline>
    <contour>
      <point x="91" y="287" type="qcurve"/>
      <point x="95" y="311" type="line"/>
      <point x="119" y="312"/>
      <point x="153" y="339"/>
      <point x="165" y="359" type="qcurve" smooth="yes" name="inserted"/>
      <point x="177" y="379"/>
      <point x="190" y="426"/>
      <point x="193" y="446" type="qcurve" smooth="yes"/>
      <point x="218" y="628" type="line" smooth="yes"/>
      <point x="224" y="673"/>
      <point x="245" y="722"/>
      <point x="259" y="732" type="qcurve" smooth="yes" name="inserted"/>
      <point x="273" y="743"/>
      <point x="304" y="746"/>
      <point x="321" y="746" type="qcurve" smooth="yes"/>
      <point x="358" y="746" type="line"/>
      <point x="356" y="732" type="line"/>
      <point x="299" y="732" type="line" smooth="yes"/>
      <point x="288" y="732"/>
      <point x="270" y="726"/>
      <point x="263" y="719" type="qcurve" smooth="yes"/>
      <point x="251" y="707"/>
      <point x="236" y="658"/>
      <point x="231" y="620" type="qcurve" smooth="yes"/>
      <point x="210" y="470" type="line" smooth="yes"/>
      <point x="203" y="423"/>
      <point x="184" y="363"/>
      <point x="172" y="344" type="qcurve" smooth="yes" name="inserted"/>
      <point x="160" y="326"/>
      <point x="134" y="306"/>
      <point x="120" y="299" type="qcurve"/>
      <point x="129" y="292"/>
      <point x="146" y="277"/>
      <point x="152" y="266" type="qcurve" smooth="yes" name="inserted"/>
      <point x="163" y="248"/>
      <point x="170" y="184"/>
      <point x="162" y="128" type="qcurve" smooth="yes"/>
      <point x="141" y="-22" type="line" smooth="yes"/>
      <point x="136" y="-60"/>
      <point x="136" y="-110"/>
      <point x="145" y="-121" type="qcurve" smooth="yes"/>
      <point x="150" y="-128"/>
      <point x="166" y="-134"/>
      <point x="177" y="-134" type="qcurve" smooth="yes"/>
      <point x="234" y="-134" type="line"/>
      <point x="232" y="-148" type="line"/>
      <point x="195" y="-148" type="line" smooth="yes"/>
      <point x="179" y="-148"/>
      <point x="152" y="-143"/>
      <point x="143" y="-137" type="qcurve" smooth="yes" name="inserted"/>
      <point x="127" y="-126"/>
      <point x="120" y="-64"/>
      <point x="131" y="6" type="qcurve" smooth="yes"/>
      <point x="151" y="152" type="line" smooth="yes"/>
      <point x="155" y="175"/>
      <point x="153" y="235"/>
      <point x="141" y="256" type="qcurve" smooth="yes" name="inserted"/>
      <point x="134" y="269"/>
      <point x="109" y="286"/>
    </contour>
  </outline>
</glyph>
<glyph name="bar" format="1">
  <advance width="219"/>
  <unicode hex="007C"/>
  <outline>
    <contour>
      <point x="99" y="-232" type="line"/>
      <point x="229" y="700" type="line"/>
      <point x="243" y="700" type="line"/>
      <point x="113" y="-232" type="line"/>
    </contour>
  </outline>
</glyph>
<glyph name="braceright" format="1">
  <advance width="320"/>
  <unicode hex="007D"/>
  <outline>
    <contour>
      <point x="355" y="311" type="qcurve"/>
      <point x="351" y="287" type="line"/>
      <point x="319" y="285"/>
      <point x="281" y="244"/>
      <point x="270.5" y="216.5" type="qcurve" smooth="yes" name="inserted"/>
      <point x="260" y="189"/>
      <point x="251" y="133"/>
      <point x="248" y="116" type="qcurve" smooth="yes"/>
      <point x="228" y="-30" type="line" smooth="yes"/>
      <point x="222" y="-77"/>
      <point x="200" y="-125"/>
      <point x="186.5" y="-135.5" type="qcurve" smooth="yes" name="inserted"/>
      <point x="173" y="-146"/>
      <point x="141" y="-148"/>
      <point x="125" y="-148" type="qcurve" smooth="yes"/>
      <point x="88" y="-148" type="line"/>
      <point x="90" y="-134" type="line"/>
      <point x="147" y="-134" type="line" smooth="yes"/>
      <point x="178" y="-134"/>
      <point x="207" y="-82"/>
      <point x="215" y="-22" type="qcurve" smooth="yes"/>
      <point x="241" y="165" type="line" smooth="yes"/>
      <point x="245" y="199"/>
      <point x="265" y="245"/>
      <point x="277.5" y="260.5" type="qcurve" smooth="yes" name="inserted"/>
      <point x="290" y="276"/>
      <point x="315" y="294"/>
      <point x="326" y="299" type="qcurve"/>
      <point x="317" y="304"/>
      <point x="300" y="318"/>
      <point x="293.0" y="329.5" type="qcurve" smooth="yes" name="inserted"/>
      <point x="286" y="341"/>
      <point x="278" y="375"/>
      <point x="278" y="401" type="qcurve" smooth="yes"/>
      <point x="278.0" y="415.0" name="inserted"/>
      <point x="281.0" y="449.5"/>
      <point x="284" y="470" type="qcurve" smooth="yes"/>
      <point x="305" y="620" type="line" smooth="yes"/>
      <point x="307" y="637"/>
      <point x="310" y="665"/>
      <point x="310" y="676" type="qcurve" smooth="yes"/>
      <point x="310.0" y="704.0" name="inserted"/>
      <point x="289.5" y="732.0"/>
      <point x="269" y="732" type="qcurve" smooth="yes"/>
      <point x="212" y="732" type="line"/>
      <point x="214" y="746" type="line"/>
      <point x="251" y="746" type="line" smooth="yes"/>
      <point x="265" y="746"/>
      <point x="291" y="745"/>
      <point x="301.0" y="738.5" type="qcurve" smooth="yes" name="inserted"/>
      <point x="311" y="732"/>
      <point x="323" y="703"/>
      <point x="323" y="676" type="qcurve" smooth="yes"/>
      <point x="323.0" y="666.0" name="inserted"/>
      <point x="321.5" y="642.0"/>
      <point x="320" y="628" type="qcurve" smooth="yes"/>
      <point x="300" y="482" type="line" smooth="yes"/>
      <point x="298" y="468"/>
      <point x="292" y="428"/>
      <point x="292" y="406" type="qcurve" smooth="yes"/>
      <point x="292" y="389"/>
      <point x="297" y="355"/>
      <point x="304.0" y="342.0" type="qcurve" smooth="yes" name="inserted"/>
      <point x="311" y="329"/>
      <point x="336" y="312"/>
    </contour>
  </outline>
</glyph>
<glyph name="asciitilde" format="1">
  <advance width="489"/>
  <unicode hex="007E"/>
  <outline>
    <contour>
      <point x="270" y="497" type="qcurve" smooth="yes"/>
      <point x="256" y="515"/>
      <point x="234" y="527"/>
      <point x="220" y="527" type="qcurve" smooth="yes"/>
      <point x="212" y="527"/>
      <point x="190" y="522"/>
      <point x="179.5" y="516.0" type="qcurve" smooth="yes" name="inserted"/>
      <point x="169" y="510"/>
      <point x="150" y="489"/>
      <point x="146" y="472" type="qcurve"/>
      <point x="143" y="473"/>
      <point x="136" y="473"/>
      <point x="134" y="474" type="qcurve"/>
      <point x="141" y="511"/>
      <point x="197" y="541"/>
      <point x="225" y="541" type="qcurve" smooth="yes"/>
      <point x="245" y="541"/>
      <point x="275" y="520"/>
      <point x="289" y="503" type="qcurve"/>
      <point x="302" y="485"/>
      <point x="324" y="473"/>
      <point x="338" y="473" type="qcurve" smooth="yes"/>
      <point x="346" y="473"/>
      <point x="368" y="478"/>
      <point x="379.0" y="484.0" type="qcurve" smooth="yes" name="inserted"/>
      <point x="390" y="490"/>
      <point x="408" y="511"/>
      <point x="412" y="528" type="qcurve"/>
      <point x="415" y="527"/>
      <point x="422" y="527"/>
      <point x="425" y="526" type="qcurve"/>
      <point x="417" y="489"/>
      <point x="362" y="459"/>
      <point x="334" y="459" type="qcurve" smooth="yes"/>
      <point x="314" y="459"/>
      <point x="284" y="480"/>
    </contour>
  </outline>
</glyph>
<glyph name="exclamdown" format="1">
  <advance width="200"/>
  <unicode hex="00A1"/>
  <outline>
    <contour>
      <point x="204" y="504" type="qcurve" smooth="yes"/>
      <point x="212" y="504"/>
      <point x="222" y="492"/>
      <point x="221" y="484" type="qcurve"/>
      <point x="219" y="475"/>
      <point x="206" y="464"/>
      <point x="198" y="464" type="qcurve" smooth="yes"/>
      <point x="191" y="464"/>
      <point x="180" y="475"/>
      <point x="182" y="484" type="qcurve"/>
      <point x="183" y="492"/>
      <point x="197" y="504"/>
    </contour>
    <contour>
      <point x="179" y="374" type="line"/>
      <point x="193" y="374" type="line"/>
      <point x="111" y="-210" type="line"/>
      <point x="97" y="-210" type="line"/>
    </contour>
  </outline>
</glyph>
<glyph name="cent" format="1">
  <advance width="385"/>
  <unicode hex="00A2"/>
  <outline>
    <contour>
      <point x="359" y="47" type="qcurve"/>
      <point x="367" y="37" type="line"/>
      <point x="338" y="17"/>
      <point x="272" y="-6"/>
      <point x="237" y="-6" type="qcurve"/>
      <point x="229" y="-68" type="line"/>
      <point x="215" y="-68" type="line"/>
      <point x="223" y="-5" type="line"/>
      <point x="185" y="-2"/>
      <point x="125" y="30"/>
      <point x="104.5" y="55.5" type="qcurve" smooth="yes" name="inserted"/>
      <point x="84" y="81"/>
      <point x="66" y="149"/>
      <point x="71" y="188" type="qcurve" smooth="yes"/>
      <point x="77" y="227"/>
      <point x="114" y="295"/>
      <point x="142.0" y="321.0" type="qcurve" smooth="yes" name="inserted"/>
      <point x="170" y="347"/>
      <point x="240" y="379"/>
      <point x="278" y="382" type="qcurve"/>
      <point x="286" y="438" type="line"/>
      <point x="300" y="438" type="line"/>
      <point x="292" y="383" type="line"/>
      <point x="327" y="383"/>
      <point x="388" y="360"/>
      <point x="410" y="340" type="qcurve"/>
      <point x="409.5" y="339.5" name="inserted"/>
      <point x="409.0" y="339.0"/>
      <point x="409" y="339" type="qcurve"/>
      <point x="410" y="339" type="line"/>
      <point x="397" y="252" type="line"/>
      <point x="383" y="252" type="line"/>
      <point x="395" y="332" type="line"/>
      <point x="374" y="349"/>
      <point x="321" y="369"/>
      <point x="290" y="369" type="qcurve"/>
      <point x="239" y="8" type="line"/>
      <point x="271" y="8"/>
      <point x="333" y="29"/>
    </contour>
    <contour>
      <point x="85" y="188" type="qcurve" smooth="yes"/>
      <point x="80" y="152"/>
      <point x="97" y="89"/>
      <point x="115.5" y="65.0" type="qcurve" smooth="yes" name="inserted"/>
      <point x="134" y="41"/>
      <point x="190" y="11"/>
      <point x="225" y="8" type="qcurve"/>
      <point x="276" y="368" type="line"/>
      <point x="241" y="365"/>
      <point x="176" y="335"/>
      <point x="150.5" y="311.0" type="qcurve" smooth="yes" name="inserted"/>
      <point x="125" y="287"/>
      <point x="90" y="224"/>
    </contour>
  </outline>
</glyph>
<glyph name="sterling" format="2">
  <advance width="574"/>
  <unicode hex="00A3"/>
  <outline>
    <contour>
      <point x="486" y="0" type="line"/>
      <point x="26" y="0" type="line"/>
      <point x="27" y="14" type="line"/>
      <point x="71" y="14" type="line" smooth="yes"/>
      <point x="89" y="14"/>
      <point x="112" y="29"/>
      <point x="119.5" y="46" type="qcurve" smooth="yes" name="inserted"/>
      <point x="127" y="63"/>
      <point x="139" y="121"/>
      <point x="145" y="164" type="qcurve" smooth="yes"/>
      <point x="165" y="311" type="line"/>
      <point x="100" y="311" type="line"/>
      <point x="102" y="325" type="line"/>
      <point x="167" y="325" type="line"/>
      <point x="192" y="500" type="line" smooth="yes"/>
      <point x="202" y="570"/>
      <point x="298" y="634"/>
      <point x="370" y="634" type="qcurve" smooth="yes"/>
      <point x="403" y="634"/>
      <point x="451" y="621"/>
      <point x="468" y="609.5" type="qcurve" smooth="yes" name="inserted"/>
      <point x="485" y="598"/>
      <point x="506" y="565"/>
      <point x="513" y="545" type="qcurve"/>
      <point x="502" y="539" type="line"/>
      <point x="493" y="563"/>
      <point x="471" y="594"/>
      <point x="455.5" y="603" type="qcurve" smooth="yes" name="inserted"/>
      <point x="440" y="612"/>
      <point x="398" y="620"/>
      <point x="368" y="620" type="qcurve" smooth="yes"/>
      <point x="326" y="620"/>
      <point x="267" y="601"/>
      <point x="248" y="585" type="qcurve" smooth="yes" name="inserted"/>
      <point x="229" y="569"/>
      <point x="209" y="527"/>
      <point x="206" y="504" type="qcurve" smooth="yes"/>
      <point x="181" y="325" type="line"/>
      <point x="310" y="325" type="line"/>
      <point x="308" y="311" type="line"/>
      <point x="179" y="311" type="line"/>
      <point x="151" y="109" type="line" smooth="yes"/>
      <point x="146" y="80"/>
      <point x="131" y="28"/>
      <point x="114" y="14" type="qcurve"/>
      <point x="473" y="14" type="line"/>
      <point x="489" y="123" type="line"/>
      <point x="503" y="123" type="line"/>
    </contour>
  </outline>
</glyph>
<glyph name="currency" format="2">
  <advance width="500"/>
  <unicode hex="00A4"/>
  <outline>
    <contour>
      <point x="148" y="361" type="qcurve" smooth="yes"/>
      <point x="145" y="336"/>
      <point x="157" y="293"/>
      <point x="171" y="277" type="qcurve" smooth="yes" name="inserted"/>
      <point x="185" y="261"/>
      <point x="226" y="242"/>
      <point x="250" y="242" type="qcurve" smooth="yes"/>
      <point x="274" y="242"/>
      <point x="320" y="261"/>
      <point x="338" y="277" type="qcurve" smooth="yes" name="inserted"/>
      <point x="356" y="293"/>
      <point x="381" y="336"/>
      <point x="384" y="361" type="qcurve" smooth="yes"/>
      <point x="388" y="386"/>
      <point x="375" y="429"/>
      <point x="361.5" y="445" type="qcurve" smooth="yes" name="inserted"/>
      <point x="348" y="461"/>
      <point x="307" y="480"/>
      <point x="283" y="480" type="qcurve" smooth="yes"/>
      <point x="259" y="480"/>
      <point x="213" y="461"/>
      <point x="195" y="445" type="qcurve" smooth="yes" name="inserted"/>
      <point x="177" y="429"/>
      <point x="152" y="386"/>
    </contour>
    <contour>
      <point x="134" y="361" type="qcurve" smooth="yes"/>
      <point x="138" y="386"/>
      <point x="161" y="430"/>
      <point x="179" y="448" type="qcurve"/>
      <point x="171" y="458"/>
      <point x="154" y="476"/>
      <point x="146" y="486" type="qcurve"/>
      <point x="157" y="496" type="line"/>
      <point x="190" y="458" type="line"/>
      <point x="210" y="475"/>
      <point x="259" y="494"/>
      <point x="285" y="494" type="qcurve" smooth="yes"/>
      <point x="311" y="494"/>
      <point x="355" y="474"/>
      <point x="370" y="457" type="qcurve"/>
      <point x="413" y="495" type="line"/>
      <point x="422" y="485" type="line"/>
      <point x="379" y="447" type="line"/>
      <point x="391" y="430"/>
      <point x="402" y="386"/>
      <point x="398" y="361" type="qcurve" smooth="yes"/>
      <point x="395" y="335"/>
      <point x="369" y="289"/>
      <point x="351" y="271" type="qcurve"/>
      <point x="386" y="230" type="line"/>
      <point x="375" y="220" type="line"/>
      <point x="366" y="231"/>
      <point x="348" y="250"/>
      <point x="339" y="261" type="qcurve"/>
      <point x="318.5" y="244.5" name="inserted"/>
      <point x="273" y="228"/>
      <point x="248" y="228" type="qcurve" smooth="yes"/>
      <point x="222.5" y="228" name="inserted"/>
      <point x="181" y="244"/>
      <point x="165" y="260" type="qcurve"/>
      <point x="119" y="219" type="line"/>
      <point x="110" y="229" type="line"/>
      <point x="157" y="270" type="line"/>
      <point x="142.5" y="288.5" name="inserted"/>
      <point x="131" y="334"/>
    </contour>
  </outline>
</glyph>
<glyph name="yen" format="1">
  <advance width="718"/>
  <unicode hex="00A5"/>
  <outline>
    <contour>
      <point x="539" y="100" type="line"/>
      <point x="380" y="100" type="line"/>
      <point x="367" y="14" type="line"/>
      <point x="448" y="14" type="line"/>
      <point x="447" y="0" type="line"/>
      <point x="273" y="0" type="line"/>
      <point x="274" y="14" type="line"/>
      <point x="353" y="14" type="line"/>
      <point x="366" y="100" type="line"/>
      <point x="206" y="100" type="line"/>
      <point x="208" y="114" type="line"/>
      <point x="368" y="114" type="line"/>
      <point x="388" y="263" type="line"/>
      <point x="228" y="263" type="line"/>
      <point x="230" y="277" type="line"/>
      <point x="381" y="277" type="line"/>
      <point x="193" y="686" type="line"/>
      <point x="131" y="686" type="line"/>
      <point x="133" y="700" type="line"/>
      <point x="307" y="700" type="line"/>
      <point x="305" y="686" type="line"/>
      <point x="210" y="686" type="line"/>
      <point x="255" y="589"/>
      <point x="348" y="398"/>
      <point x="388" y="298" type="qcurve" smooth="yes"/>
      <point x="397" y="272" type="line"/>
      <point x="398" y="272" type="line"/>
      <point x="412" y="298" type="line"/>
      <point x="698" y="686" type="line"/>
      <point x="605" y="686" type="line"/>
      <point x="607" y="700" type="line"/>
      <point x="781" y="700" type="line"/>
      <point x="779" y="686" type="line"/>
      <point x="715" y="686" type="line"/>
      <point x="640" y="583"/>
      <point x="489" y="380"/>
      <point x="413" y="277" type="qcurve"/>
      <point x="563" y="277" type="line"/>
      <point x="561" y="263" type="line"/>
      <point x="402" y="263" type="line"/>
      <point x="382" y="114" type="line"/>
      <point x="541" y="114" type="line"/>
    </contour>
  </outline>
</glyph>
<glyph name="brokenbar" format="1">
  <advance width="215"/>
  <unicode hex="00A6"/>
  <outline>
    <contour>
      <point x="116" y="-233" type="line"/>
      <point x="102" y="-233" type="line"/>
      <point x="151" y="117" type="line"/>
      <point x="165" y="117" type="line"/>
    </contour>
    <contour>
      <point x="197" y="350" type="line"/>
      <point x="183" y="350" type="line"/>
      <point x="233" y="700" type="line"/>
      <point x="247" y="700" type="line"/>
    </contour>
  </outline>
</glyph>
<glyph name="section" format="2">
  <advance width="500"/>
  <unicode hex="00A7"/>
  <outline>
    <contour>
      <point x="218" y="311" type="qcurve" smooth="yes"/>
      <point x="229" y="286"/>
      <point x="272" y="262"/>
      <point x="299" y="262" type="qcurve" smooth="yes"/>
      <point x="321" y="262"/>
      <point x="361" y="281"/>
      <point x="376" y="297" type="qcurve" smooth="yes" name="inserted"/>
      <point x="390" y="313"/>
      <point x="407" y="351"/>
      <point x="407" y="371" type="qcurve" smooth="yes"/>
      <point x="407" y="393"/>
      <point x="391" y="427"/>
      <point x="377" y="438" type="qcurve" smooth="yes"/>
      <point x="364" y="449"/>
      <point x="332" y="459"/>
      <point x="315" y="459" type="qcurve" smooth="yes"/>
      <point x="290" y="459"/>
      <point x="252" y="438"/>
      <point x="238" y="422" type="qcurve" smooth="yes" name="inserted"/>
      <point x="225" y="406"/>
      <point x="211" y="367"/>
      <point x="211" y="348" type="qcurve" smooth="yes"/>
      <point x="211" y="337" name="inserted"/>
      <point x="214" y="318"/>
    </contour>
    <contour>
      <point x="271" y="154" type="qcurve" smooth="yes"/>
      <point x="205" y="304" type="line" smooth="yes"/>
      <point x="200.5" y="314.5" name="inserted"/>
      <point x="196.0" y="336.0"/>
      <point x="196" y="347" type="qcurve" smooth="yes"/>
      <point x="196" y="369"/>
      <point x="214" y="413"/>
      <point x="230.5" y="431.0" type="qcurve" smooth="yes" name="inserted"/>
      <point x="247" y="449"/>
      <point x="293" y="472"/>
      <point x="320" y="472" type="qcurve" smooth="yes"/>
      <point x="336.5" y="472.0" name="inserted"/>
      <point x="365.5" y="464.0"/>
      <point x="378" y="456" type="qcurve"/>
      <point x="367" y="480"/>
      <point x="343" y="534"/>
      <point x="333.0" y="559.5" type="qcurve" smooth="yes" name="inserted"/>
      <point x="323" y="585"/>
      <point x="310" y="629"/>
      <point x="310" y="642" type="qcurve" smooth="yes"/>
      <point x="310" y="661"/>
      <point x="327" y="688"/>
      <point x="340.5" y="697.5" type="qcurve" smooth="yes" name="inserted"/>
      <point x="354" y="707"/>
      <point x="387" y="722"/>
      <point x="402" y="730" type="qcurve"/>
      <point x="403" y="728"/>
      <point x="405" y="722"/>
      <point x="407" y="718" type="qcurve"/>
      <point x="393" y="710"/>
      <point x="364" y="697"/>
      <point x="351.5" y="688.5" type="qcurve" smooth="yes" name="inserted"/>
      <point x="339" y="680"/>
      <point x="323" y="659"/>
      <point x="323" y="643" type="qcurve" smooth="yes"/>
      <point x="323" y="628"/>
      <point x="341" y="574"/>
      <point x="354.5" y="542.0" type="qcurve" smooth="yes" name="inserted"/>
      <point x="368" y="510"/>
      <point x="399" y="443"/>
      <point x="412" y="415" type="qcurve" smooth="yes"/>
      <point x="416.5" y="404.5" name="inserted"/>
      <point x="421.0" y="383.5"/>
      <point x="421" y="373" type="qcurve" smooth="yes"/>
      <point x="421" y="351"/>
      <point x="402" y="306"/>
      <point x="384.5" y="288.0" type="qcurve" smooth="yes" name="inserted"/>
      <point x="367" y="270"/>
      <point x="321" y="247"/>
      <point x="294" y="247" type="qcurve" smooth="yes"/>
      <point x="278.5" y="247.0" name="inserted"/>
      <point x="250.5" y="255.5"/>
      <point x="238" y="264" type="qcurve"/>
      <point x="287" y="154" type="line" smooth="yes"/>
      <point x="298" y="130"/>
      <point x="306" y="92"/>
      <point x="306" y="79" type="qcurve" smooth="yes"/>
      <point x="306" y="59"/>
      <point x="289" y="32"/>
      <point x="275.5" y="21.5" type="qcurve" smooth="yes" name="inserted"/>
      <point x="262" y="11"/>
      <point x="230" y="-4"/>
      <point x="216" y="-10" type="qcurve"/>
      <point x="210" y="2" type="line"/>
      <point x="223" y="9"/>
      <point x="253" y="23"/>
      <point x="265.5" y="31.0" type="qcurve" smooth="yes" name="inserted"/>
      <point x="278" y="39"/>
      <point x="294" y="61"/>
      <point x="294" y="77" type="qcurve" smooth="yes"/>
      <point x="294.0" y="90.0" name="inserted"/>
      <point x="282.5" y="128.5"/>
    </contour>
  </outline>
</glyph>
<glyph name="copyright" format="1">
  <advance width="793"/>
  <unicode hex="00A9"/>
  <outline>
    <contour>
      <point x="400" y="132" type="qcurve" smooth="yes"/>
      <point x="450" y="132"/>
      <point x="543" y="168"/>
      <point x="580.5" y="200.5" type="qcurve" smooth="yes" name="inserted"/>
      <point x="618" y="233"/>
      <point x="669" y="320"/>
      <point x="676" y="371" type="qcurve" smooth="yes"/>
      <point x="683" y="423"/>
      <point x="658" y="512"/>
      <point x="629.5" y="544.5" type="qcurve" smooth="yes" name="inserted"/>
      <point x="601" y="577"/>
      <point x="518" y="613"/>
      <point x="468" y="613" type="qcurve" smooth="yes"/>
      <point x="419" y="613"/>
      <point x="327" y="577"/>
      <point x="289.5" y="544.5" type="qcurve" smooth="yes" name="inserted"/>
      <point x="252" y="512"/>
      <point x="201" y="423"/>
      <point x="194" y="371" type="qcurve" smooth="yes"/>
      <point x="187" y="320"/>
      <point x="213" y="233"/>
      <point x="241.0" y="200.5" type="qcurve" smooth="yes" name="inserted"/>
      <point x="269" y="168"/>
      <point x="351" y="132"/>
    </contour>
    <contour>
      <point x="400" y="118" type="qcurve" smooth="yes"/>
      <point x="346" y="118"/>
      <point x="258" y="156"/>
      <point x="228.5" y="190.0" type="qcurve" smooth="yes" name="inserted"/>
      <point x="199" y="224"/>
      <point x="172" y="317"/>
      <point x="180" y="372" type="qcurve" smooth="yes"/>
      <point x="188" y="427"/>
      <point x="240" y="521"/>
      <point x="279.0" y="555.0" type="qcurve" smooth="yes" name="inserted"/>
      <point x="318" y="589"/>
      <point x="417" y="627"/>
      <point x="471" y="627" type="qcurve" smooth="yes"/>
      <point x="525" y="627"/>
      <point x="613" y="589"/>
      <point x="642.5" y="555.0" type="qcurve" smooth="yes" name="inserted"/>
      <point x="672" y="521"/>
      <point x="698" y="427"/>
      <point x="690" y="372" type="qcurve" smooth="yes"/>
      <point x="682" y="317"/>
      <point x="630" y="224"/>
      <point x="591.0" y="190.0" type="qcurve" smooth="yes" name="inserted"/>
      <point x="552" y="156"/>
      <point x="454" y="118"/>
    </contour>
    <contour>
      <point x="530" y="464" type="line"/>
      <point x="537" y="511" type="line"/>
      <point x="521.0" y="521.0" name="inserted"/>
      <point x="484.0" y="531.0"/>
      <point x="463" y="531" type="qcurve" smooth="yes"/>
      <point x="431" y="531"/>
      <point x="371" y="506"/>
      <point x="347.0" y="484.5" type="qcurve" smooth="yes" name="inserted"/>
      <point x="323" y="463"/>
      <point x="291" y="406"/>
      <point x="287" y="374" type="qcurve" smooth="yes"/>
      <point x="282" y="342"/>
      <point x="299" y="286"/>
      <point x="316.5" y="265.0" type="qcurve" smooth="yes" name="inserted"/>
      <point x="334" y="244"/>
      <point x="386" y="220"/>
      <point x="418" y="220" type="qcurve" smooth="yes"/>
      <point x="440" y="220"/>
      <point x="482" y="231"/>
      <point x="501" y="241" type="qcurve"/>
      <point x="505" y="236" type="line"/>
      <point x="485" y="225"/>
      <point x="442" y="213"/>
      <point x="419" y="213" type="qcurve" smooth="yes"/>
      <point x="386" y="213"/>
      <point x="330" y="239"/>
      <point x="311.5" y="261.0" type="qcurve" smooth="yes" name="inserted"/>
      <point x="293" y="283"/>
      <point x="275" y="342"/>
      <point x="280" y="375" type="qcurve" smooth="yes"/>
      <point x="285" y="409"/>
      <point x="319" y="468"/>
      <point x="343.5" y="490.0" type="qcurve" smooth="yes" name="inserted"/>
      <point x="368" y="512"/>
      <point x="431" y="537"/>
      <point x="464" y="537" type="qcurve" smooth="yes"/>
      <point x="486.5" y="537.0" name="inserted"/>
      <point x="526.5" y="526.0"/>
      <point x="544" y="515" type="qcurve"/>
      <point x="537" y="464" type="line"/>
    </contour>
  </outline>
</glyph>
<glyph name="guillemotleft" format="2">
  <advance width="601"/>
  <unicode hex="00AB"/>
  <outline>
    <contour>
      <point x="459" y="77" type="line"/>
      <point x="310" y="239" type="line"/>
      <point x="359" y="280"/>
      <point x="455" y="359"/>
      <point x="504" y="400" type="qcurve"/>
      <point x="502" y="383" type="line"/>
      <point x="461" y="347"/>
      <point x="380" y="275"/>
      <point x="339" y="239" type="qcurve"/>
      <point x="369" y="202"/>
      <point x="431" y="130"/>
      <point x="461" y="93" type="qcurve"/>
    </contour>
    <contour>
      <point x="288" y="77" type="line"/>
      <point x="139" y="239" type="line"/>
      <point x="188" y="280"/>
      <point x="284" y="359"/>
      <point x="333" y="400" type="qcurve"/>
      <point x="331" y="383" type="line"/>
      <point x="290" y="347"/>
      <point x="209" y="275"/>
      <point x="168" y="239" type="qcurve"/>
      <point x="198" y="202"/>
      <point x="260" y="130"/>
      <point x="290" y="93" type="qcurve"/>
    </contour>
  </outline>
</glyph>
<glyph name="logicalnot" format="2">
  <advance width="559"/>
  <unicode hex="00AC"/>
  <outline>
    <contour>
      <point x="446" y="148" type="line"/>
      <point x="457" y="227" type="line"/>
      <point x="111" y="227" type="line"/>
      <point x="113" y="241" type="line"/>
      <point x="473" y="241" type="line"/>
      <point x="460" y="148" type="line"/>
    </contour>
  </outline>
</glyph>
<glyph name="registered" format="2">
  <advance width="801"/>
  <unicode hex="00AE"/>
  <outline>
    <contour>
      <point x="400" y="132" type="qcurve" smooth="yes"/>
      <point x="450" y="132"/>
      <point x="543" y="168"/>
      <point x="580.5" y="200.5" type="qcurve" smooth="yes" name="inserted"/>
      <point x="618" y="233"/>
      <point x="669" y="320"/>
      <point x="676" y="371" type="qcurve" smooth="yes"/>
      <point x="683" y="423"/>
      <point x="658" y="512"/>
      <point x="629.5" y="544.5" type="qcurve" smooth="yes" name="inserted"/>
      <point x="601" y="577"/>
      <point x="518" y="613"/>
      <point x="468" y="613" type="qcurve" smooth="yes"/>
      <point x="419" y="613"/>
      <point x="327" y="577"/>
      <point x="289.5" y="544.5" type="qcurve" smooth="yes" name="inserted"/>
      <point x="252" y="512"/>
      <point x="201" y="423"/>
      <point x="194" y="371" type="qcurve" smooth="yes"/>
      <point x="187" y="320"/>
      <point x="213" y="233"/>
      <point x="241.0" y="200.5" type="qcurve" smooth="yes" name="inserted"/>
      <point x="269" y="168"/>
      <point x="351" y="132"/>
    </contour>
    <contour>
      <point x="400" y="118" type="qcurve" smooth="yes"/>
      <point x="346" y="118"/>
      <point x="258" y="156"/>
      <point x="228.5" y="190.0" type="qcurve" smooth="yes" name="inserted"/>
      <point x="199" y="224"/>
      <point x="172" y="317"/>
      <point x="180" y="372" type="qcurve" smooth="yes"/>
      <point x="188" y="427"/>
      <point x="240" y="521"/>
      <point x="279.0" y="555.0" type="qcurve" smooth="yes" name="inserted"/>
      <point x="318" y="589"/>
      <point x="417" y="627"/>
      <point x="471" y="627" type="qcurve" smooth="yes"/>
      <point x="525" y="627"/>
      <point x="613" y="589"/>
      <point x="642.5" y="555.0" type="qcurve" smooth="yes" name="inserted"/>
      <point x="672" y="521"/>
      <point x="698" y="427"/>
      <point x="690" y="372" type="qcurve" smooth="yes"/>
      <point x="682" y="317"/>
      <point x="630" y="224"/>
      <point x="591.0" y="190.0" type="qcurve" smooth="yes" name="inserted"/>
      <point x="552" y="156"/>
      <point x="454" y="118"/>
    </contour>
    <contour>
      <point x="311" y="217" type="line"/>
      <point x="344" y="217" type="line"/>
      <point x="389" y="534" type="line"/>
      <point x="356" y="534" type="line"/>
      <point x="357" y="541" type="line"/>
      <point x="456" y="541" type="line" smooth="yes"/>
      <point x="470" y="541"/>
      <point x="502" y="532"/>
      <point x="514.5" y="521.5" type="qcurve" smooth="yes" name="inserted"/>
      <point x="527" y="511"/>
      <point x="542" y="479"/>
      <point x="539" y="457" type="qcurve" smooth="yes"/>
      <point x="534" y="424"/>
      <point x="491" y="381"/>
      <point x="455" y="374" type="qcurve"/>
      <point x="507" y="217" type="line"/>
      <point x="546" y="217" type="line"/>
      <point x="546" y="210" type="line"/>
      <point x="503" y="210" type="line"/>
      <point x="448" y="373" type="line"/>
      <point x="443" y="372"/>
      <point x="431" y="371"/>
      <point x="426" y="371" type="qcurve" smooth="yes"/>
      <point x="373" y="371" type="line"/>
      <point x="351" y="217" type="line"/>
      <point x="393" y="217" type="line"/>
      <point x="393" y="210" type="line"/>
      <point x="311" y="210" type="line"/>
    </contour>
    <contour>
      <point x="374" y="378" type="line"/>
      <point x="428" y="378" type="line" smooth="yes"/>
      <point x="455" y="378"/>
      <point x="494" y="393"/>
      <point x="506.0" y="404.5" type="qcurve" smooth="yes" name="inserted"/>
      <point x="518" y="416"/>
      <point x="530" y="444"/>
      <point x="532" y="457" type="qcurve" smooth="yes"/>
      <point x="537" y="488"/>
      <point x="490" y="534"/>
      <point x="451" y="534" type="qcurve" smooth="yes"/>
      <point x="396" y="534" type="line"/>
    </contour>
  </outline>
</glyph>
<glyph name="macron" format="2">
  <advance width="399"/>
  <unicode hex="00AF"/>
  <outline>
    <contour>
      <point x="85" y="492" type="line"/>
      <point x="86" y="506" type="line"/>
      <point x="316" y="506" type="line"/>
      <point x="315" y="492" type="line"/>
    </contour>
  </outline>
</glyph>
<glyph name="degree" format="1">
  <advance width="282"/>
  <unicode hex="00B0"/>
  <outline>
    <contour>
      <point x="139" y="498" type="qcurve" smooth="yes"/>
      <point x="165" y="498"/>
      <point x="206" y="534"/>
      <point x="210" y="560" type="qcurve" smooth="yes"/>
      <point x="214" y="586"/>
      <point x="183" y="622"/>
      <point x="157" y="622" type="qcurve" smooth="yes"/>
      <point x="131" y="622"/>
      <point x="89" y="586"/>
      <point x="85" y="560" type="qcurve" smooth="yes"/>
      <point x="81" y="534"/>
      <point x="113" y="498"/>
    </contour>
    <contour>
      <point x="71" y="559" type="qcurve" smooth="yes"/>
      <point x="76" y="592"/>
      <point x="126" y="636"/>
      <point x="159" y="636" type="qcurve" smooth="yes"/>
      <point x="191" y="636"/>
      <point x="229" y="592"/>
      <point x="224" y="559" type="qcurve" smooth="yes"/>
      <point x="219" y="527"/>
      <point x="170" y="484"/>
      <point x="138" y="484" type="qcurve" smooth="yes"/>
      <point x="105" y="484"/>
      <point x="66" y="527"/>
    </contour>
  </outline>
</glyph>
<glyph name="twosuperior" format="1">
  <advance width="398"/>
  <unicode hex="00B2"/>
  <outline>
    <contour>
      <point x="98" y="382" type="qcurve"/>
      <point x="269" y="382" type="line"/>
      <point x="277" y="438" type="line"/>
      <point x="284" y="438" type="line"/>
      <point x="275" y="375" type="line"/>
      <point x="79" y="375" type="line"/>
      <point x="115" y="406"/>
      <point x="184" y="465"/>
      <point x="211.0" y="493.5" type="qcurve" smooth="yes" name="inserted"/>
      <point x="238" y="522"/>
      <point x="274" y="575"/>
      <point x="277" y="598" type="qcurve" smooth="yes"/>
      <point x="281" y="626"/>
      <point x="271" y="662"/>
      <point x="260.5" y="673.0" type="qcurve" smooth="yes" name="inserted"/>
      <point x="250" y="684"/>
      <point x="223" y="693"/>
      <point x="211" y="693" type="qcurve" smooth="yes"/>
      <point x="186" y="693"/>
      <point x="152" y="676"/>
      <point x="141.0" y="663.0" type="qcurve" smooth="yes" name="inserted"/>
      <point x="130" y="650"/>
      <point x="119" y="619"/>
      <point x="117" y="607" type="qcurve" smooth="yes"/>
      <point x="114.5" y="589.5" name="inserted"/>
      <point x="120.5" y="561.0"/>
      <point x="129" y="550" type="qcurve"/>
      <point x="124" y="546" type="line"/>
      <point x="116" y="558"/>
      <point x="108" y="586"/>
      <point x="110" y="607" type="qcurve"/>
      <point x="113" y="626"/>
      <point x="130" y="660"/>
      <point x="142.5" y="673.0" type="qcurve" smooth="yes" name="inserted"/>
      <point x="155" y="686"/>
      <point x="190" y="700"/>
      <point x="212" y="700" type="qcurve" smooth="yes"/>
      <point x="231" y="700"/>
      <point x="261" y="686"/>
      <point x="270.5" y="673.0" type="qcurve" smooth="yes" name="inserted"/>
      <point x="280" y="660"/>
      <point x="288" y="625"/>
      <point x="285" y="604" type="qcurve" smooth="yes"/>
      <point x="281" y="576"/>
      <point x="243" y="519"/>
      <point x="216.5" y="491.0" type="qcurve" smooth="yes" name="inserted"/>
      <point x="190" y="463"/>
      <point x="128" y="409"/>
    </contour>
  </outline>
</glyph>
<glyph name="threesuperior" format="1">
  <advance width="419"/>
  <unicode hex="00B3"/>
  <outline>
    <contour>
      <point x="140" y="558" type="qcurve"/>
      <point x="264" y="693" type="line"/>
      <point x="129" y="693" type="line"/>
      <point x="124" y="660" type="line"/>
      <point x="118" y="660" type="line"/>
      <point x="123" y="700" type="line"/>
      <point x="281" y="700" type="line"/>
      <point x="165" y="576" type="line"/>
      <point x="188" y="577"/>
      <point x="225" y="563"/>
      <point x="238.5" y="549.5" type="qcurve" smooth="yes" name="inserted"/>
      <point x="252" y="536"/>
      <point x="264" y="498"/>
      <point x="261" y="476" type="qcurve" smooth="yes"/>
      <point x="258" y="455"/>
      <point x="237" y="419"/>
      <point x="221.5" y="405.5" type="qcurve" smooth="yes" name="inserted"/>
      <point x="206" y="392"/>
      <point x="167" y="376"/>
      <point x="146" y="376" type="qcurve" smooth="yes"/>
      <point x="124" y="376"/>
      <point x="89" y="394"/>
      <point x="78" y="409" type="qcurve"/>
      <point x="83" y="415" type="line"/>
      <point x="93" y="401"/>
      <point x="125" y="383"/>
      <point x="146" y="383" type="qcurve" smooth="yes"/>
      <point x="165" y="383"/>
      <point x="202" y="398"/>
      <point x="216.5" y="410.5" type="qcurve" smooth="yes" name="inserted"/>
      <point x="231" y="423"/>
      <point x="251" y="457"/>
      <point x="254" y="476" type="qcurve" smooth="yes"/>
      <point x="257" y="495"/>
      <point x="246" y="529"/>
      <point x="235.0" y="541.5" type="qcurve" smooth="yes" name="inserted"/>
      <point x="224" y="554"/>
      <point x="191" y="569"/>
      <point x="172" y="569" type="qcurve" smooth="yes"/>
      <point x="164" y="569"/>
      <point x="148" y="563"/>
    </contour>
  </outline>
</glyph>
<glyph name="acute" format="2">
  <advance width="218"/>
  <unicode hex="00B4"/>
  <outline>
    <contour>
      <point x="100" y="479" type="line"/>
      <point x="127" y="512"/>
      <point x="181" y="579"/>
      <point x="208" y="612" type="qcurve"/>
      <point x="224" y="612" type="line"/>
      <point x="197" y="579"/>
      <point x="143" y="512"/>
      <point x="116" y="479" type="qcurve"/>
    </contour>
  </outline>
</glyph>
<glyph name="mu" format="2">
  <advance width="521"/>
  <unicode hex="00B5"/>
  <outline>
    <contour>
      <point x="396" y="375" type="line"/>
      <point x="489" y="375" type="line"/>
      <point x="439" y="14" type="line"/>
      <point x="516" y="14" type="line"/>
      <point x="514" y="0" type="line"/>
      <point x="431" y="0" type="line"/>
      <point x="435" y="53" type="line"/>
      <point x="440" y="98" type="line"/>
      <point x="413" y="50"/>
      <point x="316" y="-7"/>
      <point x="260" y="-7" type="qcurve" smooth="yes"/>
      <point x="224" y="-7"/>
      <point x="176" y="23"/>
      <point x="166" y="49" type="qcurve"/>
      <point x="131" y="-201" type="line"/>
      <point x="117" y="-201" type="line"/>
      <point x="195" y="361" type="line"/>
      <point x="116" y="361" type="line"/>
      <point x="118" y="375" type="line"/>
      <point x="211" y="375" type="line"/>
      <point x="173" y="98" type="line" smooth="yes"/>
      <point x="169" y="62"/>
      <point x="211" y="9"/>
      <point x="255" y="7" type="qcurve" smooth="yes"/>
      <point x="289" y="7"/>
      <point x="353" y="29"/>
      <point x="379" y="48.5" type="qcurve" smooth="yes" name="inserted"/>
      <point x="405" y="68"/>
      <point x="440" y="123"/>
      <point x="445" y="155" type="qcurve" smooth="yes"/>
      <point x="473" y="361" type="line"/>
      <point x="394" y="361" type="line"/>
    </contour>
  </outline>
</glyph>
<glyph name="onesuperior" format="2">
  <advance width="249"/>
  <unicode hex="00B9"/>
  <outline>
    <contour>
      <point x="65" y="381" type="line"/>
      <point x="104" y="381" type="line"/>
      <point x="148" y="693" type="line"/>
      <point x="91" y="693" type="line"/>
      <point x="92" y="700" type="line"/>
      <point x="155" y="700" type="line"/>
      <point x="112" y="381" type="line"/>
      <point x="151" y="381" type="line"/>
      <point x="150" y="375" type="line"/>
      <point x="64" y="375" type="line"/>
    </contour>
  </outline>
</glyph>
<glyph name="ordmasculine" format="1">
  <advance width="469"/>
  <unicode hex="00BA"/>
  <outline>
    <contour>
      <point x="110" y="442" type="qcurve" smooth="yes"/>
      <point x="115" y="470"/>
      <point x="144" y="522"/>
      <point x="165.5" y="541.5" type="qcurve" smooth="yes" name="inserted"/>
      <point x="187" y="561"/>
      <point x="240" y="583"/>
      <point x="270" y="583" type="qcurve" smooth="yes"/>
      <point x="299" y="583"/>
      <point x="348" y="561"/>
      <point x="364.5" y="541.5" type="qcurve" smooth="yes" name="inserted"/>
      <point x="381" y="522"/>
      <point x="396" y="470"/>
      <point x="392" y="442" type="qcurve" smooth="yes"/>
      <point x="387" y="412"/>
      <point x="359" y="362"/>
      <point x="337.0" y="342.5" type="qcurve" smooth="yes" name="inserted"/>
      <point x="315" y="323"/>
      <point x="260" y="302"/>
      <point x="231" y="302" type="qcurve" smooth="yes"/>
      <point x="201" y="302"/>
      <point x="154" y="323"/>
      <point x="137.5" y="342.5" type="qcurve" smooth="yes" name="inserted"/>
      <point x="121" y="362"/>
      <point x="106" y="412"/>
    </contour>
    <contour>
      <point x="121" y="442" type="qcurve" smooth="yes"/>
      <point x="117" y="414"/>
      <point x="130" y="367"/>
      <point x="145.0" y="349.5" type="qcurve" smooth="yes" name="inserted"/>
      <point x="160" y="332"/>
      <point x="204" y="312"/>
      <point x="232" y="312" type="qcurve" smooth="yes"/>
      <point x="258" y="312"/>
      <point x="310" y="332"/>
      <point x="330.0" y="349.5" type="qcurve" smooth="yes" name="inserted"/>
      <point x="350" y="367"/>
      <point x="377" y="414"/>
      <point x="381" y="442" type="qcurve" smooth="yes"/>
      <point x="385" y="468"/>
      <point x="371" y="516"/>
      <point x="356.0" y="534.0" type="qcurve" smooth="yes" name="inserted"/>
      <point x="341" y="552"/>
      <point x="295" y="572"/>
      <point x="268" y="572" type="qcurve" smooth="yes"/>
      <point x="241" y="572"/>
      <point x="191" y="552"/>
      <point x="171.0" y="534.0" type="qcurve" smooth="yes" name="inserted"/>
      <point x="151" y="516"/>
      <point x="124" y="468"/>
    </contour>
  </outline>
</glyph>
<glyph name="guillemotright" format="2">
  <advance width="601"/>
  <unicode hex="00BB"/>
  <outline>
    <contour>
      <point x="119" y="93" type="line"/>
      <point x="160" y="130"/>
      <point x="240" y="202"/>
      <point x="281" y="239" type="qcurve"/>
      <point x="251" y="275"/>
      <point x="190" y="347"/>
      <point x="160" y="383" type="qcurve"/>
      <point x="162" y="400" type="line"/>
      <point x="199" y="359"/>
      <point x="273" y="280"/>
      <point x="310" y="239" type="qcurve"/>
      <point x="117" y="77" type="line"/>
    </contour>
    <contour>
      <point x="290" y="93" type="line"/>
      <point x="331" y="130"/>
      <point x="411" y="202"/>
      <point x="452" y="239" type="qcurve"/>
      <point x="422" y="275"/>
      <point x="361" y="347"/>
      <point x="331" y="383" type="qcurve"/>
      <point x="333" y="400" type="line"/>
      <point x="370" y="359"/>
      <point x="444" y="280"/>
      <point x="481" y="239" type="qcurve"/>
      <point x="288" y="77" type="line"/>
    </contour>
  </outline>
</glyph>
<glyph name="onequarter" format="1">
  <advance width="968"/>
  <unicode hex="00BC"/>
  <outline>
    <contour>
      <point x="242" y="-19" type="line"/>
      <point x="339" y="171"/>
      <point x="529" y="545"/>
      <point x="626" y="735" type="qcurve"/>
      <point x="640" y="735" type="line"/>
      <point x="543" y="545"/>
      <point x="353" y="171"/>
      <point x="256" y="-19" type="qcurve"/>
    </contour>
    <contour>
      <point x="672" y="10" type="line"/>
      <point x="730" y="10" type="line"/>
      <point x="747" y="136" type="line"/>
      <point x="486" y="136" type="line"/>
      <point x="808" y="490" type="line"/>
      <point x="759" y="147" type="line"/>
      <point x="831" y="147" type="line"/>
      <point x="830" y="136" type="line"/>
      <point x="758" y="136" type="line"/>
      <point x="740" y="10" type="line"/>
      <point x="802" y="10" type="line"/>
      <point x="800" y="0" type="line"/>
      <point x="671" y="0" type="line"/>
    </contour>
    <contour>
      <point x="793" y="459" type="line"/>
      <point x="510" y="147" type="line"/>
      <point x="749" y="147" type="line"/>
    </contour>
    <contour>
      <point x="130" y="244" type="line"/>
      <point x="187" y="244" type="line"/>
      <point x="249" y="685" type="line"/>
      <point x="169" y="685" type="line"/>
      <point x="170" y="695" type="line"/>
      <point x="260" y="695" type="line"/>
      <point x="197" y="244" type="line"/>
      <point x="254" y="244" type="line"/>
      <point x="252" y="234" type="line"/>
      <point x="129" y="234" type="line"/>
    </contour>
  </outline>
</glyph>
<glyph name="onehalf" format="1">
  <advance width="1069"/>
  <unicode hex="00BD"/>
  <outline>
    <contour>
      <point x="113" y="244" type="line"/>
      <point x="170" y="244" type="line"/>
      <point x="232" y="685" type="line"/>
      <point x="152" y="685" type="line"/>
      <point x="153" y="695" type="line"/>
      <point x="243" y="695" type="line"/>
      <point x="180" y="244" type="line"/>
      <point x="237" y="244" type="line"/>
      <point x="235" y="234" type="line"/>
      <point x="112" y="234" type="line"/>
    </contour>
    <contour>
      <point x="585" y="10" type="qcurve"/>
      <point x="830" y="10" type="line"/>
      <point x="841" y="90" type="line"/>
      <point x="851" y="90" type="line"/>
      <point x="838" y="0" type="line"/>
      <point x="558" y="0" type="line"/>
      <point x="610" y="44"/>
      <point x="707" y="129"/>
      <point x="746.0" y="170.0" type="qcurve" smooth="yes" name="inserted"/>
      <point x="785" y="211"/>
      <point x="836" y="286"/>
      <point x="841" y="319" type="qcurve" smooth="yes"/>
      <point x="847" y="359"/>
      <point x="832" y="411"/>
      <point x="817.0" y="426.5" type="qcurve" smooth="yes" name="inserted"/>
      <point x="802" y="442"/>
      <point x="764" y="455"/>
      <point x="746" y="455" type="qcurve" smooth="yes"/>
      <point x="711" y="455"/>
      <point x="663" y="430"/>
      <point x="647.5" y="411.5" type="qcurve" smooth="yes" name="inserted"/>
      <point x="632" y="393"/>
      <point x="615" y="350"/>
      <point x="613" y="331" type="qcurve" smooth="yes"/>
      <point x="609.5" y="306.5" name="inserted"/>
      <point x="618.0" y="266.5"/>
      <point x="630" y="251" type="qcurve"/>
      <point x="623" y="245" type="line"/>
      <point x="611" y="262"/>
      <point x="599" y="302"/>
      <point x="603" y="331" type="qcurve" smooth="yes"/>
      <point x="607" y="360"/>
      <point x="630" y="408"/>
      <point x="648.5" y="426.0" type="qcurve" smooth="yes" name="inserted"/>
      <point x="667" y="444"/>
      <point x="717" y="465"/>
      <point x="748" y="465" type="qcurve" smooth="yes"/>
      <point x="775" y="465"/>
      <point x="818" y="444"/>
      <point x="831.5" y="426.0" type="qcurve" smooth="yes" name="inserted"/>
      <point x="845" y="408"/>
      <point x="856" y="358"/>
      <point x="852" y="328" type="qcurve" smooth="yes"/>
      <point x="846" y="287"/>
      <point x="793" y="206"/>
      <point x="755.0" y="166.0" type="qcurve" smooth="yes" name="inserted"/>
      <point x="717" y="126"/>
      <point x="628" y="48"/>
    </contour>
    <contour>
      <point x="242" y="-19" type="line"/>
      <point x="339" y="171"/>
      <point x="529" y="545"/>
      <point x="626" y="735" type="qcurve"/>
      <point x="640" y="735" type="line"/>
      <point x="543" y="545"/>
      <point x="353" y="171"/>
      <point x="256" y="-19" type="qcurve"/>
    </contour>
  </outline>
</glyph>
<glyph name="AE" format="1">
  <advance width="775"/>
  <unicode hex="00C6"/>
  <outline>
    <contour>
      <point x="788" y="546" type="line"/>
      <point x="808" y="686" type="line"/>
      <point x="512" y="686" type="line"/>
      <point x="466" y="360" type="line"/>
      <point x="737" y="360" type="line"/>
      <point x="735" y="346" type="line"/>
      <point x="464" y="346" type="line"/>
      <point x="417" y="14" type="line"/>
      <point x="727" y="14" type="line"/>
      <point x="747" y="154" type="line"/>
      <point x="761" y="154" type="line"/>
      <point x="740" y="0" type="line"/>
      <point x="402" y="0" type="line"/>
      <point x="446" y="316" type="line"/>
      <point x="299" y="316" type="line"/>
      <point x="256" y="240"/>
      <point x="172" y="89"/>
      <point x="128" y="14" type="qcurve"/>
      <point x="210" y="14" type="line"/>
      <point x="209" y="0" type="line"/>
      <point x="35" y="0" type="line"/>
      <point x="36" y="14" type="line"/>
      <point x="113" y="14" type="line"/>
      <point x="211" y="186"/>
      <point x="403" y="527"/>
      <point x="500" y="700" type="qcurve"/>
      <point x="824" y="700" type="line"/>
      <point x="802" y="546" type="line"/>
    </contour>
    <contour>
      <point x="448" y="330" type="line"/>
      <point x="495" y="666" type="line"/>
      <point x="450" y="580"/>
      <point x="355" y="415"/>
      <point x="307" y="330" type="qcurve"/>
    </contour>
  </outline>
</glyph>
<glyph name="Ccedilla" format="2">
  <advance width="610"/>
  <unicode hex="00C7"/>
  <outline>
    <contour>
      <point x="660" y="484" type="line"/>
      <point x="683" y="649" type="line"/>
      <point x="648" y="672" name="inserted"/>
      <point x="566" y="694"/>
      <point x="520" y="694" type="qcurve" smooth="yes"/>
      <point x="449" y="694"/>
      <point x="317" y="639"/>
      <point x="264" y="592" type="qcurve" smooth="yes" name="inserted"/>
      <point x="210" y="545"/>
      <point x="139" y="419"/>
      <point x="129" y="348" type="qcurve" smooth="yes"/>
      <point x="119" y="277"/>
      <point x="155" y="153"/>
      <point x="194" y="106" type="qcurve" smooth="yes" name="inserted"/>
      <point x="234" y="60"/>
      <point x="351" y="6"/>
      <point x="421" y="6" type="qcurve" smooth="yes"/>
      <point x="469" y="6"/>
      <point x="561" y="31"/>
      <point x="603" y="54" type="qcurve"/>
      <point x="611" y="42" type="line"/>
      <point x="567" y="19"/>
      <point x="473" y="-8"/>
      <point x="422" y="-8" type="qcurve"/>
      <point x="421" y="-12" name="inserted"/>
      <point x="421" y="-19"/>
      <point x="422" y="-21" type="qcurve"/>
      <point x="424" y="-38"/>
      <point x="445" y="-54"/>
      <point x="455" y="-61" type="qcurve" smooth="yes"/>
      <point x="475" y="-76"/>
      <point x="490" y="-113"/>
      <point x="488" y="-127" type="qcurve" smooth="yes"/>
      <point x="484" y="-152"/>
      <point x="466" y="-188"/>
      <point x="454" y="-199" type="qcurve" smooth="yes"/>
      <point x="440" y="-211"/>
      <point x="408" y="-223"/>
      <point x="391" y="-223" type="qcurve" smooth="yes"/>
      <point x="365" y="-223"/>
      <point x="323" y="-194"/>
      <point x="318" y="-165" type="qcurve"/>
      <point x="333" y="-161" type="line"/>
      <point x="336" y="-182"/>
      <point x="367" y="-209"/>
      <point x="392" y="-209" type="qcurve" smooth="yes"/>
      <point x="407" y="-209"/>
      <point x="434" y="-199"/>
      <point x="445" y="-189" type="qcurve" smooth="yes"/>
      <point x="456" y="-180"/>
      <point x="470" y="-153"/>
      <point x="473" y="-137" type="qcurve" smooth="yes"/>
      <point x="477" y="-109"/>
      <point x="455" y="-79"/>
      <point x="441" y="-68" type="qcurve" smooth="yes" name="inserted"/>
      <point x="427" y="-58"/>
      <point x="404" y="-36"/>
      <point x="407" y="-16" type="qcurve" smooth="yes"/>
      <point x="408" y="-7" type="line"/>
      <point x="337" y="-4"/>
      <point x="220" y="53"/>
      <point x="180" y="101" type="qcurve" smooth="yes" name="inserted"/>
      <point x="140" y="149"/>
      <point x="105" y="277"/>
      <point x="115" y="349" type="qcurve" smooth="yes"/>
      <point x="125" y="423"/>
      <point x="200" y="554"/>
      <point x="255" y="602" type="qcurve" smooth="yes" name="inserted"/>
      <point x="310" y="651"/>
      <point x="448" y="708"/>
      <point x="522" y="708" type="qcurve" smooth="yes"/>
      <point x="573" y="708"/>
      <point x="661" y="682"/>
      <point x="698" y="658" type="qcurve"/>
      <point x="674" y="484" type="line"/>
    </contour>
  </outline>
</glyph>
<glyph name="multiply" format="1">
  <advance width="500"/>
  <unicode hex="00D7"/>
  <outline>
    <contour>
      <point x="385" y="0" type="line"/>
      <point x="358" y="31"/>
      <point x="305" y="92"/>
      <point x="279" y="123" type="qcurve"/>
      <point x="244" y="92"/>
      <point x="175" y="31"/>
      <point x="140" y="0" type="qcurve"/>
      <point x="138" y="2"/>
      <point x="133" y="8"/>
      <point x="131" y="10" type="qcurve"/>
      <point x="166" y="41"/>
      <point x="235" y="102"/>
      <point x="270" y="133" type="qcurve"/>
      <point x="166" y="254" type="line"/>
      <point x="178" y="264" type="line"/>
      <point x="282" y="143" type="line"/>
      <point x="317" y="174"/>
      <point x="387" y="234"/>
      <point x="422" y="265" type="qcurve"/>
      <point x="424" y="263"/>
      <point x="428" y="257"/>
      <point x="430" y="255" type="qcurve"/>
      <point x="395" y="224"/>
      <point x="325" y="164"/>
      <point x="290" y="133" type="qcurve"/>
      <point x="316" y="102"/>
      <point x="370" y="41"/>
      <point x="396" y="10" type="qcurve"/>
    </contour>
  </outline>
</glyph>
<glyph name="Oslash" format="2">
  <advance width="786"/>
  <unicode hex="00D8"/>
  <outline>
    <contour>
      <point x="99" y="348" type="qcurve" smooth="yes"/>
      <point x="88" y="272"/>
      <point x="129" y="142"/>
      <point x="174" y="95" type="qcurve"/>
      <point x="304" y="228"/>
      <point x="559" y="489"/>
      <point x="689" y="622" type="qcurve"/>
      <point x="650" y="656"/>
      <point x="549" y="694"/>
      <point x="490" y="694" type="qcurve" smooth="yes"/>
      <point x="419" y="694"/>
      <point x="287" y="639"/>
      <point x="233.5" y="592" type="qcurve" smooth="yes" name="inserted"/>
      <point x="180" y="545"/>
      <point x="109" y="419"/>
    </contour>
    <contour>
      <point x="390" y="6" type="qcurve" smooth="yes"/>
      <point x="461" y="6"/>
      <point x="596" y="60"/>
      <point x="650" y="106.5" type="qcurve" smooth="yes" name="inserted"/>
      <point x="704" y="153"/>
      <point x="777" y="278"/>
      <point x="787" y="349" type="qcurve" smooth="yes"/>
      <point x="798" y="429"/>
      <point x="748" y="567"/>
      <point x="697" y="615" type="qcurve"/>
      <point x="567" y="482"/>
      <point x="312" y="220"/>
      <point x="182" y="87" type="qcurve"/>
      <point x="222" y="49"/>
      <point x="327" y="6"/>
    </contour>
    <contour>
      <point x="85" y="349" type="qcurve" smooth="yes"/>
      <point x="95" y="423"/>
      <point x="170" y="554"/>
      <point x="225" y="602.5" type="qcurve" smooth="yes" name="inserted"/>
      <point x="280" y="651"/>
      <point x="418" y="708"/>
      <point x="492" y="708" type="qcurve" smooth="yes"/>
      <point x="554" y="708"/>
      <point x="659" y="668"/>
      <point x="701" y="633" type="qcurve"/>
      <point x="773" y="708" type="line"/>
      <point x="781" y="700" type="line"/>
      <point x="762" y="681"/>
      <point x="727" y="645"/>
      <point x="709" y="626" type="qcurve"/>
      <point x="762" y="576"/>
      <point x="812" y="433"/>
      <point x="801" y="349" type="qcurve" smooth="yes"/>
      <point x="790" y="275"/>
      <point x="716" y="145"/>
      <point x="660.5" y="96.5" type="qcurve" smooth="yes" name="inserted"/>
      <point x="605" y="48"/>
      <point x="466" y="-8"/>
      <point x="392" y="-8" type="qcurve" smooth="yes"/>
      <point x="326" y="-8"/>
      <point x="214" y="37"/>
      <point x="172" y="77" type="qcurve"/>
      <point x="152" y="56"/>
      <point x="110" y="13"/>
      <point x="90" y="-8" type="qcurve"/>
      <point x="88" y="-6"/>
      <point x="84" y="-2"/>
      <point x="82" y="0" type="qcurve"/>
      <point x="103" y="21"/>
      <point x="144" y="64"/>
      <point x="165" y="85" type="qcurve"/>
      <point x="117" y="134"/>
      <point x="74" y="270"/>
    </contour>
  </outline>
</glyph>
<glyph name="germandbls" format="1">
  <advance width="542"/>
  <unicode hex="00DF"/>
  <outline>
    <contour>
      <point x="38" y="14" type="line"/>
      <point x="121" y="14" type="line"/>
      <point x="171" y="370" type="line"/>
      <point x="106" y="370" type="line"/>
      <point x="108" y="384" type="line"/>
      <point x="173" y="384" type="line"/>
      <point x="178" y="426" type="line" smooth="yes"/>
      <point x="186" y="481"/>
      <point x="228" y="567"/>
      <point x="257.0" y="596.0" type="qcurve" smooth="yes" name="inserted"/>
      <point x="286" y="625"/>
      <point x="358" y="656"/>
      <point x="396" y="658" type="qcurve"/>
      <point x="425" y="657"/>
      <point x="473" y="634"/>
      <point x="489.5" y="614.5" type="qcurve" smooth="yes" name="inserted"/>
      <point x="506" y="595"/>
      <point x="520" y="543"/>
      <point x="516" y="514" type="qcurve" smooth="yes"/>
      <point x="510" y="470"/>
      <point x="449" y="403"/>
      <point x="406" y="389" type="qcurve"/>
      <point x="438" y="381"/>
      <point x="490" y="345"/>
      <point x="507.5" y="319.5" type="qcurve" smooth="yes" name="inserted"/>
      <point x="525" y="294"/>
      <point x="540" y="231"/>
      <point x="535" y="195" type="qcurve" smooth="yes"/>
      <point x="529" y="153"/>
      <point x="486" y="79"/>
      <point x="454.5" y="51.5" type="qcurve" smooth="yes" name="inserted"/>
      <point x="423" y="24"/>
      <point x="344" y="-8"/>
      <point x="302" y="-8" type="qcurve" smooth="yes"/>
      <point x="273.0" y="-8.0" name="inserted"/>
      <point x="222.0" y="7.0"/>
      <point x="200" y="22" type="qcurve"/>
      <point x="207" y="33" type="line"/>
      <point x="227.0" y="19.0" name="inserted"/>
      <point x="274.0" y="5.0"/>
      <point x="301" y="5" type="qcurve" smooth="yes"/>
      <point x="341" y="5"/>
      <point x="415" y="36"/>
      <point x="445.0" y="62.0" type="qcurve" smooth="yes" name="inserted"/>
      <point x="475" y="88"/>
      <point x="516" y="157"/>
      <point x="521" y="195" type="qcurve" smooth="yes"/>
      <point x="526" y="233"/>
      <point x="506" y="300"/>
      <point x="483.5" y="325.5" type="qcurve" smooth="yes" name="inserted"/>
      <point x="461" y="351"/>
      <point x="396" y="381"/>
      <point x="357" y="381" type="qcurve"/>
      <point x="357" y="383"/>
      <point x="358" y="386"/>
      <point x="358" y="388" type="qcurve"/>
      <point x="359" y="396" type="line"/>
      <point x="385" y="396"/>
      <point x="433" y="413"/>
      <point x="452.5" y="428.5" type="qcurve" smooth="yes" name="inserted"/>
      <point x="472" y="444"/>
      <point x="498" y="486"/>
      <point x="501" y="511" type="qcurve" smooth="yes"/>
      <point x="505" y="537"/>
      <point x="493" y="585"/>
      <point x="478.5" y="603.5" type="qcurve" smooth="yes" name="inserted"/>
      <point x="464" y="622"/>
      <point x="421" y="644"/>
      <point x="394" y="644" type="qcurve" smooth="yes"/>
      <point x="360" y="644"/>
      <point x="294" y="614"/>
      <point x="266.5" y="586.0" type="qcurve" smooth="yes" name="inserted"/>
      <point x="239" y="558"/>
      <point x="200" y="479"/>
      <point x="193" y="430" type="qcurve" smooth="yes"/>
      <point x="133" y="0" type="line"/>
      <point x="36" y="0" type="line"/>
    </contour>
  </outline>
</glyph>
<glyph name="ae" format="2">
  <advance width="580"/>
  <unicode hex="00E6"/>
  <outline>
    <contour>
      <point x="565" y="264" type="qcurve"/>
      <point x="551" y="310"/>
      <point x="478" y="367"/>
      <point x="428" y="367" type="qcurve" smooth="yes"/>
      <point x="410" y="367"/>
      <point x="377" y="360"/>
      <point x="361" y="354" type="qcurve"/>
      <point x="379" y="338"/>
      <point x="387" y="283"/>
      <point x="381" y="241" type="qcurve" smooth="yes"/>
      <point x="374" y="191" type="line"/>
      <point x="422" y="209"/>
      <point x="517" y="246"/>
    </contour>
    <contour>
      <point x="358" y="177" type="line"/>
      <point x="264" y="177" type="line" smooth="yes"/>
      <point x="248" y="177"/>
      <point x="185" y="178"/>
      <point x="152.5" y="171.5" type="qcurve" smooth="yes" name="inserted"/>
      <point x="120" y="165"/>
      <point x="68" y="131"/>
      <point x="64" y="97" type="qcurve" smooth="yes"/>
      <point x="60" y="68"/>
      <point x="83" y="31"/>
      <point x="102.5" y="21" type="qcurve" smooth="yes" name="inserted"/>
      <point x="122" y="11"/>
      <point x="172" y="4"/>
      <point x="195" y="4" type="qcurve" smooth="yes"/>
      <point x="220" y="4"/>
      <point x="271" y="13"/>
      <point x="292" y="24.5" type="qcurve" smooth="yes" name="inserted"/>
      <point x="313" y="36"/>
      <point x="343" y="75"/>
      <point x="348" y="105" type="qcurve" smooth="yes"/>
    </contour>
    <contour>
      <point x="192" y="-10" type="qcurve" smooth="yes"/>
      <point x="157" y="-10"/>
      <point x="100" y="0"/>
      <point x="81" y="12" type="qcurve" smooth="yes" name="inserted"/>
      <point x="62" y="24"/>
      <point x="45" y="65"/>
      <point x="49" y="96" type="qcurve" smooth="yes"/>
      <point x="53" y="123"/>
      <point x="84" y="159"/>
      <point x="106" y="170" type="qcurve" smooth="yes" name="inserted"/>
      <point x="129" y="182"/>
      <point x="185" y="191"/>
      <point x="214" y="191" type="qcurve" smooth="yes"/>
      <point x="360" y="191" type="line"/>
      <point x="367" y="243" type="line" smooth="yes"/>
      <point x="371" y="274"/>
      <point x="368" y="321"/>
      <point x="355" y="336" type="qcurve" smooth="yes" name="inserted"/>
      <point x="342" y="352"/>
      <point x="288" y="367"/>
      <point x="242" y="367" type="qcurve" smooth="yes"/>
      <point x="228" y="367"/>
      <point x="195" y="361"/>
      <point x="180" y="356" type="qcurve" smooth="yes" name="inserted"/>
      <point x="164" y="351"/>
      <point x="137" y="338"/>
      <point x="128" y="332" type="qcurve"/>
      <point x="116" y="344" type="line"/>
      <point x="126" y="352"/>
      <point x="157" y="365"/>
      <point x="174" y="370" type="qcurve" smooth="yes" name="inserted"/>
      <point x="192" y="375"/>
      <point x="229" y="381"/>
      <point x="245" y="381" type="qcurve" smooth="yes"/>
      <point x="281" y="381" name="inserted"/>
      <point x="332" y="372"/>
      <point x="348" y="364" type="qcurve"/>
      <point x="368" y="372" name="inserted"/>
      <point x="409" y="381"/>
      <point x="430" y="381" type="qcurve" smooth="yes"/>
      <point x="462" y="381"/>
      <point x="518" y="358"/>
      <point x="538" y="339" type="qcurve" smooth="yes"/>
      <point x="554" y="323"/>
      <point x="577" y="281"/>
      <point x="582" y="257" type="qcurve"/>
      <point x="372" y="176" type="line"/>
      <point x="365" y="128" type="line" smooth="yes"/>
      <point x="360" y="89"/>
      <point x="335" y="38"/>
      <point x="309" y="20" type="qcurve"/>
      <point x="324" y="13" name="inserted"/>
      <point x="359" y="6"/>
      <point x="378" y="6" type="qcurve" smooth="yes"/>
      <point x="414" y="6"/>
      <point x="481" y="32"/>
      <point x="509" y="55" type="qcurve"/>
      <point x="511" y="52"/>
      <point x="514" y="47"/>
      <point x="516" y="44" type="qcurve"/>
      <point x="487" y="20"/>
      <point x="415" y="-8"/>
      <point x="376" y="-8" type="qcurve" smooth="yes"/>
      <point x="353" y="-8" name="inserted"/>
      <point x="312" y="1"/>
      <point x="294" y="10" type="qcurve"/>
      <point x="274" y="0" name="inserted"/>
      <point x="223" y="-10"/>
    </contour>
  </outline>
</glyph>
<glyph name="ccedilla" format="1">
  <advance width="387"/>
  <unicode hex="00E7"/>
  <outline>
    <contour>
      <point x="337" y="47" type="qcurve"/>
      <point x="345" y="37" type="line"/>
      <point x="344" y="36"/>
      <point x="325" y="27"/>
      <point x="312.0" y="21.5" type="qcurve" smooth="yes" name="inserted"/>
      <point x="299" y="16"/>
      <point x="268" y="2"/>
      <point x="255.5" y="-2.5" type="qcurve" smooth="yes" name="inserted"/>
      <point x="243" y="-7"/>
      <point x="226" y="-12"/>
      <point x="226" y="-10" type="qcurve"/>
      <point x="224" y="-32"/>
      <point x="249" y="-53"/>
      <point x="260" y="-61" type="qcurve" smooth="yes"/>
      <point x="280" y="-76"/>
      <point x="294" y="-113"/>
      <point x="292" y="-127" type="qcurve" smooth="yes"/>
      <point x="285" y="-178"/>
      <point x="228" y="-223"/>
      <point x="195" y="-223" type="qcurve" smooth="yes"/>
      <point x="186.0" y="-223.0" name="inserted"/>
      <point x="169.5" y="-220.0"/>
      <point x="162" y="-217" type="qcurve"/>
      <point x="147" y="-210"/>
      <point x="126" y="-185"/>
      <point x="122" y="-165" type="qcurve"/>
      <point x="138" y="-161" type="line"/>
      <point x="141" y="-183"/>
      <point x="173" y="-209"/>
      <point x="197" y="-209" type="qcurve" smooth="yes"/>
      <point x="228" y="-209"/>
      <point x="272" y="-168"/>
      <point x="277" y="-137" type="qcurve" smooth="yes"/>
      <point x="281" y="-109"/>
      <point x="259" y="-79"/>
      <point x="245.0" y="-68.5" type="qcurve" smooth="yes" name="inserted"/>
      <point x="231" y="-58"/>
      <point x="208" y="-36"/>
      <point x="211" y="-16" type="qcurve" smooth="yes"/>
      <point x="212" y="-6" type="line"/>
      <point x="173" y="-5"/>
      <point x="108" y="25"/>
      <point x="86.0" y="51.5" type="qcurve" smooth="yes" name="inserted"/>
      <point x="64" y="78"/>
      <point x="44" y="148"/>
      <point x="50" y="188" type="qcurve" smooth="yes"/>
      <point x="56" y="228"/>
      <point x="96" y="300"/>
      <point x="126.0" y="326.0" type="qcurve" smooth="yes" name="inserted"/>
      <point x="156" y="352"/>
      <point x="230" y="383"/>
      <point x="271" y="383" type="qcurve" smooth="yes"/>
      <point x="306" y="383"/>
      <point x="366" y="360"/>
      <point x="388" y="340" type="qcurve"/>
      <point x="376" y="252" type="line"/>
      <point x="362" y="252" type="line"/>
      <point x="373" y="332" type="line"/>
      <point x="352" y="349"/>
      <point x="300" y="369"/>
      <point x="269" y="369" type="qcurve" smooth="yes"/>
      <point x="231" y="369"/>
      <point x="162" y="341"/>
      <point x="134.0" y="316.0" type="qcurve" smooth="yes" name="inserted"/>
      <point x="106" y="291"/>
      <point x="69" y="225"/>
      <point x="64" y="188" type="qcurve" smooth="yes"/>
      <point x="59" y="150"/>
      <point x="77" y="85"/>
      <point x="98.0" y="60.5" type="qcurve" smooth="yes" name="inserted"/>
      <point x="119" y="36"/>
      <point x="180" y="8"/>
      <point x="218" y="8" type="qcurve" smooth="yes"/>
      <point x="250" y="8"/>
      <point x="311" y="29"/>
    </contour>
  </outline>
</glyph>
<glyph name="eth" format="2">
  <advance width="459"/>
  <unicode hex="00F0"/>
  <outline>
    <contour>
      <point x="76" y="188" type="qcurve" smooth="yes"/>
      <point x="71" y="150"/>
      <point x="89" y="85"/>
      <point x="110" y="60.5" type="qcurve" smooth="yes" name="inserted"/>
      <point x="131" y="36"/>
      <point x="192" y="8"/>
      <point x="230" y="8" type="qcurve" smooth="yes"/>
      <point x="267" y="8"/>
      <point x="338" y="36"/>
      <point x="366" y="60.5" type="qcurve" smooth="yes" name="inserted"/>
      <point x="394" y="85"/>
      <point x="432" y="150"/>
      <point x="437" y="188" type="qcurve" smooth="yes"/>
      <point x="442" y="225"/>
      <point x="423" y="291"/>
      <point x="402" y="316" type="qcurve" smooth="yes" name="inserted"/>
      <point x="381" y="341"/>
      <point x="318" y="369"/>
      <point x="281" y="369" type="qcurve" smooth="yes"/>
      <point x="243" y="369"/>
      <point x="174" y="341"/>
      <point x="146" y="316" type="qcurve" smooth="yes" name="inserted"/>
      <point x="118" y="291"/>
      <point x="81" y="225"/>
    </contour>
    <contour>
      <point x="451" y="188" type="qcurve" smooth="yes"/>
      <point x="445" y="147"/>
      <point x="405" y="77"/>
      <point x="375" y="50.5" type="qcurve" smooth="yes" name="inserted"/>
      <point x="345" y="24"/>
      <point x="269" y="-6"/>
      <point x="229" y="-6" type="qcurve" smooth="yes"/>
      <point x="188" y="-6"/>
      <point x="122" y="24"/>
      <point x="99.5" y="50.5" type="qcurve" smooth="yes" name="inserted"/>
      <point x="77" y="77"/>
      <point x="56" y="147"/>
      <point x="62" y="188" type="qcurve" smooth="yes"/>
      <point x="68" y="228"/>
      <point x="108" y="300"/>
      <point x="138" y="326" type="qcurve" smooth="yes" name="inserted"/>
      <point x="168" y="352"/>
      <point x="242" y="383"/>
      <point x="283" y="383" type="qcurve" smooth="yes"/>
      <point x="334" y="383"/>
      <point x="413" y="335"/>
      <point x="434" y="295" type="qcurve"/>
      <point x="429" y="352"/>
      <point x="369" y="523"/>
      <point x="299" y="620" type="qcurve"/>
      <point x="278" y="600"/>
      <point x="235" y="559"/>
      <point x="213" y="539" type="qcurve"/>
      <point x="212" y="540.5" name="inserted"/>
      <point x="208.5" y="544.5"/>
      <point x="206" y="547" type="qcurve"/>
      <point x="228" y="567"/>
      <point x="272" y="609"/>
      <point x="294" y="629" type="qcurve"/>
      <point x="275" y="652"/>
      <point x="235" y="697"/>
      <point x="212" y="717" type="qcurve"/>
      <point x="213.5" y="718.5" name="inserted"/>
      <point x="217" y="723"/>
      <point x="219" y="726" type="qcurve"/>
      <point x="241" y="707.5" name="inserted"/>
      <point x="283" y="663"/>
      <point x="303" y="637" type="qcurve"/>
      <point x="323" y="657"/>
      <point x="364" y="694"/>
      <point x="384" y="714" type="qcurve"/>
      <point x="386" y="712"/>
      <point x="389" y="709"/>
      <point x="391" y="707" type="qcurve"/>
      <point x="370" y="687"/>
      <point x="329" y="649"/>
      <point x="309" y="629" type="qcurve"/>
      <point x="343" y="581"/>
      <point x="402" y="471"/>
      <point x="422" y="414" type="qcurve" smooth="yes" name="inserted"/>
      <point x="442" y="357"/>
      <point x="458" y="242"/>
    </contour>
  </outline>
</glyph>
<glyph name="divide" format="2">
  <advance width="501"/>
  <unicode hex="00F7"/>
  <outline>
    <contour>
      <point x="428" y="210" type="line"/>
      <point x="68" y="210" type="line"/>
      <point x="69" y="224" type="line"/>
      <point x="429" y="224" type="line"/>
    </contour>
    <contour>
      <point x="248" y="341" type="qcurve"/>
      <point x="250" y="349"/>
      <point x="263" y="361"/>
      <point x="271" y="361" type="qcurve" smooth="yes"/>
      <point x="279" y="361"/>
      <point x="290" y="349"/>
      <point x="288" y="341" type="qcurve"/>
      <point x="287" y="333"/>
      <point x="273" y="321"/>
      <point x="265" y="321" type="qcurve" smooth="yes"/>
      <point x="257" y="321"/>
      <point x="247" y="333"/>
    </contour>
    <contour>
      <point x="213" y="91" type="qcurve"/>
      <point x="214" y="99"/>
      <point x="228" y="111"/>
      <point x="236" y="111" type="qcurve" smooth="yes"/>
      <point x="244" y="111"/>
      <point x="254" y="99"/>
      <point x="253" y="91" type="qcurve"/>
      <point x="251" y="83"/>
      <point x="238" y="71"/>
      <point x="230" y="71" type="qcurve" smooth="yes"/>
      <point x="222" y="71"/>
      <point x="211" y="83"/>
    </contour>
  </outline>
</glyph>
<glyph name="oslash" format="1">
  <advance width="458"/>
  <unicode hex="00F8"/>
  <outline>
    <contour>
      <point x="76" y="188" type="qcurve" smooth="yes"/>
      <point x="71" y="150"/>
      <point x="90" y="83"/>
      <point x="112" y="58" type="qcurve"/>
      <point x="180" y="127"/>
      <point x="314" y="266"/>
      <point x="382" y="335" type="qcurve"/>
      <point x="362" y="351"/>
      <point x="310" y="369"/>
      <point x="281" y="369" type="qcurve" smooth="yes"/>
      <point x="243" y="369"/>
      <point x="174" y="341"/>
      <point x="146.0" y="316.0" type="qcurve" smooth="yes" name="inserted"/>
      <point x="118" y="291"/>
      <point x="81" y="225"/>
    </contour>
    <contour>
      <point x="231" y="8" type="qcurve" smooth="yes"/>
      <point x="268" y="8"/>
      <point x="338" y="36"/>
      <point x="366.0" y="60.5" type="qcurve" smooth="yes" name="inserted"/>
      <point x="394" y="85"/>
      <point x="432" y="150"/>
      <point x="437" y="188" type="qcurve" smooth="yes"/>
      <point x="443" y="230"/>
      <point x="417" y="302"/>
      <point x="391" y="327" type="qcurve"/>
      <point x="323" y="258"/>
      <point x="188" y="119"/>
      <point x="120" y="50" type="qcurve"/>
      <point x="142.0" y="29.0" name="inserted"/>
      <point x="197.5" y="8.0"/>
    </contour>
    <contour>
      <point x="62" y="188" type="qcurve" smooth="yes"/>
      <point x="68" y="228"/>
      <point x="108" y="300"/>
      <point x="138.0" y="326.0" type="qcurve" smooth="yes" name="inserted"/>
      <point x="168" y="352"/>
      <point x="242" y="383"/>
      <point x="283" y="383" type="qcurve" smooth="yes"/>
      <point x="315" y="383"/>
      <point x="371" y="363"/>
      <point x="393" y="346" type="qcurve"/>
      <point x="402" y="355"/>
      <point x="421" y="374"/>
      <point x="429" y="383" type="qcurve"/>
      <point x="431" y="381"/>
      <point x="435" y="377"/>
      <point x="437" y="375" type="qcurve"/>
      <point x="429" y="366"/>
      <point x="410" y="347"/>
      <point x="401" y="338" type="qcurve"/>
      <point x="430" y="312"/>
      <point x="457" y="233"/>
      <point x="451" y="188" type="qcurve" smooth="yes"/>
      <point x="445" y="147"/>
      <point x="405" y="77"/>
      <point x="375.0" y="50.5" type="qcurve" smooth="yes" name="inserted"/>
      <point x="345" y="24"/>
      <point x="269" y="-6"/>
      <point x="229" y="-6" type="qcurve" smooth="yes"/>
      <point x="193" y="-6"/>
      <point x="132" y="18"/>
      <point x="109" y="39" type="qcurve"/>
      <point x="98" y="27"/>
      <point x="75" y="4"/>
      <point x="64" y="-8" type="qcurve"/>
      <point x="62" y="-6"/>
      <point x="58" y="-2"/>
      <point x="56" y="0" type="qcurve"/>
      <point x="67" y="12"/>
      <point x="90" y="35"/>
      <point x="101" y="47" type="qcurve"/>
      <point x="77" y="73"/>
      <point x="56" y="146"/>
    </contour>
  </outline>
</glyph>
<glyph name="dotlessi" format="2">
  <advance width="244"/>
  <unicode hex="0131"/>
  <outline>
    <contour>
      <point x="36" y="14" type="line"/>
      <point x="118" y="14" type="line"/>
      <point x="167" y="361" type="line"/>
      <point x="85" y="361" type="line"/>
      <point x="87" y="375" type="line"/>
      <point x="183" y="375" type="line"/>
      <point x="132" y="14" type="line"/>
      <point x="210" y="14" type="line"/>
      <point x="209" y="0" type="line"/>
      <point x="35" y="0" type="line"/>
    </contour>
  </outline>
</glyph>
<glyph name="OE" format="2">
  <advance width="915"/>
  <unicode hex="0152"/>
  <outline>
    <contour>
      <point x="68" y="313" type="qcurve"/>
      <point x="68" y="394"/>
      <point x="135" y="537"/>
      <point x="191" y="591" type="qcurve" smooth="yes" name="inserted"/>
      <point x="246" y="645"/>
      <point x="392" y="708"/>
      <point x="472" y="708" type="qcurve"/>
      <point x="492" y="708"/>
      <point x="528" y="704"/>
      <point x="546" y="700" type="qcurve"/>
      <point x="898" y="700" type="line"/>
      <point x="887" y="612" type="line"/>
      <point x="873" y="612" type="line"/>
      <point x="882" y="686" type="line"/>
      <point x="558" y="686" type="line"/>
      <point x="518" y="360" type="line"/>
      <point x="817" y="360" type="line"/>
      <point x="815" y="346" type="line"/>
      <point x="516" y="346" type="line"/>
      <point x="476" y="14" type="line"/>
      <point x="813" y="14" type="line"/>
      <point x="823" y="89" type="line"/>
      <point x="837" y="89" type="line"/>
      <point x="826" y="0" type="line"/>
      <point x="461" y="0" type="line"/>
      <point x="441" y="-4" name="inserted"/>
      <point x="403" y="-8"/>
      <point x="384" y="-8" type="qcurve"/>
      <point x="316" y="-8"/>
      <point x="200" y="42"/>
      <point x="158" y="86" type="qcurve" smooth="yes" name="inserted"/>
      <point x="116" y="129"/>
      <point x="68" y="246"/>
    </contour>
    <contour>
      <point x="82" y="313" type="qcurve"/>
      <point x="82" y="249"/>
      <point x="127" y="137"/>
      <point x="168" y="96" type="qcurve" smooth="yes" name="inserted"/>
      <point x="208" y="54"/>
      <point x="318" y="6"/>
      <point x="383" y="6" type="qcurve"/>
      <point x="403" y="6" name="inserted"/>
      <point x="444" y="10"/>
      <point x="463" y="14" type="qcurve"/>
      <point x="544" y="686" type="line"/>
      <point x="526" y="690" name="inserted"/>
      <point x="489" y="694"/>
      <point x="470" y="694" type="qcurve"/>
      <point x="394" y="694"/>
      <point x="254" y="633"/>
      <point x="200" y="581" type="qcurve" smooth="yes" name="inserted"/>
      <point x="146" y="529"/>
      <point x="82" y="390"/>
    </contour>
  </outline>
</glyph>
<glyph name="circumflex" format="2">
  <advance width="450"/>
  <unicode hex="02C6"/>
  <outline>
    <contour>
      <point x="306" y="600" type="line"/>
      <point x="411" y="479" type="line"/>
      <point x="395" y="479" type="line"/>
      <point x="303" y="573" type="line"/>
      <point x="187" y="479" type="line"/>
      <point x="171" y="479" type="line"/>
    </contour>
  </outline>
</glyph>
<glyph name="ring" format="1">
  <advance width="200"/>
  <unicode hex="02DA"/>
  <outline>
    <contour>
      <point x="129" y="540" type="qcurve" smooth="yes"/>
      <point x="126" y="520"/>
      <point x="151" y="491"/>
      <point x="171" y="491" type="qcurve" smooth="yes"/>
      <point x="191" y="491"/>
      <point x="224" y="520"/>
      <point x="227" y="540" type="qcurve" smooth="yes"/>
      <point x="229" y="560"/>
      <point x="204" y="589"/>
      <point x="184" y="589" type="qcurve" smooth="yes"/>
      <point x="164" y="589"/>
      <point x="131" y="560"/>
    </contour>
    <contour>
      <point x="115" y="540" type="qcurve" smooth="yes"/>
      <point x="119" y="567"/>
      <point x="159" y="603"/>
      <point x="186" y="603" type="qcurve" smooth="yes"/>
      <point x="213" y="603"/>
      <point x="245" y="567"/>
      <point x="241" y="540" type="qcurve" smooth="yes"/>
      <point x="236" y="513"/>
      <point x="196" y="477"/>
      <point x="169" y="477" type="qcurve" smooth="yes"/>
      <point x="142" y="477"/>
      <point x="110" y="513"/>
    </contour>
  </outline>
</glyph>
<glyph name="tilde" format="2">
  <advance width="593"/>
  <unicode hex="02DC"/>
  <outline>
    <contour>
      <point x="364" y="485" type="qcurve"/>
      <point x="350" y="503"/>
      <point x="328" y="515"/>
      <point x="314" y="515" type="qcurve"/>
      <point x="306" y="515"/>
      <point x="284" y="510"/>
      <point x="274" y="504" type="qcurve" smooth="yes" name="inserted"/>
      <point x="263" y="498"/>
      <point x="245" y="477"/>
      <point x="241" y="460" type="qcurve"/>
      <point x="228" y="462" type="line"/>
      <point x="231" y="478"/>
      <point x="246" y="502"/>
      <point x="257" y="510" type="qcurve" smooth="yes"/>
      <point x="270" y="520"/>
      <point x="302" y="529"/>
      <point x="318" y="529" type="qcurve"/>
      <point x="338" y="529"/>
      <point x="368" y="508"/>
      <point x="382" y="491" type="qcurve"/>
      <point x="396" y="473"/>
      <point x="419" y="461"/>
      <point x="433" y="461" type="qcurve"/>
      <point x="441" y="461"/>
      <point x="463" y="466"/>
      <point x="474" y="472" type="qcurve" smooth="yes" name="inserted"/>
      <point x="484" y="478"/>
      <point x="502" y="499"/>
      <point x="506" y="516" type="qcurve"/>
      <point x="518" y="514" type="line"/>
      <point x="514" y="495"/>
      <point x="495" y="468"/>
      <point x="481" y="461" type="qcurve" smooth="yes"/>
      <point x="469" y="453"/>
      <point x="441" y="447"/>
      <point x="428" y="447" type="qcurve"/>
      <point x="408" y="447"/>
      <point x="378" y="468"/>
    </contour>
  </outline>
</glyph>
<glyph name="emdash" format="1">
  <advance width="700"/>
  <unicode hex="2014"/>
  <outline>
    <contour>
      <point x="99" y="179" type="line"/>
      <point x="100" y="193" type="line"/>
      <point x="602" y="193" type="line"/>
      <point x="601" y="179" type="line"/>
    </contour>
  </outline>
</glyph>
<glyph name="quoteleft" format="2">
  <advance width="164"/>
  <unicode hex="2018"/>
  <outline>
    <contour>
      <point x="94" y="590" type="qcurve"/>
      <point x="92" y="585"/>
      <point x="88" y="577"/>
      <point x="86" y="572" type="qcurve"/>
      <point x="60" y="598"/>
      <point x="45" y="671"/>
      <point x="59" y="711" type="qcurve"/>
      <point x="64" y="709"/>
      <point x="72" y="706"/>
      <point x="77" y="704" type="qcurve"/>
      <point x="66" y="669"/>
      <point x="76" y="610"/>
    </contour>
  </outline>
</glyph>
<glyph name="quoteright" format="2">
  <advance width="164"/>
  <unicode hex="2019"/>
  <outline>
    <contour>
      <point x="65" y="572" type="qcurve"/>
      <point x="63" y="577"/>
      <point x="62" y="585"/>
      <point x="61" y="590" type="qcurve"/>
      <point x="85" y="610"/>
      <point x="112" y="669"/>
      <point x="110" y="704" type="qcurve"/>
      <point x="115" y="706"/>
      <point x="125" y="709"/>
      <point x="130" y="711" type="qcurve"/>
      <point x="133" y="671"/>
      <point x="97" y="598"/>
    </contour>
  </outline>
</glyph>
<glyph name="quotesinglbase" format="2">
  <advance width="146"/>
  <unicode hex="201A"/>
  <outline>
    <contour>
      <point x="26" y="-47" type="qcurve"/>
      <point x="24" y="-42"/>
      <point x="23" y="-34"/>
      <point x="22" y="-29" type="qcurve"/>
      <point x="46" y="-9"/>
      <point x="73" y="50"/>
      <point x="71" y="85" type="qcurve"/>
      <point x="76" y="87"/>
      <point x="86" y="90"/>
      <point x="91" y="92" type="qcurve"/>
      <point x="94" y="52"/>
      <point x="58" y="-21"/>
    </contour>
  </outline>
</glyph>
<glyph name="bullet" format="2">
  <advance width="479"/>
  <unicode hex="2022"/>
  <outline>
    <contour>
      <point x="183" y="300" type="qcurve" smooth="yes"/>
      <point x="185" y="313"/>
      <point x="198" y="337"/>
      <point x="207" y="346" type="qcurve" smooth="yes"/>
      <point x="217" y="355"/>
      <point x="243" y="366"/>
      <point x="257" y="366" type="qcurve" smooth="yes"/>
      <point x="272" y="366"/>
      <point x="296" y="355"/>
      <point x="303" y="345" type="qcurve" smooth="yes"/>
      <point x="310" y="336"/>
      <point x="316" y="313"/>
      <point x="314" y="300" type="qcurve" smooth="yes"/>
      <point x="312" y="286"/>
      <point x="298" y="262"/>
      <point x="288" y="253" type="qcurve" smooth="yes"/>
      <point x="278" y="245"/>
      <point x="253" y="235"/>
      <point x="239" y="235" type="qcurve" smooth="yes"/>
      <point x="227" y="235"/>
      <point x="205" y="244"/>
      <point x="198" y="251" type="qcurve" smooth="yes"/>
      <point x="189" y="260"/>
      <point x="181" y="285"/>
    </contour>
  </outline>
</glyph>
<glyph name="guilsinglleft" format="1">
  <advance width="392"/>
  <unicode hex="2039"/>
  <outline>
    <contour>
      <point x="288" y="77" type="line"/>
      <point x="139" y="239" type="line"/>
      <point x="188" y="280"/>
      <point x="284" y="359"/>
      <point x="333" y="400" type="qcurve"/>
      <point x="331" y="383" type="line"/>
      <point x="290" y="347"/>
      <point x="209" y="275"/>
      <point x="168" y="239" type="qcurve"/>
      <point x="198" y="202"/>
      <point x="260" y="130"/>
      <point x="290" y="93" type="qcurve"/>
    </contour>
  </outline>
</glyph>
<glyph name="guilsinglright" format="2">
  <advance width="392"/>
  <unicode hex="203A"/>
  <outline>
    <contour>
      <point x="119" y="93" type="line"/>
      <point x="160" y="130"/>
      <point x="240" y="202"/>
      <point x="281" y="239" type="qcurve"/>
      <point x="251" y="275"/>
      <point x="190" y="347"/>
      <point x="160" y="383" type="qcurve"/>
      <point x="162" y="400" type="line"/>
      <point x="199" y="359"/>
      <point x="273" y="280"/>
      <point x="310" y="239" type="qcurve"/>
      <point x="117" y="77" type="line"/>
    </contour>
  </outline>
</glyph>
<glyph name="foursuperior" format="2">
  <advance width="410"/>
  <unicode hex="2074"/>
  <outline>
    <contour>
      <point x="204" y="382" type="line"/>
      <point x="243" y="382" type="line"/>
      <point x="255" y="468" type="line"/>
      <point x="77" y="468" type="line"/>
      <point x="297" y="709" type="line"/>
      <point x="264" y="475" type="line"/>
      <point x="312" y="475" type="line"/>
      <point x="311" y="468" type="line"/>
      <point x="263" y="468" type="line"/>
      <point x="251" y="382" type="line"/>
      <point x="293" y="382" type="line"/>
      <point x="292" y="375" type="line"/>
      <point x="203" y="375" type="line"/>
    </contour>
    <contour>
      <point x="286" y="688" type="line"/>
      <point x="93" y="475" type="line"/>
      <point x="256" y="475" type="line"/>
    </contour>
  </outline>
</glyph>
<glyph name="Euro" format="2">
  <advance width="553"/>
  <unicode hex="20AC"/>
  <outline>
    <contour>
      <point x="62" y="393" type="line"/>
      <point x="130" y="393" type="line"/>
      <point x="143" y="438"/>
      <point x="192" y="533"/>
      <point x="229" y="571" type="qcurve" smooth="yes" name="inserted"/>
      <point x="265" y="609"/>
      <point x="365" y="658"/>
      <point x="428" y="658" type="qcurve"/>
      <point x="468" y="658"/>
      <point x="519" y="638"/>
      <point x="524" y="634" type="qcurve"/>
      <point x="517" y="624" type="line"/>
      <point x="496" y="634" name="inserted"/>
      <point x="451" y="644"/>
      <point x="426" y="644" type="qcurve"/>
      <point x="366" y="644"/>
      <point x="270" y="598"/>
      <point x="237" y="562" type="qcurve" smooth="yes"/>
      <point x="206" y="529"/>
      <point x="157" y="440"/>
      <point x="144" y="393" type="qcurve"/>
      <point x="389" y="393" type="line"/>
      <point x="387" y="379" type="line"/>
      <point x="140" y="379" type="line"/>
      <point x="137" y="366" name="inserted"/>
      <point x="133" y="341"/>
      <point x="131" y="328" type="qcurve"/>
      <point x="129" y="317"/>
      <point x="128" y="297"/>
      <point x="127" y="287" type="qcurve"/>
      <point x="376" y="287" type="line"/>
      <point x="374" y="273" type="line"/>
      <point x="127" y="273" type="line"/>
      <point x="127" y="212"/>
      <point x="162" y="113"/>
      <point x="192" y="79" type="qcurve" smooth="yes" name="inserted"/>
      <point x="221" y="44"/>
      <point x="299" y="7"/>
      <point x="343" y="7" type="qcurve"/>
      <point x="371" y="7" name="inserted"/>
      <point x="426" y="21"/>
      <point x="453" y="35" type="qcurve"/>
      <point x="464" y="27" type="line"/>
      <point x="434" y="10" name="inserted"/>
      <point x="372" y="-7"/>
      <point x="340" y="-7" type="qcurve"/>
      <point x="290" y="-7"/>
      <point x="207" y="36"/>
      <point x="177" y="74" type="qcurve" smooth="yes" name="inserted"/>
      <point x="146" y="111"/>
      <point x="112" y="213"/>
      <point x="112" y="273" type="qcurve"/>
      <point x="48" y="273" type="line"/>
      <point x="50" y="287" type="line"/>
      <point x="112" y="287" type="line"/>
      <point x="113" y="297"/>
      <point x="114" y="316"/>
      <point x="116" y="327" type="qcurve"/>
      <point x="118" y="339"/>
      <point x="122" y="365"/>
      <point x="126" y="379" type="qcurve"/>
      <point x="60" y="379" type="line"/>
    </contour>
  </outline>
</glyph>
<glyph name="divisionslash" format="2">
  <advance width="313"/>
  <unicode hex="2215"/>
  <outline>
    <contour>
      <point x="-15" y="-16" type="line"/>
      <point x="-31" y="-16" type="line"/>
      <point x="335" y="735" type="line"/>
      <point x="351" y="735" type="line"/>
    </contour>
  </outline>
</glyph>
